#N canvas 0 22 450 300 10;
#X obj 27 -4 bng 15 250 50 0 empty empty empty 17 7 0 10 -262144 -1
-1;
#X obj -127 28 vline~;
#X obj -127 332 *~;
#X obj -70 155 osc~ 50;
#X floatatom -8 109 5 0 0 0 - - -;
#X obj -70 176 osc~ 50;
#X obj -70 197 osc~ 50;
#X obj -70 218 osc~ 50;
#X obj -97 193 +~;
#X obj -97 214 +~;
#X obj -97 235 +~;
#X obj -127 415 *~;
#X floatatom -112 376 5 0 0 0 - - -;
#X obj -112 395 * 0.001;
#X obj -70 239 osc~ 50;
#X obj -70 260 osc~ 50;
#X obj -70 281 osc~ 50;
#X obj -97 256 +~;
#X obj -97 277 +~;
#X obj -97 298 +~;
#X obj -170 273 noise~;
#X obj -170 315 +~;
#X obj 27 62 line;
#X obj 27 11 delay 300;
#X msg -221 11 2 5 0 \, 0.5 10 10 \, 0 150 20;
#X obj -127 354 lop~ 1000;
#X msg 27 79 50;
#X msg 27 45 90 500;
#X obj -51 62 line;
#X obj -51 11 delay 300;
#X obj -51 -4 bng 15 250 50 0 empty empty empty 17 7 0 10 -262144 -1
-1;
#X msg 27 28 50;
#X obj -170 294 *~ 0.2;
#X obj -31 125 * 1;
#X obj -8 159 * 2.405;
#X obj -8 180 * 3.832;
#X obj -8 201 * 5.136;
#X obj -8 222 * 5.52;
#X obj -8 243 * 6.38;
#X obj -8 264 * 7.016;
#X msg -51 45 200 500;
#X msg -51 79 100;
#X msg -51 28 100;
#X obj -127 437 dac~;
#X obj -62 337 loadbang;
#X msg -62 359 70;
#X connect 0 0 24 0;
#X connect 0 0 26 0;
#X connect 0 0 27 0;
#X connect 0 0 23 0;
#X connect 1 0 2 0;
#X connect 2 0 25 0;
#X connect 3 0 8 0;
#X connect 4 0 33 0;
#X connect 4 0 34 0;
#X connect 4 0 35 0;
#X connect 4 0 36 0;
#X connect 5 0 8 1;
#X connect 6 0 9 1;
#X connect 7 0 10 1;
#X connect 8 0 9 0;
#X connect 9 0 10 0;
#X connect 10 0 17 0;
#X connect 11 0 43 0;
#X connect 12 0 13 0;
#X connect 13 0 11 1;
#X connect 14 0 17 1;
#X connect 15 0 18 1;
#X connect 16 0 19 1;
#X connect 17 0 18 0;
#X connect 18 0 19 0;
#X connect 19 0 21 1;
#X connect 20 0 32 0;
#X connect 21 0 2 1;
#X connect 22 0 4 0;
#X connect 23 0 31 0;
#X connect 24 0 1 0;
#X connect 25 0 11 0;
#X connect 26 0 4 0;
#X connect 27 0 22 0;
#X connect 28 0 4 0;
#X connect 29 0 42 0;
#X connect 30 0 24 0;
#X connect 30 0 29 0;
#X connect 30 0 40 0;
#X connect 30 0 41 0;
#X connect 31 0 22 0;
#X connect 32 0 21 0;
#X connect 33 0 3 1;
#X connect 34 0 5 0;
#X connect 35 0 6 0;
#X connect 36 0 7 0;
#X connect 37 0 14 1;
#X connect 38 0 15 0;
#X connect 39 0 16 0;
#X connect 40 0 28 0;
#X connect 41 0 4 0;
#X connect 42 0 28 0;
#X connect 44 0 45 0;
#X connect 45 0 12 0;
