#N canvas 39 34 969 606 10;
#X obj 411 32 bng 15 250 50 0 empty empty empty 17 7 0 10 -262144 -1
-1;
#X obj 110 174 vline~;
#X obj 144 391 *~;
#X obj 235 193 osc~ 50;
#X obj 235 214 osc~ 50;
#X obj 235 235 osc~ 50;
#X obj 235 256 osc~ 50;
#X obj 235 277 osc~ 50;
#X obj 160 298 noise~;
#X obj 160 359 +~;
#X obj 412 103 line;
#X obj 411 47 delay 300;
#X msg 110 151 2 5 0 \, 0.5 10 10 \, 0 150 20;
#X obj 144 413 lop~ 1000;
#X msg 412 66 90 500;
#X obj 267 93 line;
#X obj 267 42 delay 300;
#X obj 267 27 bng 15 250 50 0 empty empty empty 17 7 0 10 -262144 -1
-1;
#X obj 160 319 *~ 0.2;
#X obj 297 197 * 2.405;
#X obj 297 218 * 3.832;
#X obj 297 239 * 5.136;
#X obj 297 260 * 5.52;
#X msg 267 76 200 500;
#X msg 267 110 100;
#X msg 267 59 100;
#X obj 145 443 dac~;
#X obj 321 147 f;
#X obj 210 318 expr~ ($v1+1.5*$v2+$v3+0.8*$v4+0.5*$v5)/5;
#X msg 412 84 40;
#X msg 411 121 40;
#X connect 0 0 12 0;
#X connect 0 0 30 0;
#X connect 0 0 14 0;
#X connect 0 0 11 0;
#X connect 1 0 2 0;
#X connect 2 0 13 0;
#X connect 3 0 28 0;
#X connect 4 0 28 1;
#X connect 5 0 28 2;
#X connect 6 0 28 3;
#X connect 7 0 28 4;
#X connect 8 0 18 0;
#X connect 9 0 2 1;
#X connect 10 0 27 0;
#X connect 11 0 29 0;
#X connect 12 0 1 0;
#X connect 13 0 26 0;
#X connect 13 0 26 1;
#X connect 14 0 10 0;
#X connect 15 0 27 0;
#X connect 16 0 25 0;
#X connect 17 0 12 0;
#X connect 17 0 16 0;
#X connect 17 0 23 0;
#X connect 17 0 24 0;
#X connect 18 0 9 0;
#X connect 19 0 4 0;
#X connect 20 0 5 0;
#X connect 21 0 6 0;
#X connect 22 0 7 1;
#X connect 23 0 15 0;
#X connect 24 0 27 0;
#X connect 25 0 15 0;
#X connect 27 0 21 0;
#X connect 27 0 20 0;
#X connect 27 0 19 0;
#X connect 27 0 22 0;
#X connect 27 0 3 1;
#X connect 28 0 9 1;
#X connect 29 0 10 0;
#X connect 30 0 27 0;
