#N canvas 211 22 1064 852 10;
#X obj 507 635 dac~;
#X obj 485 209 hsl 128 15 0 100 0 0 empty empty empty -2 -8 0 10 -262144
-1 -1 0 1;
#X text 477 190 bass --> snare --> hihat;
#X floatatom 437 343 5 0 0 0 - - -;
#X obj 437 401 vline~;
#X text 385 276 Decay: 100-300ms;
#X obj 576 492 lop~;
#X floatatom 730 329 5 0 0 0 - - -;
#X obj 730 288 * 100;
#X obj 438 458 noise~;
#X text 652 503 volume compensation;
#X text 713 270 filter cutoff;
#X obj 474 475 *~;
#X obj 437 317 + 300;
#X obj 730 309 + 10;
#X obj 576 517 *~;
#X obj 424 505 hip~;
#X floatatom 612 503 5 0 0 0 - - -;
#X obj 612 482 /;
#X obj 612 445 bng 15 250 50 0 empty empty empty 17 7 0 10 -262144
-1 -1;
#X obj 610 425 + 1;
#X obj 482 531 * 0.01;
#X obj 459 548 *~;
#X msg 437 369 1 5 0 \, 0.5 10 10 \, 0 \$1 20;
#X obj 424 485 *~;
#X msg 385 164 0;
#X msg 385 210 100;
#X msg 612 462 100;
#X obj 610 405 * 1.5;
#X obj 292 332 osc~ 50;
#X obj 250 315 line~;
#X msg 235 291 1;
#X obj 250 452 *~;
#X floatatom 354 311 5 0 0 0 - - -;
#X obj 354 336 * 2;
#X obj 292 353 osc~ 50;
#X obj 292 374 osc~ 50;
#X obj 292 395 osc~ 50;
#X obj 354 357 * 3;
#X obj 354 378 * 4;
#X obj 265 370 +~;
#X obj 265 391 +~;
#X obj 265 412 +~;
#X obj 437 294 * -1.5;
#X text 221 271 extra bass sound;
#X obj 354 258 loadbang;
#X msg 354 289 50;
#X obj 562 618 *~;
#X obj 511 601 +~;
#X obj 511 581 +~;
#X floatatom 577 579 5 0 0 0 - - -;
#X obj 250 478 *~ 3;
#X msg 385 187 40;
#X msg 271 291 0 500;
#X obj 577 598 * 0.001;
#X text 612 575 volume: keep below 70;
#X connect 1 0 8 0;
#X connect 1 0 21 0;
#X connect 1 0 28 0;
#X connect 1 0 43 0;
#X connect 3 0 23 0;
#X connect 4 0 12 1;
#X connect 4 0 24 1;
#X connect 6 0 15 0;
#X connect 8 0 14 0;
#X connect 9 0 12 0;
#X connect 9 0 24 0;
#X connect 12 0 6 0;
#X connect 13 0 3 0;
#X connect 14 0 7 0;
#X connect 14 0 16 1;
#X connect 14 0 6 1;
#X connect 15 0 49 1;
#X connect 16 0 22 0;
#X connect 17 0 15 1;
#X connect 18 0 17 0;
#X connect 19 0 27 0;
#X connect 20 0 18 1;
#X connect 20 0 19 0;
#X connect 21 0 22 1;
#X connect 22 0 49 0;
#X connect 23 0 4 0;
#X connect 24 0 16 0;
#X connect 25 0 1 0;
#X connect 25 0 31 0;
#X connect 25 0 53 0;
#X connect 26 0 1 0;
#X connect 27 0 18 0;
#X connect 28 0 20 0;
#X connect 29 0 40 0;
#X connect 30 0 32 0;
#X connect 31 0 30 0;
#X connect 32 0 51 0;
#X connect 33 0 29 0;
#X connect 33 0 34 0;
#X connect 33 0 38 0;
#X connect 33 0 39 0;
#X connect 34 0 35 0;
#X connect 35 0 40 1;
#X connect 36 0 41 1;
#X connect 37 0 42 1;
#X connect 38 0 36 0;
#X connect 39 0 37 0;
#X connect 40 0 41 0;
#X connect 41 0 42 0;
#X connect 42 0 32 1;
#X connect 43 0 13 0;
#X connect 45 0 46 0;
#X connect 46 0 33 0;
#X connect 47 0 0 0;
#X connect 48 0 47 0;
#X connect 49 0 48 0;
#X connect 50 0 54 0;
#X connect 51 0 48 1;
#X connect 52 0 1 0;
#X connect 53 0 30 0;
#X connect 54 0 47 1;
