#N canvas 162 22 1007 815 10;
#X obj 699 75 noise~;
#X obj 740 184 dac~;
#X obj 614 87 vline~;
#X floatatom 551 87 5 0 0 0 - - -, f 5;
#X obj 18 65 print heej;
#X msg 18 24 ploy;
#X obj 699 115 *~;
#X obj 712 148 lop~;
#X text 285 87 slower snare;
#X obj 368 85 bng 15 250 50 0 empty empty empty 17 7 0 10 -262144 -1
-1;
#X obj 478 110 bng 15 250 50 0 empty empty empty 17 7 0 10 -262144
-1 -1;
#X msg 751 77 0.2;
#X text 500 114 bass?;
#X obj 160 213 noise~;
#X obj 137 308 dac~;
#X obj 160 253 *~;
#X msg 212 215 0.2;
#X obj 283 230 hip~;
#X obj 89 205 vline~;
#X floatatom 274 214 5 0 0 0 - - -, f 5;
#X obj 44 250 lop~;
#X msg 95 151 10;
#X obj 48 286 *~ 0.2;
#X obj 275 257 *~ 0.2;
#X msg 586 29 10;
#X obj 341 780 dac~;
#X obj 446 246 vline~;
#X floatatom 368 251 5 0 0 0 - - -, f 5;
#X obj 515 279 *~;
#X obj 418 126 bng 15 250 50 0 empty empty empty 17 7 0 10 -262144
-1 -1;
#X msg 567 241 0.2;
#X text 377 126 hihat;
#X obj 528 312 hip~;
#X msg 402 193 10000;
#X msg 28 221 5000;
#X msg 475 191 0.7 5 0 \, 0.4 10 10 \, 0 100 20;
#X msg 141 151 2 5 0 \, 1 10 10 \, 0 160 20;
#X obj 397 84 metro 300;
#X obj 340 41 metro 1200;
#X msg 413 7 1;
#X msg 464 11 0;
#X obj 336 63 delay 600;
#X obj 467 37 metro 2400;
#X obj 449 57 delay 1200;
#X obj 465 77 delay 1050;
#X obj 329 396 hsl 128 15 0 100 0 0 empty empty empty -2 -8 0 10 -262144
-1 -1 0 1;
#X text 321 377 bass --> snare --> hihat;
#X floatatom 281 530 5 0 0 0 - - -, f 5;
#X obj 281 588 vline~;
#X msg 644 16 50 5 0 \, 25 10 10 \, 0 300 20;
#X text 229 463 Decay: 100-300ms;
#X obj 420 679 lop~;
#X floatatom 574 516 5 0 0 0 - - -, f 5;
#X obj 574 475 * 100;
#X obj 515 248 noise~;
#X obj 282 645 noise~;
#X text 496 690 volume compensation;
#X text 557 457 filter cutoff;
#X obj 318 662 *~;
#X obj 281 504 + 300;
#X obj 574 496 + 10;
#X obj 420 704 *~;
#X obj 268 692 hip~;
#X floatatom 456 690 5 0 0 0 - - -, f 5;
#X obj 456 669 /;
#X obj 456 632 bng 15 250 50 0 empty empty empty 17 7 0 10 -262144
-1 -1;
#X obj 454 612 + 1;
#X obj 326 718 * 0.01;
#X obj 303 735 *~;
#X msg 281 556 1 5 0 \, 0.5 10 10 \, 0 \$1 20;
#X obj 268 672 *~;
#X msg 229 351 0;
#X msg 229 397 100;
#X msg 456 649 100;
#X obj 454 592 * 1.5;
#X obj 136 519 osc~ 50;
#X obj 94 502 line~;
#X msg 79 478 1;
#X msg 115 478 0 300;
#X obj 94 639 *~;
#X floatatom 198 498 5 0 0 0 - - -, f 5;
#X obj 198 523 * 2;
#X obj 136 540 osc~ 50;
#X obj 94 665 *~ 1;
#X obj 136 561 osc~ 50;
#X obj 136 582 osc~ 50;
#X obj 198 544 * 3;
#X obj 198 565 * 4;
#X obj 109 557 +~;
#X obj 109 578 +~;
#X obj 109 599 +~;
#X msg 229 374 50;
#X obj 281 481 * -1.5;
#X text 65 458 extra bass sound;
#X obj 198 445 loadbang;
#X msg 198 476 50;
#X connect 0 0 6 0;
#X connect 2 0 6 1;
#X connect 3 0 7 1;
#X connect 5 0 4 0;
#X connect 6 0 7 0;
#X connect 7 0 1 0;
#X connect 9 0 21 0;
#X connect 9 0 36 0;
#X connect 9 0 34 0;
#X connect 10 0 24 0;
#X connect 10 0 49 0;
#X connect 11 0 6 1;
#X connect 13 0 15 0;
#X connect 15 0 17 0;
#X connect 15 0 20 0;
#X connect 16 0 15 1;
#X connect 17 0 23 0;
#X connect 18 0 15 1;
#X connect 19 0 17 1;
#X connect 20 0 22 0;
#X connect 21 0 19 0;
#X connect 22 0 14 0;
#X connect 24 0 3 0;
#X connect 26 0 28 1;
#X connect 27 0 32 1;
#X connect 28 0 32 0;
#X connect 29 0 33 0;
#X connect 29 0 35 0;
#X connect 30 0 28 1;
#X connect 33 0 27 0;
#X connect 34 0 20 1;
#X connect 35 0 26 0;
#X connect 36 0 18 0;
#X connect 37 0 29 0;
#X connect 38 0 41 0;
#X connect 39 0 37 0;
#X connect 39 0 38 0;
#X connect 39 0 42 0;
#X connect 40 0 37 0;
#X connect 40 0 38 0;
#X connect 40 0 42 0;
#X connect 41 0 9 0;
#X connect 42 0 10 0;
#X connect 42 0 43 0;
#X connect 42 0 44 0;
#X connect 43 0 10 0;
#X connect 44 0 10 0;
#X connect 45 0 53 0;
#X connect 45 0 67 0;
#X connect 45 0 74 0;
#X connect 45 0 92 0;
#X connect 47 0 69 0;
#X connect 48 0 58 1;
#X connect 48 0 70 1;
#X connect 49 0 2 0;
#X connect 51 0 61 0;
#X connect 53 0 60 0;
#X connect 54 0 28 0;
#X connect 55 0 58 0;
#X connect 55 0 70 0;
#X connect 58 0 51 0;
#X connect 59 0 47 0;
#X connect 60 0 52 0;
#X connect 60 0 62 1;
#X connect 60 0 51 1;
#X connect 61 0 25 0;
#X connect 62 0 68 0;
#X connect 63 0 61 1;
#X connect 64 0 63 0;
#X connect 65 0 73 0;
#X connect 66 0 64 1;
#X connect 66 0 65 0;
#X connect 67 0 68 1;
#X connect 68 0 25 0;
#X connect 69 0 48 0;
#X connect 70 0 62 0;
#X connect 71 0 45 0;
#X connect 71 0 77 0;
#X connect 71 0 78 0;
#X connect 72 0 45 0;
#X connect 73 0 64 0;
#X connect 74 0 66 0;
#X connect 75 0 88 0;
#X connect 76 0 79 0;
#X connect 77 0 76 0;
#X connect 78 0 76 0;
#X connect 79 0 83 0;
#X connect 80 0 75 0;
#X connect 80 0 81 0;
#X connect 80 0 86 0;
#X connect 80 0 87 0;
#X connect 81 0 82 0;
#X connect 82 0 88 1;
#X connect 83 0 25 0;
#X connect 84 0 89 1;
#X connect 85 0 90 1;
#X connect 86 0 84 0;
#X connect 87 0 85 0;
#X connect 88 0 89 0;
#X connect 89 0 90 0;
#X connect 90 0 79 1;
#X connect 91 0 45 0;
#X connect 92 0 59 0;
#X connect 94 0 95 0;
#X connect 95 0 80 0;
