#N canvas 633 50 667 669 10;
#X obj 45 432 dac~;
#N canvas 246 150 455 186 getSystemData 0;
#X obj 24 114 s tilt;
#X obj 81 114 s accel;
#X obj 138 114 s gyro;
#X obj 195 114 s motion;
#X obj 24 44 r fromSystem;
#X obj 24 94 route /tilts /accel /gyro /motion;
#X obj 24 69 list trim;
#N canvas 148 191 493 346 debug 0;
#X obj 36 40 inlet;
#X obj 82 40 inlet;
#X obj 126 40 inlet;
#X obj 170 40 inlet;
#X obj 32 292 s toGUI;
#X msg 36 167 list /motionLabel Motion: roll: \$1 pitch: \$2 yaw: \$3
;
#X msg 82 190 list /gyroLabel Gyro roll: \$1 pitch: \$2 yaw: \$3;
#X msg 126 212 list /accelLabel Accel: x: \$1 y: \$2 z: \$3;
#X msg 170 234 list /tiltLabel Tilt x: \$1 y: \$2;
#N canvas 0 50 450 300 speedlim 0;
#X msg 69 119 1;
#X obj 43 144 spigot 1;
#X obj 73 73 t b b;
#X msg 98 119 0;
#X obj 71 95 delay 200;
#X obj 46 29 inlet;
#X obj 45 193 outlet;
#X obj 144 38 r latency;
#X connect 0 0 1 1;
#X connect 1 0 2 0;
#X connect 1 0 6 0;
#X connect 2 0 4 0;
#X connect 2 1 3 0;
#X connect 3 0 1 1;
#X connect 4 0 0 0;
#X connect 5 0 1 0;
#X connect 7 0 4 1;
#X restore 36 67 pd speedlim;
#N canvas 0 50 450 300 speedlim 0;
#X msg 69 119 1;
#X obj 43 144 spigot 1;
#X obj 73 73 t b b;
#X msg 98 119 0;
#X obj 71 95 delay 200;
#X obj 46 29 inlet;
#X obj 45 193 outlet;
#X obj 144 38 r latency;
#X connect 0 0 1 1;
#X connect 1 0 2 0;
#X connect 1 0 6 0;
#X connect 2 0 4 0;
#X connect 2 1 3 0;
#X connect 3 0 1 1;
#X connect 4 0 0 0;
#X connect 5 0 1 0;
#X connect 7 0 4 1;
#X restore 82 94 pd speedlim;
#N canvas 0 50 450 300 speedlim 0;
#X msg 69 119 1;
#X obj 43 144 spigot 1;
#X obj 73 73 t b b;
#X msg 98 119 0;
#X obj 71 95 delay 200;
#X obj 46 29 inlet;
#X obj 45 193 outlet;
#X obj 144 38 r latency;
#X connect 0 0 1 1;
#X connect 1 0 2 0;
#X connect 1 0 6 0;
#X connect 2 0 4 0;
#X connect 2 1 3 0;
#X connect 3 0 1 1;
#X connect 4 0 0 0;
#X connect 5 0 1 0;
#X connect 7 0 4 1;
#X restore 126 118 pd speedlim;
#N canvas 0 50 450 300 speedlim 0;
#X msg 69 119 1;
#X obj 43 144 spigot 1;
#X obj 73 73 t b b;
#X msg 98 119 0;
#X obj 71 95 delay 200;
#X obj 46 29 inlet;
#X obj 45 193 outlet;
#X obj 144 38 r latency;
#X connect 0 0 1 1;
#X connect 1 0 2 0;
#X connect 1 0 6 0;
#X connect 2 0 4 0;
#X connect 2 1 3 0;
#X connect 3 0 1 1;
#X connect 4 0 0 0;
#X connect 5 0 1 0;
#X connect 7 0 4 1;
#X restore 169 144 pd speedlim;
#X text 37 18 Debug feed back to the GUI for the sensor data;
#X connect 0 0 9 0;
#X connect 1 0 10 0;
#X connect 2 0 11 0;
#X connect 3 0 12 0;
#X connect 5 0 4 0;
#X connect 6 0 4 0;
#X connect 7 0 4 0;
#X connect 8 0 4 0;
#X connect 9 0 5 0;
#X connect 10 0 6 0;
#X connect 11 0 7 0;
#X connect 12 0 8 0;
#X restore 23 151 pd debug;
#X text 91 148 <- Connect the four routed values for GUI debug;
#X text 24 11 Get the system information and route them to internal
send/receive objects.;
#X connect 4 0 6 0;
#X connect 5 0 0 0;
#X connect 5 1 1 0;
#X connect 5 2 2 0;
#X connect 5 3 3 0;
#X connect 6 0 5 0;
#X restore 37 95 pd getSystemData;
#X text 168 96 Get system data: tilt \, accel \, gyro and motion;
#N canvas 159 63 490 486 getGUIData 0;
#X obj 34 249 s rootNote;
#X obj 84 274 s octave;
#X obj 132 298 s scaleMode;
#X obj 33 162 r fromGUI;
#X obj 33 184 list trim;
#X obj 186 338 s muteTap;
#X obj 237 379 s instrument;
#X obj 288 416 s timbre;
#X obj 33 206 route /rootNoteSlider /octaveSlider /scaleModeToggle
/muteTap /instrumentToggle /timbreGrid /bassToggle;
#X obj 343 448 s bassToggle;
#X text 32 19 Get value from the GUI and send to internal send/receive
objects /rootNoteSlider - Set the scale root note of the melody /octaveSlider
- Set the root octave of the melody /scaleModeToggle - Toggle major
or minor scale mode /muteTap - Tap button for muting the melody /instrumentToggle
- Toggle the meldoy or rhythm instrument /timbreGrid - 2D input for
changing the timbre /bassToggle - Toggle for enabling rhythm bass notes
;
#X connect 3 0 4 0;
#X connect 4 0 8 0;
#X connect 8 0 0 0;
#X connect 8 1 1 0;
#X connect 8 2 2 0;
#X connect 8 3 5 0;
#X connect 8 4 6 0;
#X connect 8 5 7 0;
#X connect 8 6 9 0;
#X restore 38 118 pd getGUIData;
#X text 168 117 Get GUI data;
#N canvas 186 198 345 170 setGUIdefaults 0;
#X obj 29 44 loadbang;
#X msg 29 66 list /octaveSlider 5;
#X obj 29 117 send toGUI;
#X msg 37 90 list /rootNoteSlider 0;
#X text 28 18 Set GUI defaults;
#X text 210 88 Root note C;
#X text 209 64 Fifth octave;
#X connect 0 0 1 0;
#X connect 0 0 3 0;
#X connect 1 0 2 0;
#X connect 3 0 2 0;
#X restore 37 141 pd setGUIdefaults;
#N canvas 633 50 646 422 network 0;
#X obj 390 84 r fromNetwork;
#X obj 86 321 s toNetwork;
#X obj 389 299 s chordRoot;
#X obj 405 270 s toGUI;
#X obj 106 195 s toGUI;
#X msg 106 126 list /netSLabel Sent: \$1;
#X msg 405 189 list /netRLabel Received: \$1;
#X text 86 63 Send data;
#X text 391 65 Receive data;
#X text 113 107 GUI debug;
#X text 416 168 GUI debug;
#X text 103 228 Send to all but me;
#X obj 390 127 route /chordRoot;
#N canvas 0 50 450 300 speedlim 0;
#X msg 69 119 1;
#X obj 43 144 spigot 1;
#X obj 73 73 t b b;
#X msg 98 119 0;
#X obj 71 95 delay 200;
#X obj 46 29 inlet;
#X obj 45 193 outlet;
#X obj 140 29 inlet;
#X connect 0 0 1 1;
#X connect 1 0 2 0;
#X connect 1 0 6 0;
#X connect 2 0 4 0;
#X connect 2 1 3 0;
#X connect 3 0 1 1;
#X connect 4 0 0 0;
#X connect 5 0 1 0;
#X connect 7 0 4 1;
#X restore 106 172 pd speedlim;
#N canvas 0 50 450 300 speedlim 0;
#X msg 69 119 1;
#X obj 43 144 spigot 1;
#X obj 73 73 t b b;
#X msg 98 119 0;
#X obj 71 95 delay 200;
#X obj 46 29 inlet;
#X obj 45 193 outlet;
#X obj 140 29 inlet;
#X connect 0 0 1 1;
#X connect 1 0 2 0;
#X connect 1 0 6 0;
#X connect 2 0 4 0;
#X connect 2 1 3 0;
#X connect 3 0 1 1;
#X connect 4 0 0 0;
#X connect 5 0 1 0;
#X connect 7 0 4 1;
#X restore 405 247 pd speedlim;
#X obj 180 147 r GUIlatency;
#X obj 478 221 r GUIlatency;
#X msg 86 248 list /chordRoot \$1;
#X obj 390 105 list trim;
#N canvas 0 50 450 300 speedlim 0;
#X msg 69 119 1;
#X obj 43 144 spigot 1;
#X obj 73 73 t b b;
#X msg 98 119 0;
#X obj 71 95 delay 200;
#X obj 46 29 inlet;
#X obj 45 193 outlet;
#X obj 140 29 inlet;
#X connect 0 0 1 1;
#X connect 1 0 2 0;
#X connect 1 0 6 0;
#X connect 2 0 4 0;
#X connect 2 1 3 0;
#X connect 3 0 1 1;
#X connect 4 0 0 0;
#X connect 5 0 1 0;
#X connect 7 0 4 1;
#X restore 86 291 pd speedlim;
#X obj 160 268 r netLatency;
#X text 88 16 Subpatch for handling sending and receiving data over
the wlan. Make sure the input and output ports match.;
#X obj 86 81 r netMIDI;
#X floatatom 195 106 5 0 0 0 - - -, f 5;
#X connect 0 0 18 0;
#X connect 5 0 13 0;
#X connect 6 0 14 0;
#X connect 12 0 2 0;
#X connect 12 0 6 0;
#X connect 13 0 4 0;
#X connect 14 0 3 0;
#X connect 15 0 13 1;
#X connect 16 0 14 1;
#X connect 17 0 19 0;
#X connect 18 0 12 0;
#X connect 19 0 1 0;
#X connect 20 0 19 1;
#X connect 22 0 17 0;
#X connect 22 0 5 0;
#X connect 22 0 23 0;
#X restore 38 163 pd network;
#X obj 136 367 s~ out;
#X obj 44 400 r~ out;
#X obj 465 135 cnv 15 200 300 empty empty empty 20 12 0 14 -262130
-66577 0;
#N canvas 638 159 450 300 addChordOctave 0;
#X obj 67 28 inlet;
#X obj 68 52 / 4;
#X obj 68 74 int;
#X obj 70 97 * 12;
#X obj 68 118 outlet;
#X connect 0 0 1 0;
#X connect 1 0 2 0;
#X connect 2 0 3 0;
#X connect 3 0 4 0;
#X restore 504 240 pd addChordOctave;
#N canvas 587 170 673 414 average 0;
#X obj 91 119 +;
#X obj 86 72 t f f;
#X obj 86 31 inlet;
#X obj 91 153 * 0.5;
#X text 185 76 Source: http://lists.puredata.info/ pipermail/pd-list/2001-09/003086.html
;
#X obj 91 185 outlet;
#X connect 0 0 3 0;
#X connect 1 0 0 1;
#X connect 1 1 0 0;
#X connect 2 0 1 0;
#X connect 3 0 5 0;
#X restore 502 267 pd average;
#N canvas 617 213 450 391 round 0;
#X obj 152 196 moses 0.5;
#X obj 120 43 inlet;
#X obj 120 74 t f f;
#X obj 121 253 +;
#X msg 151 225 0;
#X obj 153 164 -;
#X obj 153 107 t f f;
#X obj 180 135 int;
#X msg 193 226 1;
#X obj 121 300 outlet;
#X obj 120 164 int;
#X connect 0 0 4 0;
#X connect 0 1 8 0;
#X connect 1 0 2 0;
#X connect 2 0 10 0;
#X connect 2 1 6 0;
#X connect 3 0 9 0;
#X connect 4 0 3 1;
#X connect 5 0 0 0;
#X connect 6 0 5 0;
#X connect 6 1 7 0;
#X connect 7 0 5 1;
#X connect 8 0 3 1;
#X connect 10 0 3 0;
#X restore 503 292 pd round;
#N canvas 913 118 363 601 noteName 0;
#X obj 35 21 inlet;
#X obj 35 40 % 12;
#X text 89 22 Midi value;
#X msg 35 496 symbol C;
#X obj 35 59 select 0 1 2 3 4 5 6 7 8 9 10 11;
#X obj 35 515 s nameOut;
#X obj 53 477 s nameOut;
#X obj 71 439 s nameOut;
#X obj 90 401 s nameOut;
#X obj 108 363 s nameOut;
#X obj 127 325 s nameOut;
#X obj 145 287 s nameOut;
#X obj 163 249 s nameOut;
#X obj 182 211 s nameOut;
#X obj 200 173 s nameOut;
#X obj 219 135 s nameOut;
#X obj 237 97 s nameOut;
#X msg 53 458 symbol C#/Db;
#X msg 71 420 symbol D;
#X msg 90 382 symbol D#/Eb;
#X msg 108 344 symbol E;
#X msg 127 306 symbol F;
#X msg 145 268 symbol F#/Gb;
#X msg 163 230 symbol G;
#X msg 182 192 symbol G#/Ab;
#X msg 200 154 symbol A;
#X msg 219 116 symbol A#/Bb;
#X msg 237 78 symbol B;
#X obj 35 535 r nameOut;
#X obj 35 556 outlet;
#X connect 0 0 1 0;
#X connect 1 0 4 0;
#X connect 3 0 5 0;
#X connect 4 0 3 0;
#X connect 4 1 17 0;
#X connect 4 2 18 0;
#X connect 4 3 19 0;
#X connect 4 4 20 0;
#X connect 4 5 21 0;
#X connect 4 6 22 0;
#X connect 4 7 23 0;
#X connect 4 8 24 0;
#X connect 4 9 25 0;
#X connect 4 10 26 0;
#X connect 4 11 27 0;
#X connect 17 0 6 0;
#X connect 18 0 7 0;
#X connect 19 0 8 0;
#X connect 20 0 9 0;
#X connect 21 0 10 0;
#X connect 22 0 11 0;
#X connect 23 0 12 0;
#X connect 24 0 13 0;
#X connect 25 0 14 0;
#X connect 26 0 15 0;
#X connect 27 0 16 0;
#X connect 28 0 29 0;
#X restore 504 218 pd noteName;
#N canvas 103 60 793 529 threshold 0;
#X obj 56 41 inlet;
#X obj 115 40 inlet;
#X obj 64 163 >=;
#X obj 175 41 inlet;
#X obj 116 164 <=;
#N canvas 382 164 450 376 memo 0;
#X obj 72 163 spigot;
#X obj 111 92 !=;
#X obj 154 93 f;
#X obj 70 94 f;
#X obj 217 164 spigot;
#X obj 256 93 !=;
#X obj 299 94 f;
#X obj 215 95 f;
#X obj 151 214 f;
#X obj 219 199 t f f;
#X obj 218 223 spigot;
#X obj 112 136 &&;
#X obj 71 224 spigot;
#X obj 70 200 t f f;
#X obj 70 46 inlet;
#X obj 218 47 inlet;
#X obj 71 299 outlet bang;
#X connect 0 0 2 0;
#X connect 0 0 8 0;
#X connect 0 0 13 0;
#X connect 1 0 11 0;
#X connect 2 0 1 1;
#X connect 3 0 1 0;
#X connect 3 0 0 0;
#X connect 4 0 6 0;
#X connect 4 0 9 0;
#X connect 5 0 4 1;
#X connect 6 0 5 1;
#X connect 7 0 5 0;
#X connect 7 0 4 0;
#X connect 8 0 11 1;
#X connect 9 0 10 0;
#X connect 9 1 10 1;
#X connect 10 0 8 0;
#X connect 11 0 0 1;
#X connect 12 0 16 0;
#X connect 13 0 12 0;
#X connect 13 1 12 1;
#X connect 14 0 3 0;
#X connect 15 0 7 0;
#X restore 63 234 pd memo;
#N canvas 797 173 450 376 memo 0;
#X obj 72 163 spigot;
#X obj 111 92 !=;
#X obj 154 93 f;
#X obj 70 94 f;
#X obj 217 164 spigot;
#X obj 256 93 !=;
#X obj 299 94 f;
#X obj 215 95 f;
#X obj 151 214 f;
#X obj 219 199 t f f;
#X obj 218 223 spigot;
#X obj 112 136 &&;
#X obj 71 224 spigot;
#X obj 70 200 t f f;
#X obj 70 46 inlet;
#X obj 218 47 inlet;
#X obj 71 299 outlet bang;
#X connect 0 0 2 0;
#X connect 0 0 8 0;
#X connect 0 0 13 0;
#X connect 1 0 11 0;
#X connect 2 0 1 1;
#X connect 3 0 1 0;
#X connect 3 0 0 0;
#X connect 4 0 6 0;
#X connect 4 0 9 0;
#X connect 5 0 4 1;
#X connect 6 0 5 1;
#X connect 7 0 5 0;
#X connect 7 0 4 0;
#X connect 8 0 11 1;
#X connect 9 0 10 0;
#X connect 9 1 10 1;
#X connect 10 0 8 0;
#X connect 11 0 0 1;
#X connect 12 0 16 0;
#X connect 13 0 12 0;
#X connect 13 1 12 1;
#X connect 14 0 3 0;
#X connect 15 0 7 0;
#X restore 130 235 pd memo;
#X obj 171 335 outlet bang;
#X obj 69 337 outlet bang;
#X connect 0 0 2 0;
#X connect 0 0 4 0;
#X connect 1 0 2 1;
#X connect 2 0 5 0;
#X connect 2 0 6 1;
#X connect 3 0 4 1;
#X connect 4 0 5 1;
#X connect 4 0 6 0;
#X connect 5 0 8 0;
#X connect 6 0 7 0;
#X restore 503 317 pd threshold;
#X text 167 138 Set default values like melody octave;
#N canvas 0 50 450 300 speedlim 0;
#X msg 69 119 1;
#X obj 43 144 spigot 1;
#X obj 73 73 t b b;
#X msg 98 119 0;
#X obj 71 95 delay 200;
#X obj 46 29 inlet;
#X obj 45 193 outlet;
#X obj 140 29 inlet;
#X connect 0 0 1 1;
#X connect 1 0 2 0;
#X connect 1 0 6 0;
#X connect 2 0 4 0;
#X connect 2 1 3 0;
#X connect 3 0 1 1;
#X connect 4 0 0 0;
#X connect 5 0 1 0;
#X connect 7 0 4 1;
#X restore 503 341 pd speedlim;
#N canvas 711 219 450 304 settings 0;
#X msg 81 118 300;
#X msg 92 138 200;
#X obj 161 144 loadbang;
#X text 76 40 Settings;
#X text 76 73 Changes the update rate for the GUI and net data;
#X obj 82 241 s netLatency;
#X obj 81 183 s GUIlatency;
#X msg 100 160 500;
#X msg 83 208 100;
#X connect 0 0 6 0;
#X connect 1 0 6 0;
#X connect 2 0 7 0;
#X connect 2 0 8 0;
#X connect 7 0 6 0;
#X connect 8 0 5 0;
#X restore 39 185 pd settings;
#X text 168 158 Network handling;
#X text 167 184 Other settings;
#X text 478 142 Custom subpatches;
#N canvas 0 50 507 300 GUIoutput 1;
#N canvas 677 186 539 314 displayTilt 1;
#X obj 21 17 inlet;
#X obj 144 16 inlet;
#X obj 21 42 expr ($f1+1)/2;
#X obj 21 169 pack f f;
#X obj 144 41 expr ($f1+1)/2;
#X obj 21 264 send toGUI;
#X msg 21 233 list /tiltDisplay \$1 \$2;
#X obj 143 62 t b f;
#X obj 23 92 + 0.0625;
#N canvas 0 50 450 300 speedlim 0;
#X msg 69 119 1;
#X obj 43 144 spigot 1;
#X obj 73 73 t b b;
#X msg 98 119 0;
#X obj 71 95 delay 200;
#X obj 46 29 inlet;
#X obj 45 193 outlet;
#X obj 140 29 inlet;
#X connect 0 0 1 1;
#X connect 1 0 2 0;
#X connect 1 0 6 0;
#X connect 2 0 4 0;
#X connect 2 1 3 0;
#X connect 3 0 1 1;
#X connect 4 0 0 0;
#X connect 5 0 1 0;
#X connect 7 0 4 1;
#X restore 22 199 pd speedlim;
#X obj 96 173 r GUIlatency;
#X obj 122 126 + 0.1;
#X connect 0 0 2 0;
#X connect 1 0 4 0;
#X connect 2 0 8 0;
#X connect 3 0 9 0;
#X connect 4 0 7 0;
#X connect 6 0 5 0;
#X connect 7 0 3 0;
#X connect 7 1 11 0;
#X connect 8 0 3 0;
#X connect 9 0 6 0;
#X connect 10 0 9 1;
#X connect 11 0 3 1;
#X restore 338 197 pd displayTilt;
#N canvas 303 259 579 408 displayMIDI 0;
#X obj 91 93 inlet;
#X obj 91 160 send toGUI;
#X msg 91 138 list /midiLabel0 MIDI: \$1;
#N canvas 0 50 450 300 speedlim 0;
#X msg 69 119 1;
#X obj 43 144 spigot 1;
#X obj 73 73 t b b;
#X msg 98 119 0;
#X obj 71 95 delay 200;
#X obj 46 29 inlet;
#X obj 45 193 outlet;
#X obj 140 29 inlet;
#X connect 0 0 1 1;
#X connect 1 0 2 0;
#X connect 1 0 6 0;
#X connect 2 0 4 0;
#X connect 2 1 3 0;
#X connect 3 0 1 1;
#X connect 4 0 0 0;
#X connect 5 0 1 0;
#X connect 7 0 4 1;
#X restore 91 115 pd speedlim;
#X obj 165 89 r GUIlatency;
#X connect 0 0 3 0;
#X connect 2 0 1 0;
#X connect 3 0 2 0;
#X connect 4 0 3 1;
#X restore 227 198 pd displayMIDI;
#X obj 227 174 r midiOut;
#X obj 339 151 unpack f f;
#X obj 337 95 r scaledTilt;
#N canvas 708 244 450 300 rescale 0;
#X obj 105 100 unpack f f;
#X obj 107 239 outlet;
#X obj 107 215 pack f f;
#X obj 104 70 inlet;
#X obj 105 161 expr ($f1*2)-1;
#X obj 171 186 expr ($f1*2)-1;
#X obj 105 128 / 8;
#X obj 172 123 / 5;
#X connect 0 0 6 0;
#X connect 0 1 7 0;
#X connect 2 0 1 0;
#X connect 3 0 0 0;
#X connect 4 0 2 0;
#X connect 5 0 2 1;
#X connect 6 0 4 0;
#X connect 7 0 5 0;
#X restore 337 121 pd rescale;
#N canvas 140 193 450 300 displayNoteName 0;
#X obj 73 39 inlet;
#X obj 72 239 send toGUI;
#X msg 72 217 list /noteNameLabel Note: \$1 \$2;
#N canvas 641 50 363 601 noteName 0;
#X obj 35 21 inlet;
#X obj 35 40 % 12;
#X text 89 22 Midi value;
#X msg 35 496 symbol C;
#X obj 35 59 select 0 1 2 3 4 5 6 7 8 9 10 11;
#X obj 35 515 s nameOut;
#X obj 53 477 s nameOut;
#X obj 71 439 s nameOut;
#X obj 90 401 s nameOut;
#X obj 108 363 s nameOut;
#X obj 127 325 s nameOut;
#X obj 145 287 s nameOut;
#X obj 163 249 s nameOut;
#X obj 182 211 s nameOut;
#X obj 200 173 s nameOut;
#X obj 219 135 s nameOut;
#X obj 237 97 s nameOut;
#X msg 53 458 symbol C#/Db;
#X msg 71 420 symbol D;
#X msg 90 382 symbol D#/Eb;
#X msg 108 344 symbol E;
#X msg 127 306 symbol F;
#X msg 145 268 symbol F#/Gb;
#X msg 163 230 symbol G;
#X msg 182 192 symbol G#/Ab;
#X msg 200 154 symbol A;
#X msg 219 116 symbol A#/Bb;
#X msg 237 78 symbol B;
#X obj 35 535 r nameOut;
#X obj 35 556 outlet;
#X connect 0 0 1 0;
#X connect 1 0 4 0;
#X connect 3 0 5 0;
#X connect 4 0 3 0;
#X connect 4 1 17 0;
#X connect 4 2 18 0;
#X connect 4 3 19 0;
#X connect 4 4 20 0;
#X connect 4 5 21 0;
#X connect 4 6 22 0;
#X connect 4 7 23 0;
#X connect 4 8 24 0;
#X connect 4 9 25 0;
#X connect 4 10 26 0;
#X connect 4 11 27 0;
#X connect 17 0 6 0;
#X connect 18 0 7 0;
#X connect 19 0 8 0;
#X connect 20 0 9 0;
#X connect 21 0 10 0;
#X connect 22 0 11 0;
#X connect 23 0 12 0;
#X connect 24 0 13 0;
#X connect 25 0 14 0;
#X connect 26 0 15 0;
#X connect 27 0 16 0;
#X connect 28 0 29 0;
#X restore 73 102 pd noteName;
#X obj 164 99 / 12;
#X obj 164 123 int;
#X obj 73 63 t f f;
#X obj 73 167 pack s f;
#N canvas 0 50 450 300 speedlim 0;
#X msg 69 119 1;
#X obj 43 144 spigot 1;
#X obj 73 73 t b b;
#X msg 98 119 0;
#X obj 71 95 delay 200;
#X obj 46 29 inlet;
#X obj 45 193 outlet;
#X obj 140 29 inlet;
#X connect 0 0 1 1;
#X connect 1 0 2 0;
#X connect 1 0 6 0;
#X connect 2 0 4 0;
#X connect 2 1 3 0;
#X connect 3 0 1 1;
#X connect 4 0 0 0;
#X connect 5 0 1 0;
#X connect 7 0 4 1;
#X restore 72 191 pd speedlim;
#X obj 146 165 r GUIlatency;
#X connect 0 0 6 0;
#X connect 2 0 1 0;
#X connect 3 0 7 0;
#X connect 4 0 5 0;
#X connect 5 0 7 1;
#X connect 6 0 3 0;
#X connect 6 1 4 0;
#X connect 7 0 8 0;
#X connect 8 0 2 0;
#X connect 9 0 8 1;
#X restore 87 198 pd displayNoteName;
#X obj 87 176 r midiOut;
#X text 83 54 Subpatch for handling output to GUI;
#X connect 2 0 1 0;
#X connect 3 0 0 0;
#X connect 3 1 0 1;
#X connect 4 0 5 0;
#X connect 5 0 3 0;
#X connect 7 0 6 0;
#X restore 39 209 pd GUIoutput;
#N canvas 445 135 618 508 stringSound 0;
#X obj 33 161 inlet;
#X obj 34 352 outlet~;
#N canvas 146 184 821 426 karpluck~ 0;
#X obj -38 2 inlet midi_note;
#X obj 44 90 inlet width;
#X obj 77 176 inlet decay;
#X obj 156 176 inlet cutoff;
#X obj -37 286 outlet~;
#N canvas 353 578 194 221 excitation~ 0;
#X obj 31 18 inlet midi_note;
#X obj 101 39 inlet width;
#X obj 30 120 vline~;
#X obj 100 123 noise~;
#X obj 30 154 *~;
#X obj 30 181 outlet~;
#X obj 30 44 bang;
#X obj 74 69 del 5;
#X msg 30 87 1 1;
#X msg 74 90 0 1;
#X connect 0 0 6 0;
#X connect 1 0 7 1;
#X connect 2 0 4 0;
#X connect 3 0 4 1;
#X connect 4 0 5 0;
#X connect 6 0 8 0;
#X connect 6 0 7 0;
#X connect 7 0 9 0;
#X connect 8 0 2 0;
#X connect 9 0 2 0;
#X restore -37 114 pd excitation~;
#N canvas 99 140 669 524 body~ 0;
#X obj 75 232 inlet~;
#X obj 221 274 outlet~;
#X obj 376 -12 block~ 1;
#X obj 75 270 delwrite~ \$0-dl 1000;
#X obj 99 131 delread~ \$0-dl 12;
#X obj 221 179 lop~ 4000;
#X obj 221 226 *~ 0.99;
#X obj 99 -22 mtof;
#X obj 99 8 t b f;
#X obj 99 69 /;
#X msg 92 43 1;
#X obj 99 99 * 1000;
#X obj 99 -55 inlet midi_note;
#X obj 260 202 inlet decay;
#X obj 272 154 inlet cutoff;
#X text 375 -55 Block size needs to be 1 sample for this subpatch to
ensure correct tuning and operation for delay line feedback;
#X text 151 70 Convert a midi note into the required delay line length
(in ms) to generate said pitch.;
#X connect 0 0 3 0;
#X connect 4 0 5 0;
#X connect 5 0 6 0;
#X connect 6 0 1 0;
#X connect 6 0 3 0;
#X connect 7 0 8 0;
#X connect 8 0 10 0;
#X connect 8 1 9 1;
#X connect 9 0 11 0;
#X connect 10 0 9 0;
#X connect 11 0 4 0;
#X connect 12 0 7 0;
#X connect 13 0 6 1;
#X connect 14 0 5 1;
#X restore -37 236 pd body~;
#X obj -38 26 s \$0-midi_note;
#X obj -37 71 r \$0-midi_note;
#X obj -22 162 r \$0-midi_note;
#X text 55 112 excitation generates a short noise burst the specied
width;
#X text 22 236 body filters the excitation noise in a pitch specific
delay line;
#X text -30 322 Source: http://blog.loomer.co.uk/2010/02/karplus-strong-guitar-string-synthesis.html
;
#X connect 0 0 7 0;
#X connect 1 0 5 1;
#X connect 2 0 6 2;
#X connect 3 0 6 3;
#X connect 5 0 6 0;
#X connect 6 0 4 0;
#X connect 8 0 5 0;
#X connect 9 0 6 1;
#X restore 33 293 pd karpluck~;
#X obj 34 323 *~ 0.25;
#X obj 186 199 loadbang;
#X msg 175 273 4000;
#X msg 78 217 20;
#X obj 93 244 0.999;
#X obj 75 192 r timbreWidth;
#X obj 170 247 r timbreCutoff;
#X text 31 125 The generated sound uses the Karplus–Strong string
synthesis algorithm;
#X connect 0 0 2 0;
#X connect 2 0 3 0;
#X connect 3 0 1 0;
#X connect 4 0 6 0;
#X connect 4 0 5 0;
#X connect 4 0 7 0;
#X connect 5 0 2 3;
#X connect 6 0 2 1;
#X connect 7 0 2 2;
#X connect 8 0 2 1;
#X connect 9 0 2 3;
#X restore 41 324 pd stringSound;
#N canvas 477 29 850 616 melodyMapping 1;
#N canvas 425 359 297 233 addScaleOctave 0;
#X obj 87 123 * 12;
#X obj 85 55 inlet;
#X obj 86 150 outlet;
#X obj 85 79 / 7;
#X obj 85 101 int;
#X connect 0 0 2 0;
#X connect 1 0 3 0;
#X connect 3 0 4 0;
#X connect 4 0 0 0;
#X restore 66 239 pd addScaleOctave;
#X obj 33 293 +;
#X obj 49 401 s midiOut;
#X obj 66 261 t b f;
#N canvas 366 240 450 300 scaleGate 0;
#N canvas 130 224 343 341 minorScale 0;
#X msg 65 83 0;
#X msg 84 107 2;
#X msg 123 150 5;
#X msg 143 179 7;
#X obj 65 58 select 0 1 2 3 4 5 6;
#X obj 65 34 % 7;
#X obj 59 263 outlet;
#X obj 65 9 inlet;
#X msg 104 127 3;
#X msg 162 207 8;
#X msg 181 233 11;
#X connect 0 0 6 0;
#X connect 1 0 6 0;
#X connect 2 0 6 0;
#X connect 3 0 6 0;
#X connect 4 0 0 0;
#X connect 4 1 1 0;
#X connect 4 2 8 0;
#X connect 4 3 2 0;
#X connect 4 4 3 0;
#X connect 4 5 9 0;
#X connect 4 6 10 0;
#X connect 5 0 4 0;
#X connect 7 0 5 0;
#X connect 8 0 6 0;
#X connect 9 0 6 0;
#X connect 10 0 6 0;
#X restore 88 122 pd minorScale;
#N canvas 0 50 450 300 gate 0;
#X obj 95 55 inlet;
#X obj 109 137 spigot;
#X obj 174 58 inlet;
#X obj 247 60 inlet;
#X obj 195 136 spigot;
#X obj 161 187 outlet;
#X obj 300 86 loadbang;
#X msg 297 109 0;
#X obj 133 99 expr ($f1+1)%2;
#X connect 0 0 1 0;
#X connect 1 0 5 0;
#X connect 2 0 4 0;
#X connect 3 0 4 1;
#X connect 3 0 8 0;
#X connect 4 0 5 0;
#X connect 6 0 7 0;
#X connect 7 0 8 0;
#X connect 7 0 4 1;
#X connect 8 0 1 1;
#X restore 65 165 pd gate;
#N canvas 710 249 343 341 majorScale 0;
#X msg 65 83 0;
#X msg 84 107 2;
#X msg 123 150 5;
#X msg 143 179 7;
#X msg 162 207 9;
#X msg 181 233 11;
#X msg 104 127 4;
#X obj 65 58 select 0 1 2 3 4 5 6;
#X obj 65 34 % 7;
#X obj 59 263 outlet;
#X obj 65 9 inlet;
#X connect 0 0 9 0;
#X connect 1 0 9 0;
#X connect 2 0 9 0;
#X connect 3 0 9 0;
#X connect 4 0 9 0;
#X connect 5 0 9 0;
#X connect 6 0 9 0;
#X connect 7 0 0 0;
#X connect 7 1 1 0;
#X connect 7 2 6 0;
#X connect 7 3 2 0;
#X connect 7 4 3 0;
#X connect 7 5 4 0;
#X connect 7 6 5 0;
#X connect 8 0 7 0;
#X connect 10 0 8 0;
#X restore 65 100 pd majorScale;
#X obj 65 53 inlet;
#X obj 65 197 outlet;
#X obj 111 141 inlet;
#X text 171 141 0 for major scale 1 for minor scale;
#X text 115 53 Input scale index 0-6;
#X text 123 199 Output chromatic scale index 0-11;
#X connect 0 0 1 1;
#X connect 1 0 4 0;
#X connect 2 0 1 0;
#X connect 3 0 2 0;
#X connect 3 0 0 0;
#X connect 5 0 1 2;
#X restore 34 214 pd scaleGate;
#N canvas 38 41 528 621 inputMapping 1;
#N canvas 242 244 450 300 xScaling 0;
#X obj 49 27 inlet;
#X obj 49 93 int;
#X obj 49 115 outlet;
#X obj 49 49 expr ($f1+1)/2;
#X obj 49 71 * 8;
#X text 50 8 Split into 8 discrete segments;
#X connect 0 0 3 0;
#X connect 1 0 2 0;
#X connect 3 0 4 0;
#X connect 4 0 1 0;
#X restore 49 355 pd xScaling;
#N canvas 166 208 450 300 yScaling 0;
#X obj 49 27 inlet;
#X obj 48 103 int;
#X obj 48 125 outlet;
#X obj 48 56 expr ($f1+1)/2;
#X obj 48 81 * 5;
#X text 47 6 Split into 5 discrete segments;
#X connect 0 0 3 0;
#X connect 1 0 2 0;
#X connect 3 0 4 0;
#X connect 4 0 1 0;
#X restore 118 214 pd yScaling;
#X obj 50 45 r tilt;
#X obj 50 68 unpack f f;
#X obj 306 503 pack f f;
#X obj 307 534 s scaledTilt;
#X obj 227 235 / 4;
#X obj 227 258 int;
#X obj 119 244 % 4;
#X obj 118 503 t b f;
#X obj 119 280 expr $f1*2+$f2*7;
#X obj 49 591 outlet;
#N canvas 637 155 223 281 average10 0;
#N canvas 587 170 673 414 average 0;
#X obj 91 119 +;
#X obj 86 72 t f f;
#X obj 86 31 inlet;
#X obj 91 153 * 0.5;
#X text 185 76 Source: http://lists.puredata.info/ pipermail/pd-list/2001-09/003086.html
;
#X obj 91 185 outlet;
#X connect 0 0 3 0;
#X connect 1 0 0 1;
#X connect 1 1 0 0;
#X connect 2 0 1 0;
#X connect 3 0 5 0;
#X restore 51 52 pd average;
#N canvas 587 170 673 414 average 0;
#X obj 91 119 +;
#X obj 86 72 t f f;
#X obj 86 31 inlet;
#X obj 91 153 * 0.5;
#X text 185 76 Source: http://lists.puredata.info/ pipermail/pd-list/2001-09/003086.html
;
#X obj 91 185 outlet;
#X connect 0 0 3 0;
#X connect 1 0 0 1;
#X connect 1 1 0 0;
#X connect 2 0 1 0;
#X connect 3 0 5 0;
#X restore 51 90 pd average;
#N canvas 587 170 673 414 average 0;
#X obj 91 119 +;
#X obj 86 72 t f f;
#X obj 86 31 inlet;
#X obj 91 153 * 0.5;
#X text 185 76 Source: http://lists.puredata.info/ pipermail/pd-list/2001-09/003086.html
;
#X obj 91 185 outlet;
#X connect 0 0 3 0;
#X connect 1 0 0 1;
#X connect 1 1 0 0;
#X connect 2 0 1 0;
#X connect 3 0 5 0;
#X restore 51 71 pd average;
#N canvas 587 170 673 414 average 0;
#X obj 91 119 +;
#X obj 86 72 t f f;
#X obj 86 31 inlet;
#X obj 91 153 * 0.5;
#X text 185 76 Source: http://lists.puredata.info/ pipermail/pd-list/2001-09/003086.html
;
#X obj 91 185 outlet;
#X connect 0 0 3 0;
#X connect 1 0 0 1;
#X connect 1 1 0 0;
#X connect 2 0 1 0;
#X connect 3 0 5 0;
#X restore 51 109 pd average;
#N canvas 587 170 673 414 average 0;
#X obj 91 119 +;
#X obj 86 72 t f f;
#X obj 86 31 inlet;
#X obj 91 153 * 0.5;
#X text 185 76 Source: http://lists.puredata.info/ pipermail/pd-list/2001-09/003086.html
;
#X obj 91 185 outlet;
#X connect 0 0 3 0;
#X connect 1 0 0 1;
#X connect 1 1 0 0;
#X connect 2 0 1 0;
#X connect 3 0 5 0;
#X restore 51 147 pd average;
#N canvas 587 170 673 414 average 0;
#X obj 91 119 +;
#X obj 86 72 t f f;
#X obj 86 31 inlet;
#X obj 91 153 * 0.5;
#X text 185 76 Source: http://lists.puredata.info/ pipermail/pd-list/2001-09/003086.html
;
#X obj 91 185 outlet;
#X connect 0 0 3 0;
#X connect 1 0 0 1;
#X connect 1 1 0 0;
#X connect 2 0 1 0;
#X connect 3 0 5 0;
#X restore 51 128 pd average;
#N canvas 587 170 673 414 average 0;
#X obj 91 119 +;
#X obj 86 72 t f f;
#X obj 86 31 inlet;
#X obj 91 153 * 0.5;
#X text 185 76 Source: http://lists.puredata.info/ pipermail/pd-list/2001-09/003086.html
;
#X obj 91 185 outlet;
#X connect 0 0 3 0;
#X connect 1 0 0 1;
#X connect 1 1 0 0;
#X connect 2 0 1 0;
#X connect 3 0 5 0;
#X restore 51 166 pd average;
#N canvas 587 170 673 414 average 0;
#X obj 91 119 +;
#X obj 86 72 t f f;
#X obj 86 31 inlet;
#X obj 91 153 * 0.5;
#X text 185 76 Source: http://lists.puredata.info/ pipermail/pd-list/2001-09/003086.html
;
#X obj 91 185 outlet;
#X connect 0 0 3 0;
#X connect 1 0 0 1;
#X connect 1 1 0 0;
#X connect 2 0 1 0;
#X connect 3 0 5 0;
#X restore 51 204 pd average;
#N canvas 587 170 673 414 average 0;
#X obj 91 119 +;
#X obj 86 72 t f f;
#X obj 86 31 inlet;
#X obj 91 153 * 0.5;
#X text 185 76 Source: http://lists.puredata.info/ pipermail/pd-list/2001-09/003086.html
;
#X obj 91 185 outlet;
#X connect 0 0 3 0;
#X connect 1 0 0 1;
#X connect 1 1 0 0;
#X connect 2 0 1 0;
#X connect 3 0 5 0;
#X restore 51 185 pd average;
#X obj 51 33 inlet;
#X obj 51 223 outlet;
#X connect 0 0 2 0;
#X connect 1 0 3 0;
#X connect 2 0 1 0;
#X connect 3 0 5 0;
#X connect 4 0 6 0;
#X connect 5 0 4 0;
#X connect 6 0 8 0;
#X connect 7 0 10 0;
#X connect 8 0 7 0;
#X connect 9 0 0 0;
#X restore 117 117 pd average10;
#N canvas 637 155 223 281 average10 0;
#N canvas 587 170 673 414 average 0;
#X obj 91 119 +;
#X obj 86 72 t f f;
#X obj 86 31 inlet;
#X obj 91 153 * 0.5;
#X text 185 76 Source: http://lists.puredata.info/ pipermail/pd-list/2001-09/003086.html
;
#X obj 91 185 outlet;
#X connect 0 0 3 0;
#X connect 1 0 0 1;
#X connect 1 1 0 0;
#X connect 2 0 1 0;
#X connect 3 0 5 0;
#X restore 51 52 pd average;
#N canvas 587 170 673 414 average 0;
#X obj 91 119 +;
#X obj 86 72 t f f;
#X obj 86 31 inlet;
#X obj 91 153 * 0.5;
#X text 185 76 Source: http://lists.puredata.info/ pipermail/pd-list/2001-09/003086.html
;
#X obj 91 185 outlet;
#X connect 0 0 3 0;
#X connect 1 0 0 1;
#X connect 1 1 0 0;
#X connect 2 0 1 0;
#X connect 3 0 5 0;
#X restore 51 90 pd average;
#N canvas 587 170 673 414 average 0;
#X obj 91 119 +;
#X obj 86 72 t f f;
#X obj 86 31 inlet;
#X obj 91 153 * 0.5;
#X text 185 76 Source: http://lists.puredata.info/ pipermail/pd-list/2001-09/003086.html
;
#X obj 91 185 outlet;
#X connect 0 0 3 0;
#X connect 1 0 0 1;
#X connect 1 1 0 0;
#X connect 2 0 1 0;
#X connect 3 0 5 0;
#X restore 51 71 pd average;
#N canvas 587 170 673 414 average 0;
#X obj 91 119 +;
#X obj 86 72 t f f;
#X obj 86 31 inlet;
#X obj 91 153 * 0.5;
#X text 185 76 Source: http://lists.puredata.info/ pipermail/pd-list/2001-09/003086.html
;
#X obj 91 185 outlet;
#X connect 0 0 3 0;
#X connect 1 0 0 1;
#X connect 1 1 0 0;
#X connect 2 0 1 0;
#X connect 3 0 5 0;
#X restore 51 109 pd average;
#N canvas 587 170 673 414 average 0;
#X obj 91 119 +;
#X obj 86 72 t f f;
#X obj 86 31 inlet;
#X obj 91 153 * 0.5;
#X text 185 76 Source: http://lists.puredata.info/ pipermail/pd-list/2001-09/003086.html
;
#X obj 91 185 outlet;
#X connect 0 0 3 0;
#X connect 1 0 0 1;
#X connect 1 1 0 0;
#X connect 2 0 1 0;
#X connect 3 0 5 0;
#X restore 51 147 pd average;
#N canvas 587 170 673 414 average 0;
#X obj 91 119 +;
#X obj 86 72 t f f;
#X obj 86 31 inlet;
#X obj 91 153 * 0.5;
#X text 185 76 Source: http://lists.puredata.info/ pipermail/pd-list/2001-09/003086.html
;
#X obj 91 185 outlet;
#X connect 0 0 3 0;
#X connect 1 0 0 1;
#X connect 1 1 0 0;
#X connect 2 0 1 0;
#X connect 3 0 5 0;
#X restore 51 128 pd average;
#N canvas 587 170 673 414 average 0;
#X obj 91 119 +;
#X obj 86 72 t f f;
#X obj 86 31 inlet;
#X obj 91 153 * 0.5;
#X text 185 76 Source: http://lists.puredata.info/ pipermail/pd-list/2001-09/003086.html
;
#X obj 91 185 outlet;
#X connect 0 0 3 0;
#X connect 1 0 0 1;
#X connect 1 1 0 0;
#X connect 2 0 1 0;
#X connect 3 0 5 0;
#X restore 51 166 pd average;
#N canvas 587 170 673 414 average 0;
#X obj 91 119 +;
#X obj 86 72 t f f;
#X obj 86 31 inlet;
#X obj 91 153 * 0.5;
#X text 185 76 Source: http://lists.puredata.info/ pipermail/pd-list/2001-09/003086.html
;
#X obj 91 185 outlet;
#X connect 0 0 3 0;
#X connect 1 0 0 1;
#X connect 1 1 0 0;
#X connect 2 0 1 0;
#X connect 3 0 5 0;
#X restore 51 204 pd average;
#N canvas 587 170 673 414 average 0;
#X obj 91 119 +;
#X obj 86 72 t f f;
#X obj 86 31 inlet;
#X obj 91 153 * 0.5;
#X text 185 76 Source: http://lists.puredata.info/ pipermail/pd-list/2001-09/003086.html
;
#X obj 91 185 outlet;
#X connect 0 0 3 0;
#X connect 1 0 0 1;
#X connect 1 1 0 0;
#X connect 2 0 1 0;
#X connect 3 0 5 0;
#X restore 51 185 pd average;
#X obj 51 33 inlet;
#X obj 51 223 outlet;
#X connect 0 0 2 0;
#X connect 1 0 3 0;
#X connect 2 0 1 0;
#X connect 3 0 5 0;
#X connect 4 0 6 0;
#X connect 5 0 4 0;
#X connect 6 0 8 0;
#X connect 7 0 10 0;
#X connect 8 0 7 0;
#X connect 9 0 0 0;
#X restore 50 93 pd average10;
#X text 206 93 Average the data using ten samples;
#X text 240 210 Map Y-tilt to chord notes;
#X text 150 351 Map X-tilt to root chord note;
#X text 250 406 Send root chord note over the net;
#X text 370 497 GUI feedback;
#X text 48 20 Map the tilt input to note values;
#X obj 103 463 s rootChordNote;
#X obj 157 391 r instrument;
#X obj 157 414 expr !($f1);
#X obj 103 440 spigot 1;
#X obj 49 562 expr $f1+ $f2;
#X connect 0 0 4 0;
#X connect 0 0 23 0;
#X connect 0 0 24 0;
#X connect 1 0 4 1;
#X connect 1 0 6 0;
#X connect 1 0 8 0;
#X connect 2 0 3 0;
#X connect 3 0 13 0;
#X connect 3 1 12 0;
#X connect 4 0 5 0;
#X connect 6 0 7 0;
#X connect 7 0 10 1;
#X connect 8 0 10 0;
#X connect 9 0 24 0;
#X connect 9 1 24 1;
#X connect 10 0 9 0;
#X connect 12 0 1 0;
#X connect 13 0 0 0;
#X connect 21 0 22 0;
#X connect 22 0 23 1;
#X connect 23 0 20 0;
#X connect 24 0 11 0;
#X restore 35 45 pd inputMapping;
#X obj 34 189 t f f;
#X obj 115 190 r scaleMode;
#N canvas 518 548 450 300 muteTapMapping 0;
#X obj 81 48 r muteTap;
#X obj 81 73 unpack f f f;
#X obj 162 97 expr ($f1+1)%2;
#X obj 162 120 outlet;
#X connect 0 0 1 0;
#X connect 1 2 2 0;
#X connect 2 0 3 0;
#X restore 105 451 pd muteTapMapping;
#X obj 33 479 spigot 1;
#X obj 34 161 spigot 1;
#X obj 88 114 r instrument;
#X obj 88 136 expr !($f1);
#N canvas 599 168 450 300 timbreMapping 0;
#X obj 82 77 r timbre;
#X obj 82 99 unpack f f;
#X obj 82 125 expr ($f1*24)+6;
#X obj 151 178 expr ($f1*3000)+2555;
#X obj 81 146 s timbreWidth;
#X obj 150 202 s timbreCutoff;
#X text 84 40 Map X value to timbre width Map Y value to timbre cutoff
;
#X text 208 120 6 - 30;
#X text 306 178 2555 - 5555;
#X connect 0 0 1 0;
#X connect 1 0 2 0;
#X connect 1 1 3 0;
#X connect 2 0 4 0;
#X connect 3 0 5 0;
#X restore 45 69 pd timbreMapping;
#N canvas 763 240 450 300 once 0;
#X obj 35 29 inlet;
#X obj 35 84 spigot;
#X obj 74 52 !=;
#X obj 117 51 f;
#X obj 35 55 f;
#X obj 52 114 inlet bang;
#X obj 34 197 f;
#X obj 52 162 spigot;
#X obj 52 140 t b f;
#X obj 34 223 outlet;
#X connect 0 0 4 0;
#X connect 1 0 3 0;
#X connect 1 0 6 0;
#X connect 2 0 1 1;
#X connect 3 0 2 1;
#X connect 4 0 2 0;
#X connect 4 0 1 0;
#X connect 5 0 8 0;
#X connect 6 0 9 0;
#X connect 7 0 6 0;
#X connect 8 0 7 0;
#X connect 8 1 7 1;
#X restore 33 560 pd once;
#X obj 132 482 r instrument;
#X obj 132 501 expr !($f1);
#X obj 79 523 spigot 1;
#X text 176 66 Handle timbre settings;
#X text 179 43 Tilt input mapping;
#X text 186 114 Melody / drum intrument toggle;
#X text 106 437 Releasing the mute button should play the current note
;
#X text 230 495 Only play if melody instrument;
#X obj 33 589 outlet;
#X text 89 590 Outlet MIDI value;
#X text 35 7 Subpatch for mapping the melody instrument Outputs a stream
of MIDI values;
#X obj 291 254 r rootChordNote;
#X obj 291 355 s netMIDI;
#N canvas 698 210 450 300 applySettings 0;
#X obj 75 74 r octave;
#X obj 105 96 r rootNote;
#N canvas 145 224 450 300 offset 0;
#X obj 80 30 inlet;
#X obj 79 210 +;
#X obj 90 79 * 12;
#X obj 89 158 +;
#X obj 88 182 t b f;
#X obj 102 131 t b f;
#X obj 79 262 outlet;
#X obj 90 55 inlet;
#X obj 102 107 inlet;
#X text 132 27 Base value;
#X text 143 54 Octave;
#X text 151 108 Root note offset;
#X connect 0 0 1 0;
#X connect 1 0 6 0;
#X connect 2 0 3 0;
#X connect 3 0 4 0;
#X connect 4 0 1 0;
#X connect 4 1 1 1;
#X connect 5 0 3 0;
#X connect 5 1 3 1;
#X connect 7 0 2 0;
#X connect 8 0 5 0;
#X restore 45 122 pd offset;
#X obj 45 31 inlet;
#X obj 45 159 outlet;
#X connect 0 0 2 1;
#X connect 1 0 2 2;
#X connect 2 0 4 0;
#X connect 3 0 2 0;
#X restore 34 348 pd applySettings;
#N canvas 698 210 450 300 applySettings 0;
#X obj 75 74 r octave;
#X obj 105 96 r rootNote;
#N canvas 145 224 450 300 offset 0;
#X obj 80 30 inlet;
#X obj 79 210 +;
#X obj 90 79 * 12;
#X obj 89 158 +;
#X obj 88 182 t b f;
#X obj 102 131 t b f;
#X obj 79 262 outlet;
#X obj 90 55 inlet;
#X obj 102 107 inlet;
#X text 132 27 Base value;
#X text 143 54 Octave;
#X text 151 108 Root note offset;
#X connect 0 0 1 0;
#X connect 1 0 6 0;
#X connect 2 0 3 0;
#X connect 3 0 4 0;
#X connect 4 0 1 0;
#X connect 4 1 1 1;
#X connect 5 0 3 0;
#X connect 5 1 3 1;
#X connect 7 0 2 0;
#X connect 8 0 5 0;
#X restore 45 122 pd offset;
#X obj 45 31 inlet;
#X obj 45 159 outlet;
#X connect 0 0 2 1;
#X connect 1 0 2 2;
#X connect 2 0 4 0;
#X connect 3 0 2 0;
#X restore 291 331 pd applySettings;
#N canvas 366 240 450 300 scaleGate 0;
#N canvas 130 224 343 341 minorScale 0;
#X msg 65 83 0;
#X msg 84 107 2;
#X msg 123 150 5;
#X msg 143 179 7;
#X obj 65 58 select 0 1 2 3 4 5 6;
#X obj 65 34 % 7;
#X obj 59 263 outlet;
#X obj 65 9 inlet;
#X msg 104 127 3;
#X msg 162 207 8;
#X msg 181 233 11;
#X connect 0 0 6 0;
#X connect 1 0 6 0;
#X connect 2 0 6 0;
#X connect 3 0 6 0;
#X connect 4 0 0 0;
#X connect 4 1 1 0;
#X connect 4 2 8 0;
#X connect 4 3 2 0;
#X connect 4 4 3 0;
#X connect 4 5 9 0;
#X connect 4 6 10 0;
#X connect 5 0 4 0;
#X connect 7 0 5 0;
#X connect 8 0 6 0;
#X connect 9 0 6 0;
#X connect 10 0 6 0;
#X restore 88 122 pd minorScale;
#N canvas 0 50 450 300 gate 0;
#X obj 95 55 inlet;
#X obj 109 137 spigot;
#X obj 174 58 inlet;
#X obj 247 60 inlet;
#X obj 195 136 spigot;
#X obj 161 187 outlet;
#X obj 300 86 loadbang;
#X msg 297 109 0;
#X obj 133 99 expr ($f1+1)%2;
#X connect 0 0 1 0;
#X connect 1 0 5 0;
#X connect 2 0 4 0;
#X connect 3 0 4 1;
#X connect 3 0 8 0;
#X connect 4 0 5 0;
#X connect 6 0 7 0;
#X connect 7 0 8 0;
#X connect 7 0 4 1;
#X connect 8 0 1 1;
#X restore 65 165 pd gate;
#N canvas 710 249 343 341 majorScale 0;
#X msg 65 83 0;
#X msg 84 107 2;
#X msg 123 150 5;
#X msg 143 179 7;
#X msg 162 207 9;
#X msg 181 233 11;
#X msg 104 127 4;
#X obj 65 58 select 0 1 2 3 4 5 6;
#X obj 65 34 % 7;
#X obj 59 263 outlet;
#X obj 65 9 inlet;
#X connect 0 0 9 0;
#X connect 1 0 9 0;
#X connect 2 0 9 0;
#X connect 3 0 9 0;
#X connect 4 0 9 0;
#X connect 5 0 9 0;
#X connect 6 0 9 0;
#X connect 7 0 0 0;
#X connect 7 1 1 0;
#X connect 7 2 6 0;
#X connect 7 3 2 0;
#X connect 7 4 3 0;
#X connect 7 5 4 0;
#X connect 7 6 5 0;
#X connect 8 0 7 0;
#X connect 10 0 8 0;
#X restore 65 100 pd majorScale;
#X obj 65 53 inlet;
#X obj 65 197 outlet;
#X obj 111 141 inlet;
#X text 171 141 0 for major scale 1 for minor scale;
#X text 115 53 Input scale index 0-6;
#X text 123 199 Output chromatic scale index 0-11;
#X connect 0 0 1 1;
#X connect 1 0 4 0;
#X connect 2 0 1 0;
#X connect 3 0 2 0;
#X connect 3 0 0 0;
#X connect 5 0 1 2;
#X restore 291 304 pd scaleGate;
#X obj 372 280 r scaleMode;
#X obj 35 94 + 3;
#X text 69 94 Start on the fourth of the scale;
#X connect 0 0 3 0;
#X connect 1 0 28 0;
#X connect 3 0 1 0;
#X connect 3 1 1 1;
#X connect 4 0 1 0;
#X connect 5 0 32 0;
#X connect 6 0 4 0;
#X connect 6 1 0 0;
#X connect 7 0 4 1;
#X connect 8 0 17 0;
#X connect 8 0 9 1;
#X connect 9 0 14 0;
#X connect 10 0 6 0;
#X connect 11 0 12 0;
#X connect 12 0 10 1;
#X connect 14 0 23 0;
#X connect 15 0 16 0;
#X connect 16 0 17 1;
#X connect 17 0 14 1;
#X connect 26 0 30 0;
#X connect 28 0 2 0;
#X connect 28 0 9 0;
#X connect 29 0 27 0;
#X connect 30 0 29 0;
#X connect 31 0 30 1;
#X connect 32 0 10 0;
#X restore 41 256 pd melodyMapping;
#N canvas 52 163 530 335 rhythmMapping 0;
#X obj 161 60 r instrument;
#X obj 37 93 spigot 0;
#N canvas 392 173 670 606 inputMapping 0;
#X obj 164 252 outlet bang;
#X obj 69 251 outlet bang;
#X obj 74 74 r tilt;
#X obj 74 100 unpack f f;
#N canvas 103 60 793 529 threshold 0;
#X obj 56 41 inlet;
#X obj 115 40 inlet;
#X obj 64 163 >=;
#X obj 175 41 inlet;
#X obj 116 164 <=;
#N canvas 382 164 450 376 memo 0;
#X obj 72 163 spigot;
#X obj 111 92 !=;
#X obj 154 93 f;
#X obj 70 94 f;
#X obj 217 164 spigot;
#X obj 256 93 !=;
#X obj 299 94 f;
#X obj 215 95 f;
#X obj 151 214 f;
#X obj 219 199 t f f;
#X obj 218 223 spigot;
#X obj 112 136 &&;
#X obj 71 224 spigot;
#X obj 70 200 t f f;
#X obj 70 46 inlet;
#X obj 218 47 inlet;
#X obj 71 299 outlet bang;
#X connect 0 0 2 0;
#X connect 0 0 8 0;
#X connect 0 0 13 0;
#X connect 1 0 11 0;
#X connect 2 0 1 1;
#X connect 3 0 1 0;
#X connect 3 0 0 0;
#X connect 4 0 6 0;
#X connect 4 0 9 0;
#X connect 5 0 4 1;
#X connect 6 0 5 1;
#X connect 7 0 5 0;
#X connect 7 0 4 0;
#X connect 8 0 11 1;
#X connect 9 0 10 0;
#X connect 9 1 10 1;
#X connect 10 0 8 0;
#X connect 11 0 0 1;
#X connect 12 0 16 0;
#X connect 13 0 12 0;
#X connect 13 1 12 1;
#X connect 14 0 3 0;
#X connect 15 0 7 0;
#X restore 63 234 pd memo;
#N canvas 797 173 450 376 memo 0;
#X obj 72 163 spigot;
#X obj 111 92 !=;
#X obj 154 93 f;
#X obj 70 94 f;
#X obj 217 164 spigot;
#X obj 256 93 !=;
#X obj 299 94 f;
#X obj 215 95 f;
#X obj 151 214 f;
#X obj 219 199 t f f;
#X obj 218 223 spigot;
#X obj 112 136 &&;
#X obj 71 224 spigot;
#X obj 70 200 t f f;
#X obj 70 46 inlet;
#X obj 218 47 inlet;
#X obj 71 299 outlet bang;
#X connect 0 0 2 0;
#X connect 0 0 8 0;
#X connect 0 0 13 0;
#X connect 1 0 11 0;
#X connect 2 0 1 1;
#X connect 3 0 1 0;
#X connect 3 0 0 0;
#X connect 4 0 6 0;
#X connect 4 0 9 0;
#X connect 5 0 4 1;
#X connect 6 0 5 1;
#X connect 7 0 5 0;
#X connect 7 0 4 0;
#X connect 8 0 11 1;
#X connect 9 0 10 0;
#X connect 9 1 10 1;
#X connect 10 0 8 0;
#X connect 11 0 0 1;
#X connect 12 0 16 0;
#X connect 13 0 12 0;
#X connect 13 1 12 1;
#X connect 14 0 3 0;
#X connect 15 0 7 0;
#X restore 130 235 pd memo;
#X obj 171 335 outlet bang;
#X obj 69 337 outlet bang;
#X connect 0 0 2 0;
#X connect 0 0 4 0;
#X connect 1 0 2 1;
#X connect 2 0 5 0;
#X connect 2 0 6 1;
#X connect 3 0 4 1;
#X connect 4 0 5 1;
#X connect 4 0 6 0;
#X connect 5 0 8 0;
#X connect 6 0 7 0;
#X restore 70 197 pd threshold;
#X obj 224 71 loadbang;
#N canvas 103 60 793 529 threshold 0;
#X obj 56 41 inlet;
#X obj 115 40 inlet;
#X obj 64 163 >=;
#X obj 175 41 inlet;
#X obj 116 164 <=;
#N canvas 382 164 450 376 memo 0;
#X obj 72 163 spigot;
#X obj 111 92 !=;
#X obj 154 93 f;
#X obj 70 94 f;
#X obj 217 164 spigot;
#X obj 256 93 !=;
#X obj 299 94 f;
#X obj 215 95 f;
#X obj 151 214 f;
#X obj 219 199 t f f;
#X obj 218 223 spigot;
#X obj 112 136 &&;
#X obj 71 224 spigot;
#X obj 70 200 t f f;
#X obj 70 46 inlet;
#X obj 218 47 inlet;
#X obj 71 299 outlet bang;
#X connect 0 0 2 0;
#X connect 0 0 8 0;
#X connect 0 0 13 0;
#X connect 1 0 11 0;
#X connect 2 0 1 1;
#X connect 3 0 1 0;
#X connect 3 0 0 0;
#X connect 4 0 6 0;
#X connect 4 0 9 0;
#X connect 5 0 4 1;
#X connect 6 0 5 1;
#X connect 7 0 5 0;
#X connect 7 0 4 0;
#X connect 8 0 11 1;
#X connect 9 0 10 0;
#X connect 9 1 10 1;
#X connect 10 0 8 0;
#X connect 11 0 0 1;
#X connect 12 0 16 0;
#X connect 13 0 12 0;
#X connect 13 1 12 1;
#X connect 14 0 3 0;
#X connect 15 0 7 0;
#X restore 63 234 pd memo;
#N canvas 797 173 450 376 memo 0;
#X obj 72 163 spigot;
#X obj 111 92 !=;
#X obj 154 93 f;
#X obj 70 94 f;
#X obj 217 164 spigot;
#X obj 256 93 !=;
#X obj 299 94 f;
#X obj 215 95 f;
#X obj 151 214 f;
#X obj 219 199 t f f;
#X obj 218 223 spigot;
#X obj 112 136 &&;
#X obj 71 224 spigot;
#X obj 70 200 t f f;
#X obj 70 46 inlet;
#X obj 218 47 inlet;
#X obj 71 299 outlet bang;
#X connect 0 0 2 0;
#X connect 0 0 8 0;
#X connect 0 0 13 0;
#X connect 1 0 11 0;
#X connect 2 0 1 1;
#X connect 3 0 1 0;
#X connect 3 0 0 0;
#X connect 4 0 6 0;
#X connect 4 0 9 0;
#X connect 5 0 4 1;
#X connect 6 0 5 1;
#X connect 7 0 5 0;
#X connect 7 0 4 0;
#X connect 8 0 11 1;
#X connect 9 0 10 0;
#X connect 9 1 10 1;
#X connect 10 0 8 0;
#X connect 11 0 0 1;
#X connect 12 0 16 0;
#X connect 13 0 12 0;
#X connect 13 1 12 1;
#X connect 14 0 3 0;
#X connect 15 0 7 0;
#X restore 130 235 pd memo;
#X obj 171 335 outlet bang;
#X obj 69 337 outlet bang;
#X connect 0 0 2 0;
#X connect 0 0 4 0;
#X connect 1 0 2 1;
#X connect 2 0 5 0;
#X connect 2 0 6 1;
#X connect 3 0 4 1;
#X connect 4 0 5 1;
#X connect 4 0 6 0;
#X connect 5 0 8 0;
#X connect 6 0 7 0;
#X restore 268 194 pd threshold;
#X obj 360 247 outlet bang;
#X obj 262 249 outlet bang;
#X msg 114 167 0.7;
#X msg 238 157 0.7, f 4;
#X obj 198 148 * -1;
#X msg 155 167 0;
#X msg 277 159 0;
#X connect 2 0 3 0;
#X connect 3 1 11 0;
#X connect 3 1 4 0;
#X connect 4 0 1 0;
#X connect 4 1 0 0;
#X connect 5 0 9 0;
#X connect 5 0 12 0;
#X connect 5 0 10 0;
#X connect 5 0 13 0;
#X connect 6 0 8 0;
#X connect 6 1 7 0;
#X connect 9 0 4 1;
#X connect 10 0 6 1;
#X connect 11 0 6 0;
#X connect 12 0 4 2;
#X connect 13 0 6 2;
#X restore 37 41 pd inputMapping;
#X obj 108 93 spigot 0;
#N canvas 916 303 291 195 rhythmBass 0;
#X obj 67 20 inlet;
#X obj 67 117 + 36;
#X obj 67 140 outlet;
#X obj 67 51 % 12;
#N canvas 699 310 450 300 scaleGate 0;
#N canvas 130 224 343 341 minorScale 0;
#X msg 65 83 0;
#X msg 84 107 2;
#X msg 123 150 5;
#X msg 143 179 7;
#X obj 65 58 select 0 1 2 3 4 5 6;
#X obj 65 34 % 7;
#X obj 59 263 outlet;
#X obj 65 9 inlet;
#X msg 104 127 3;
#X msg 162 207 8;
#X msg 181 233 11;
#X connect 0 0 6 0;
#X connect 1 0 6 0;
#X connect 2 0 6 0;
#X connect 3 0 6 0;
#X connect 4 0 0 0;
#X connect 4 1 1 0;
#X connect 4 2 8 0;
#X connect 4 3 2 0;
#X connect 4 4 3 0;
#X connect 4 5 9 0;
#X connect 4 6 10 0;
#X connect 5 0 4 0;
#X connect 7 0 5 0;
#X connect 8 0 6 0;
#X connect 9 0 6 0;
#X connect 10 0 6 0;
#X restore 88 122 pd minorScale;
#N canvas 0 50 450 300 gate 0;
#X obj 95 55 inlet;
#X obj 109 137 spigot;
#X obj 174 58 inlet;
#X obj 247 60 inlet;
#X obj 195 136 spigot;
#X obj 161 187 outlet;
#X obj 300 86 loadbang;
#X msg 297 109 0;
#X obj 133 99 expr ($f1+1)%2;
#X connect 0 0 1 0;
#X connect 1 0 5 0;
#X connect 2 0 4 0;
#X connect 3 0 4 1;
#X connect 3 0 8 0;
#X connect 4 0 5 0;
#X connect 6 0 7 0;
#X connect 7 0 8 0;
#X connect 7 0 4 1;
#X connect 8 0 1 1;
#X restore 65 165 pd gate;
#N canvas 710 249 343 341 majorScale 0;
#X msg 65 83 0;
#X msg 84 107 2;
#X msg 123 150 5;
#X msg 143 179 7;
#X msg 162 207 9;
#X msg 181 233 11;
#X msg 104 127 4;
#X obj 65 58 select 0 1 2 3 4 5 6;
#X obj 65 34 % 7;
#X obj 59 263 outlet;
#X obj 65 9 inlet;
#X connect 0 0 9 0;
#X connect 1 0 9 0;
#X connect 2 0 9 0;
#X connect 3 0 9 0;
#X connect 4 0 9 0;
#X connect 5 0 9 0;
#X connect 6 0 9 0;
#X connect 7 0 0 0;
#X connect 7 1 1 0;
#X connect 7 2 6 0;
#X connect 7 3 2 0;
#X connect 7 4 3 0;
#X connect 7 5 4 0;
#X connect 7 6 5 0;
#X connect 8 0 7 0;
#X connect 10 0 8 0;
#X restore 65 100 pd majorScale;
#X obj 65 53 inlet;
#X obj 65 197 outlet;
#X obj 111 141 inlet;
#X text 171 141 0 for major scale 1 for minor scale;
#X text 115 53 Input scale index 0-6;
#X text 123 199 Output chromatic scale index 0-11;
#X connect 0 0 1 1;
#X connect 1 0 4 0;
#X connect 2 0 1 0;
#X connect 3 0 2 0;
#X connect 3 0 0 0;
#X connect 5 0 1 2;
#X restore 88 83 pd scaleGate;
#X obj 169 59 r scaleMode;
#X connect 0 0 3 0;
#X connect 1 0 2 0;
#X connect 3 0 4 0;
#X connect 4 0 1 0;
#X connect 5 0 4 1;
#X restore 138 223 pd rhythmBass;
#X obj 156 157 r chordRoot;
#X obj 138 180 f;
#X obj 138 133 bng 15 250 50 0 empty empty empty 17 7 0 10 -262144
-1 -1;
#X obj 138 203 spigot 0;
#X obj 191 182 r bassToggle;
#X text 35 7 Subpatch for mapping the rhythm instrument Outputs two
bangs for the drum triggers and a bass MIDI note;
#X obj 138 288 outlet;
#X obj 32 249 outlet;
#X obj 84 248 outlet;
#N canvas 518 548 450 300 muteTapMapping 0;
#X obj 81 48 r muteTap;
#X obj 81 73 unpack f f f;
#X obj 162 97 expr ($f1+1)%2;
#X obj 162 120 outlet;
#X connect 0 0 1 0;
#X connect 1 2 2 0;
#X connect 2 0 3 0;
#X restore 191 245 pd muteTapMapping;
#X obj 138 266 spigot 1;
#X connect 0 0 1 1;
#X connect 0 0 3 1;
#X connect 1 0 7 0;
#X connect 1 0 12 0;
#X connect 2 0 1 0;
#X connect 2 2 3 0;
#X connect 3 0 7 0;
#X connect 3 0 13 0;
#X connect 4 0 15 0;
#X connect 5 0 6 1;
#X connect 6 0 8 0;
#X connect 7 0 6 0;
#X connect 8 0 4 0;
#X connect 9 0 8 1;
#X connect 14 0 15 1;
#X connect 15 0 11 0;
#X restore 206 256 pd rhythmMapping;
#N canvas 29 50 667 669 drumSound 0;
#X obj 306 186 hsl 128 15 0 100 0 0 empty empty empty -2 -8 0 10 -262144
-1 -1 0 1;
#X text 298 167 bass --> snare --> hihat;
#X floatatom 258 320 5 0 0 0 - - -, f 5;
#X obj 258 378 vline~;
#X text 206 253 Decay: 100-300ms;
#X obj 397 469 lop~;
#X floatatom 551 306 5 0 0 0 - - -, f 5;
#X obj 551 265 * 100;
#X obj 244 421 noise~;
#X text 473 480 volume compensation;
#X text 534 247 filter cutoff;
#X obj 295 452 *~;
#X obj 258 294 + 300;
#X obj 551 286 + 10;
#X obj 397 494 *~;
#X obj 245 482 hip~;
#X floatatom 433 480 5 0 0 0 - - -, f 5;
#X obj 433 459 /;
#X obj 433 422 bng 15 250 50 0 empty empty empty 17 7 0 10 -262144
-1 -1;
#X obj 303 508 * 0.01;
#X obj 280 525 *~;
#X msg 258 346 1 5 0 \, 0.5 10 10 \, 0 \$1 20;
#X obj 245 462 *~;
#X msg 323 138 100;
#X msg 433 439 100;
#X obj 71 292 line~;
#X floatatom 175 288 5 0 0 0 - - -, f 5;
#X obj 258 271 * -1.5;
#X text 42 248 extra bass sound;
#X obj 175 235 loadbang;
#X obj 332 558 +~;
#X msg 243 137 40;
#X obj 194 637 outlet~;
#X obj 165 105 inlet;
#X obj 244 106 inlet;
#X obj 322 102 inlet;
#X obj 193 592 expr~ $v1*0.5 + $v2*0.5;
#X obj 71 429 *~;
#X msg 175 266 30;
#X msg 167 141 5;
#X obj 431 382 * 3;
#X obj 431 402 + 2;
#X msg 70 267 1 \, 0 300;
#N canvas 377 125 450 320 fourOvertones 0;
#X obj 173 146 osc~;
#X obj 173 126 * 2;
#X obj 230 124 * 3;
#X obj 287 125 * 4;
#X obj 230 144 osc~;
#X obj 287 146 osc~;
#X obj 115 147 osc~;
#X obj 115 54 inlet;
#X obj 116 200 outlet~;
#X obj 116 175 expr~ ($v1+$v2+$v3+$v4)/4;
#X connect 0 0 9 1;
#X connect 1 0 0 0;
#X connect 2 0 4 0;
#X connect 3 0 5 0;
#X connect 4 0 9 2;
#X connect 5 0 9 3;
#X connect 6 0 9 0;
#X connect 7 0 6 0;
#X connect 7 0 1 0;
#X connect 7 0 2 0;
#X connect 7 0 3 0;
#X connect 9 0 8 0;
#X restore 111 405 pd fourOvertones;
#X connect 0 0 7 0;
#X connect 0 0 19 0;
#X connect 0 0 27 0;
#X connect 0 0 40 0;
#X connect 2 0 21 0;
#X connect 3 0 11 1;
#X connect 3 0 22 1;
#X connect 5 0 14 0;
#X connect 7 0 13 0;
#X connect 8 0 11 0;
#X connect 8 0 22 0;
#X connect 11 0 5 0;
#X connect 12 0 2 0;
#X connect 13 0 6 0;
#X connect 13 0 15 1;
#X connect 13 0 5 1;
#X connect 14 0 30 1;
#X connect 15 0 20 0;
#X connect 16 0 14 1;
#X connect 17 0 16 0;
#X connect 18 0 24 0;
#X connect 19 0 20 1;
#X connect 20 0 30 0;
#X connect 21 0 3 0;
#X connect 22 0 15 0;
#X connect 23 0 0 0;
#X connect 24 0 17 0;
#X connect 25 0 37 0;
#X connect 26 0 43 0;
#X connect 27 0 12 0;
#X connect 29 0 38 0;
#X connect 30 0 36 1;
#X connect 31 0 0 0;
#X connect 33 0 39 0;
#X connect 34 0 31 0;
#X connect 35 0 23 0;
#X connect 36 0 32 0;
#X connect 37 0 36 0;
#X connect 38 0 26 0;
#X connect 39 0 0 0;
#X connect 39 0 42 0;
#X connect 40 0 41 0;
#X connect 41 0 17 1;
#X connect 41 0 18 0;
#X connect 42 0 25 0;
#X connect 43 0 37 1;
#X restore 206 288 pd drumSound;
#X obj 315 285 s bassNote;
#X obj 53 292 r bassNote;
#X text 167 208 GUI output subpatch;
#X text 34 9 Gesture sound mapping using MobMuPlat. A project in the
course Musical Communication and Music Technology \, DT2213 at KTH
\, Stockholm. Spring 2015 By Simon Johansson \, Isak Nilsson and Helga
Svala Sigurdardottir.;
#X connect 8 0 0 0;
#X connect 8 0 0 1;
#X connect 22 0 7 0;
#X connect 23 0 22 0;
#X connect 24 0 25 0;
#X connect 24 1 25 1;
#X connect 24 2 26 0;
#X connect 25 0 7 0;
#X connect 27 0 22 0;
