#N canvas 1120 190 658 664 10;
#X obj 31 394 mtof;
#X obj 32 508 dac~;
#N canvas 0 50 450 300 minorChord 0;
#X obj 71 94 select 0 1 2 3;
#X obj 71 30 inlet;
#X obj 72 62 % 4;
#X obj 71 222 outlet;
#X msg 71 123 0;
#X msg 118 171 7;
#X msg 142 198 10;
#X msg 94 146 3;
#X connect 0 0 4 0;
#X connect 0 1 7 0;
#X connect 0 2 5 0;
#X connect 0 3 6 0;
#X connect 1 0 2 0;
#X connect 2 0 0 0;
#X connect 4 0 3 0;
#X connect 5 0 3 0;
#X connect 6 0 3 0;
#X connect 7 0 3 0;
#X restore 518 146 pd minorChord;
#N canvas 638 159 450 300 addChordOctave 0;
#X obj 67 28 inlet;
#X obj 68 52 / 4;
#X obj 68 74 int;
#X obj 70 97 * 12;
#X obj 68 118 outlet;
#X connect 0 0 1 0;
#X connect 1 0 2 0;
#X connect 2 0 3 0;
#X connect 3 0 4 0;
#X restore 521 201 pd addChordOctave;
#N canvas 425 359 297 233 addScaleOctave 0;
#X obj 87 123 * 12;
#X obj 85 55 inlet;
#X obj 86 150 outlet;
#X obj 85 79 / 7;
#X obj 85 101 int;
#X connect 0 0 2 0;
#X connect 1 0 3 0;
#X connect 3 0 4 0;
#X connect 4 0 0 0;
#X restore 64 199 pd addScaleOctave;
#N canvas 749 247 450 300 majorChord 0;
#X obj 71 94 select 0 1 2 3;
#X obj 71 30 inlet;
#X obj 72 62 % 4;
#X obj 71 222 outlet;
#X msg 71 123 0;
#X msg 94 146 4;
#X msg 118 171 7;
#X msg 142 198 10;
#X connect 0 0 4 0;
#X connect 0 1 5 0;
#X connect 0 2 6 0;
#X connect 0 3 7 0;
#X connect 1 0 2 0;
#X connect 2 0 0 0;
#X connect 4 0 3 0;
#X connect 5 0 3 0;
#X connect 6 0 3 0;
#X connect 7 0 3 0;
#X restore 520 173 pd majorChord;
#X obj 31 253 +;
#N canvas 954 277 539 279 displayTilt 0;
#X obj 21 17 inlet;
#X obj 144 16 inlet;
#X obj 21 42 expr ($f1+1)/2;
#X obj 21 169 pack f f;
#X obj 144 41 expr ($f1+1)/2;
#X obj 21 264 send toGUI;
#X msg 21 233 list /tiltDisplay \$1 \$2;
#N canvas 0 50 450 300 speedlim 0;
#X msg 69 119 1;
#X obj 43 144 spigot 1;
#X obj 73 73 t b b;
#X msg 98 119 0;
#X obj 71 95 delay 200;
#X obj 46 29 inlet;
#X obj 45 193 outlet;
#X connect 0 0 1 1;
#X connect 1 0 2 0;
#X connect 1 0 6 0;
#X connect 2 0 4 0;
#X connect 2 1 3 0;
#X connect 3 0 1 1;
#X connect 4 0 0 0;
#X connect 5 0 1 0;
#X restore 21 201 pd speedlim;
#X obj 143 62 t b f;
#X floatatom 116 164 5 0 0 0 - - -, f 5;
#X floatatom 31 117 5 0 0 0 - - -, f 5;
#X floatatom 179 94 5 0 0 0 - - -, f 5;
#X floatatom 33 70 5 0 0 0 - - -, f 5;
#X obj 23 92 + 0.0625;
#X obj 133 124 + 0.055555;
#X connect 0 0 2 0;
#X connect 1 0 4 0;
#X connect 2 0 12 0;
#X connect 2 0 13 0;
#X connect 3 0 7 0;
#X connect 4 0 8 0;
#X connect 6 0 5 0;
#X connect 7 0 6 0;
#X connect 8 0 3 0;
#X connect 8 1 11 0;
#X connect 8 1 14 0;
#X connect 13 0 3 0;
#X connect 13 0 10 0;
#X connect 14 0 9 0;
#X connect 14 0 3 1;
#X restore 437 440 pd displayTilt;
#N canvas 40 247 579 408 displayMIDI 0;
#X obj 91 93 inlet;
#X obj 91 160 send toGUI;
#X msg 91 138 list /midiLabel0 MIDI: \$1;
#N canvas 0 50 450 300 speedlim 0;
#X msg 69 119 1;
#X obj 43 144 spigot 1;
#X obj 73 73 t b b;
#X msg 98 119 0;
#X obj 71 95 delay 200;
#X obj 46 29 inlet;
#X obj 45 193 outlet;
#X connect 0 0 1 1;
#X connect 1 0 2 0;
#X connect 1 0 6 0;
#X connect 2 0 4 0;
#X connect 2 1 3 0;
#X connect 3 0 1 1;
#X connect 4 0 0 0;
#X connect 5 0 1 0;
#X restore 91 116 pd speedlim;
#X connect 0 0 3 0;
#X connect 2 0 1 0;
#X connect 3 0 2 0;
#X restore 305 439 pd displayMIDI;
#X obj 60 369 s midiOut;
#X obj 305 415 r midiOut;
#X obj 61 278 r octave;
#X obj 91 303 r rootNote;
#N canvas 78 147 727 441 getSystemData 0;
#N canvas 0 50 450 300 speedlim 0;
#X msg 69 119 1;
#X obj 43 144 spigot 1;
#X obj 73 73 t b b;
#X msg 98 119 0;
#X obj 71 95 delay 200;
#X obj 46 29 inlet;
#X obj 45 193 outlet;
#X connect 0 0 1 1;
#X connect 1 0 2 0;
#X connect 1 0 6 0;
#X connect 2 0 4 0;
#X connect 2 1 3 0;
#X connect 3 0 1 1;
#X connect 4 0 0 0;
#X connect 5 0 1 0;
#X restore 340 265 pd speedlim;
#N canvas 0 50 450 300 speedlim 0;
#X msg 69 119 1;
#X obj 43 144 spigot 1;
#X obj 73 73 t b b;
#X msg 98 119 0;
#X obj 71 95 delay 200;
#X obj 46 29 inlet;
#X obj 45 193 outlet;
#X connect 0 0 1 1;
#X connect 1 0 2 0;
#X connect 1 0 6 0;
#X connect 2 0 4 0;
#X connect 2 1 3 0;
#X connect 3 0 1 1;
#X connect 4 0 0 0;
#X connect 5 0 1 0;
#X restore 339 242 pd speedlim;
#X obj 93 391 s toGUI;
#N canvas 0 50 450 300 speedlim 0;
#X msg 69 119 1;
#X obj 43 144 spigot 1;
#X obj 73 73 t b b;
#X msg 98 119 0;
#X obj 71 95 delay 200;
#X obj 46 29 inlet;
#X obj 45 193 outlet;
#X connect 0 0 1 1;
#X connect 1 0 2 0;
#X connect 1 0 6 0;
#X connect 2 0 4 0;
#X connect 2 1 3 0;
#X connect 3 0 1 1;
#X connect 4 0 0 0;
#X connect 5 0 1 0;
#X restore 338 217 pd speedlim;
#X msg 230 357 list /tiltLabel x: \$1 y: \$2;
#X msg 179 338 list /accelLabel x: \$1 y: \$2 z: \$3;
#X msg 123 319 list /gyroLabel roll: \$1 pitch: \$2 yaw: \$3;
#X msg 110 296 list /motionLabel roll: \$1 pitch: \$2 yaw: \$3;
#N canvas 0 50 450 300 speedlim 0;
#X msg 69 119 1;
#X obj 43 144 spigot 1;
#X obj 73 73 t b b;
#X msg 98 119 0;
#X obj 71 95 delay 200;
#X obj 46 29 inlet;
#X obj 45 193 outlet;
#X connect 0 0 1 1;
#X connect 1 0 2 0;
#X connect 1 0 6 0;
#X connect 2 0 4 0;
#X connect 2 1 3 0;
#X connect 3 0 1 1;
#X connect 4 0 0 0;
#X connect 5 0 1 0;
#X restore 337 193 pd speedlim;
#X obj 374 168 s tilt;
#X obj 367 146 s accel;
#X obj 374 124 s gyro;
#X obj 361 102 s motion;
#X obj 82 15 r fromSystem;
#X obj 82 65 route /tilts /accel /gyro /motion;
#X obj 82 40 list trim;
#X connect 0 0 4 0;
#X connect 1 0 5 0;
#X connect 3 0 6 0;
#X connect 4 0 2 0;
#X connect 5 0 2 0;
#X connect 6 0 2 0;
#X connect 7 0 2 0;
#X connect 8 0 7 0;
#X connect 13 0 15 0;
#X connect 14 0 9 0;
#X connect 14 0 0 0;
#X connect 14 1 10 0;
#X connect 14 1 1 0;
#X connect 14 2 11 0;
#X connect 14 2 3 0;
#X connect 14 3 12 0;
#X connect 14 3 8 0;
#X connect 15 0 14 0;
#X restore 30 40 pd getSystemData;
#X text 156 39 Get system data: tilt \, accel \, gyro and motion;
#X obj 438 394 unpack f f;
#N canvas 587 170 673 414 average 0;
#X obj 91 119 +;
#X obj 86 72 t f f;
#X obj 86 31 inlet;
#X obj 91 153 * 0.5;
#X text 185 76 Source: http://lists.puredata.info/ pipermail/pd-list/2001-09/003086.html
;
#X obj 91 185 outlet;
#X connect 0 0 3 0;
#X connect 1 0 0 1;
#X connect 1 1 0 0;
#X connect 2 0 1 0;
#X connect 3 0 5 0;
#X restore 519 228 pd average;
#N canvas 617 213 450 391 round 0;
#X obj 152 196 moses 0.5;
#X obj 120 43 inlet;
#X obj 120 74 t f f;
#X obj 121 253 +;
#X msg 151 225 0;
#X obj 153 164 -;
#X obj 153 107 t f f;
#X obj 180 135 int;
#X msg 193 226 1;
#X obj 121 300 outlet;
#X obj 120 164 int;
#X connect 0 0 4 0;
#X connect 0 1 8 0;
#X connect 1 0 2 0;
#X connect 2 0 10 0;
#X connect 2 1 6 0;
#X connect 3 0 9 0;
#X connect 4 0 3 1;
#X connect 5 0 0 0;
#X connect 6 0 5 0;
#X connect 6 1 7 0;
#X connect 7 0 5 1;
#X connect 8 0 3 1;
#X connect 10 0 3 0;
#X restore 520 253 pd round;
#X obj 436 338 r scaledTilt;
#N canvas 943 548 450 300 rescale 0;
#X obj 105 100 unpack f f;
#X obj 107 239 outlet;
#X obj 107 215 pack f f;
#X obj 104 70 inlet;
#X obj 105 161 expr ($f1*2)-1;
#X obj 171 186 expr ($f1*2)-1;
#X obj 105 128 / 8;
#X obj 172 123 / 9;
#X connect 0 0 6 0;
#X connect 0 1 7 0;
#X connect 2 0 1 0;
#X connect 3 0 0 0;
#X connect 4 0 2 0;
#X connect 5 0 2 1;
#X connect 6 0 4 0;
#X connect 7 0 5 0;
#X restore 436 364 pd rescale;
#X obj 64 221 t b f;
#N canvas 729 106 450 508 soundGeneration 1;
#X obj 26 52 inlet;
#X obj 37 389 outlet~;
#X obj 62 315 osc~;
#X obj 19 290 vline~;
#X obj 29 188 t b f;
#X obj 31 157 spigot;
#X obj 70 86 !=;
#X obj 113 87 f;
#X obj 29 88 f;
#X msg 19 260 1 50 \, 0.5 100 50 \, 0 300 100;
#X obj 35 348 *~;
#X obj 194 55 inlet bang;
#X connect 0 0 8 0;
#X connect 2 0 10 1;
#X connect 3 0 10 0;
#X connect 4 0 9 0;
#X connect 4 1 2 0;
#X connect 5 0 7 0;
#X connect 5 0 4 0;
#X connect 6 0 5 1;
#X connect 7 0 6 1;
#X connect 8 0 6 0;
#X connect 8 0 5 0;
#X connect 9 0 3 0;
#X connect 10 0 1 0;
#X connect 11 0 9 0;
#X restore 31 424 pd soundGeneration;
#N canvas 145 224 450 300 offset 0;
#X obj 80 30 inlet;
#X obj 79 210 +;
#X obj 90 79 * 12;
#X obj 89 158 +;
#X obj 88 182 t b f;
#X obj 102 131 t b f;
#X obj 79 262 outlet;
#X obj 90 55 inlet;
#X obj 102 107 inlet;
#X text 132 27 Base value;
#X text 143 54 Octave;
#X text 151 108 Root note offset;
#X connect 0 0 1 0;
#X connect 1 0 6 0;
#X connect 2 0 3 0;
#X connect 3 0 4 0;
#X connect 4 0 1 0;
#X connect 4 1 1 1;
#X connect 5 0 3 0;
#X connect 5 1 3 1;
#X connect 7 0 2 0;
#X connect 8 0 5 0;
#X restore 31 334 pd offset;
#N canvas 1212 488 450 300 scaleGate 0;
#N canvas 130 224 343 341 minorScale 0;
#X msg 65 83 0;
#X msg 84 107 2;
#X msg 123 150 5;
#X msg 143 179 7;
#X obj 65 58 select 0 1 2 3 4 5 6;
#X obj 65 34 % 7;
#X obj 59 263 outlet;
#X obj 65 9 inlet;
#X msg 104 127 3;
#X msg 162 207 8;
#X msg 181 233 11;
#X connect 0 0 6 0;
#X connect 1 0 6 0;
#X connect 2 0 6 0;
#X connect 3 0 6 0;
#X connect 4 0 0 0;
#X connect 4 1 1 0;
#X connect 4 2 8 0;
#X connect 4 3 2 0;
#X connect 4 4 3 0;
#X connect 4 5 9 0;
#X connect 4 6 10 0;
#X connect 5 0 4 0;
#X connect 7 0 5 0;
#X connect 8 0 6 0;
#X connect 9 0 6 0;
#X connect 10 0 6 0;
#X restore 88 122 pd minorScale;
#N canvas 0 50 450 300 gate 0;
#X obj 95 55 inlet;
#X obj 109 137 spigot;
#X obj 174 58 inlet;
#X obj 247 60 inlet;
#X obj 195 136 spigot;
#X obj 161 187 outlet;
#X obj 300 86 loadbang;
#X msg 297 109 0;
#X obj 133 99 expr ($f1+1)%2;
#X connect 0 0 1 0;
#X connect 1 0 5 0;
#X connect 2 0 4 0;
#X connect 3 0 4 1;
#X connect 3 0 8 0;
#X connect 4 0 5 0;
#X connect 6 0 7 0;
#X connect 7 0 8 0;
#X connect 7 0 4 1;
#X connect 8 0 1 1;
#X restore 65 165 pd gate;
#N canvas 1000 337 343 341 majorScale 0;
#X msg 65 83 0;
#X msg 84 107 2;
#X msg 123 150 5;
#X msg 143 179 7;
#X msg 162 207 9;
#X msg 181 233 11;
#X msg 104 127 4;
#X obj 65 58 select 0 1 2 3 4 5 6;
#X obj 65 34 % 7;
#X obj 59 263 outlet;
#X obj 65 9 inlet;
#X connect 0 0 9 0;
#X connect 1 0 9 0;
#X connect 2 0 9 0;
#X connect 3 0 9 0;
#X connect 4 0 9 0;
#X connect 5 0 9 0;
#X connect 6 0 9 0;
#X connect 7 0 0 0;
#X connect 7 1 1 0;
#X connect 7 2 6 0;
#X connect 7 3 2 0;
#X connect 7 4 3 0;
#X connect 7 5 4 0;
#X connect 7 6 5 0;
#X connect 8 0 7 0;
#X connect 10 0 8 0;
#X restore 65 100 pd majorScale;
#X obj 65 53 inlet;
#X obj 65 197 outlet;
#X obj 111 141 inlet;
#X text 171 141 0 for major scale 1 for minor scale;
#X connect 0 0 1 1;
#X connect 1 0 4 0;
#X connect 2 0 1 0;
#X connect 3 0 2 0;
#X connect 3 0 0 0;
#X connect 5 0 1 2;
#X restore 32 174 pd scaleGate;
#N canvas 684 58 450 463 inputMapping 0;
#N canvas 746 178 450 300 xScaling 0;
#X obj 49 27 inlet;
#X obj 49 93 int;
#X obj 49 115 outlet;
#X obj 49 49 expr ($f1+1)/2;
#X obj 49 71 * 8;
#X connect 0 0 3 0;
#X connect 1 0 2 0;
#X connect 3 0 4 0;
#X connect 4 0 1 0;
#X restore 49 332 pd xScaling;
#N canvas 166 208 450 300 yScaling 0;
#X obj 49 27 inlet;
#X obj 48 103 int;
#X obj 48 125 outlet;
#X obj 48 56 expr ($f1+1)/2;
#X obj 48 81 * 9;
#X connect 0 0 3 0;
#X connect 1 0 2 0;
#X connect 3 0 4 0;
#X connect 4 0 1 0;
#X restore 118 191 pd yScaling;
#X obj 50 22 r tilt;
#X obj 50 45 unpack f f;
#X obj 183 367 pack f f;
#X obj 184 398 s scaledTilt;
#X obj 227 212 / 4;
#X obj 227 235 int;
#X obj 119 221 % 4;
#X obj 49 387 expr $f1 + $f2;
#X obj 112 362 t b f;
#X obj 119 257 expr $f1*2+$f2*7;
#X obj 49 416 outlet;
#N canvas 637 155 223 281 average10 0;
#N canvas 587 170 673 414 average 0;
#X obj 91 119 +;
#X obj 86 72 t f f;
#X obj 86 31 inlet;
#X obj 91 153 * 0.5;
#X text 185 76 Source: http://lists.puredata.info/ pipermail/pd-list/2001-09/003086.html
;
#X obj 91 185 outlet;
#X connect 0 0 3 0;
#X connect 1 0 0 1;
#X connect 1 1 0 0;
#X connect 2 0 1 0;
#X connect 3 0 5 0;
#X restore 51 52 pd average;
#N canvas 587 170 673 414 average 0;
#X obj 91 119 +;
#X obj 86 72 t f f;
#X obj 86 31 inlet;
#X obj 91 153 * 0.5;
#X text 185 76 Source: http://lists.puredata.info/ pipermail/pd-list/2001-09/003086.html
;
#X obj 91 185 outlet;
#X connect 0 0 3 0;
#X connect 1 0 0 1;
#X connect 1 1 0 0;
#X connect 2 0 1 0;
#X connect 3 0 5 0;
#X restore 51 90 pd average;
#N canvas 587 170 673 414 average 0;
#X obj 91 119 +;
#X obj 86 72 t f f;
#X obj 86 31 inlet;
#X obj 91 153 * 0.5;
#X text 185 76 Source: http://lists.puredata.info/ pipermail/pd-list/2001-09/003086.html
;
#X obj 91 185 outlet;
#X connect 0 0 3 0;
#X connect 1 0 0 1;
#X connect 1 1 0 0;
#X connect 2 0 1 0;
#X connect 3 0 5 0;
#X restore 51 71 pd average;
#N canvas 587 170 673 414 average 0;
#X obj 91 119 +;
#X obj 86 72 t f f;
#X obj 86 31 inlet;
#X obj 91 153 * 0.5;
#X text 185 76 Source: http://lists.puredata.info/ pipermail/pd-list/2001-09/003086.html
;
#X obj 91 185 outlet;
#X connect 0 0 3 0;
#X connect 1 0 0 1;
#X connect 1 1 0 0;
#X connect 2 0 1 0;
#X connect 3 0 5 0;
#X restore 51 109 pd average;
#N canvas 587 170 673 414 average 0;
#X obj 91 119 +;
#X obj 86 72 t f f;
#X obj 86 31 inlet;
#X obj 91 153 * 0.5;
#X text 185 76 Source: http://lists.puredata.info/ pipermail/pd-list/2001-09/003086.html
;
#X obj 91 185 outlet;
#X connect 0 0 3 0;
#X connect 1 0 0 1;
#X connect 1 1 0 0;
#X connect 2 0 1 0;
#X connect 3 0 5 0;
#X restore 51 147 pd average;
#N canvas 587 170 673 414 average 0;
#X obj 91 119 +;
#X obj 86 72 t f f;
#X obj 86 31 inlet;
#X obj 91 153 * 0.5;
#X text 185 76 Source: http://lists.puredata.info/ pipermail/pd-list/2001-09/003086.html
;
#X obj 91 185 outlet;
#X connect 0 0 3 0;
#X connect 1 0 0 1;
#X connect 1 1 0 0;
#X connect 2 0 1 0;
#X connect 3 0 5 0;
#X restore 51 128 pd average;
#N canvas 587 170 673 414 average 0;
#X obj 91 119 +;
#X obj 86 72 t f f;
#X obj 86 31 inlet;
#X obj 91 153 * 0.5;
#X text 185 76 Source: http://lists.puredata.info/ pipermail/pd-list/2001-09/003086.html
;
#X obj 91 185 outlet;
#X connect 0 0 3 0;
#X connect 1 0 0 1;
#X connect 1 1 0 0;
#X connect 2 0 1 0;
#X connect 3 0 5 0;
#X restore 51 166 pd average;
#N canvas 587 170 673 414 average 0;
#X obj 91 119 +;
#X obj 86 72 t f f;
#X obj 86 31 inlet;
#X obj 91 153 * 0.5;
#X text 185 76 Source: http://lists.puredata.info/ pipermail/pd-list/2001-09/003086.html
;
#X obj 91 185 outlet;
#X connect 0 0 3 0;
#X connect 1 0 0 1;
#X connect 1 1 0 0;
#X connect 2 0 1 0;
#X connect 3 0 5 0;
#X restore 51 204 pd average;
#N canvas 587 170 673 414 average 0;
#X obj 91 119 +;
#X obj 86 72 t f f;
#X obj 86 31 inlet;
#X obj 91 153 * 0.5;
#X text 185 76 Source: http://lists.puredata.info/ pipermail/pd-list/2001-09/003086.html
;
#X obj 91 185 outlet;
#X connect 0 0 3 0;
#X connect 1 0 0 1;
#X connect 1 1 0 0;
#X connect 2 0 1 0;
#X connect 3 0 5 0;
#X restore 51 185 pd average;
#X obj 51 33 inlet;
#X obj 51 223 outlet;
#X connect 0 0 2 0;
#X connect 1 0 3 0;
#X connect 2 0 1 0;
#X connect 3 0 5 0;
#X connect 4 0 6 0;
#X connect 5 0 4 0;
#X connect 6 0 8 0;
#X connect 7 0 10 0;
#X connect 8 0 7 0;
#X connect 9 0 0 0;
#X restore 117 94 pd average10;
#N canvas 637 155 223 281 average10 0;
#N canvas 587 170 673 414 average 0;
#X obj 91 119 +;
#X obj 86 72 t f f;
#X obj 86 31 inlet;
#X obj 91 153 * 0.5;
#X text 185 76 Source: http://lists.puredata.info/ pipermail/pd-list/2001-09/003086.html
;
#X obj 91 185 outlet;
#X connect 0 0 3 0;
#X connect 1 0 0 1;
#X connect 1 1 0 0;
#X connect 2 0 1 0;
#X connect 3 0 5 0;
#X restore 51 52 pd average;
#N canvas 587 170 673 414 average 0;
#X obj 91 119 +;
#X obj 86 72 t f f;
#X obj 86 31 inlet;
#X obj 91 153 * 0.5;
#X text 185 76 Source: http://lists.puredata.info/ pipermail/pd-list/2001-09/003086.html
;
#X obj 91 185 outlet;
#X connect 0 0 3 0;
#X connect 1 0 0 1;
#X connect 1 1 0 0;
#X connect 2 0 1 0;
#X connect 3 0 5 0;
#X restore 51 90 pd average;
#N canvas 587 170 673 414 average 0;
#X obj 91 119 +;
#X obj 86 72 t f f;
#X obj 86 31 inlet;
#X obj 91 153 * 0.5;
#X text 185 76 Source: http://lists.puredata.info/ pipermail/pd-list/2001-09/003086.html
;
#X obj 91 185 outlet;
#X connect 0 0 3 0;
#X connect 1 0 0 1;
#X connect 1 1 0 0;
#X connect 2 0 1 0;
#X connect 3 0 5 0;
#X restore 51 71 pd average;
#N canvas 587 170 673 414 average 0;
#X obj 91 119 +;
#X obj 86 72 t f f;
#X obj 86 31 inlet;
#X obj 91 153 * 0.5;
#X text 185 76 Source: http://lists.puredata.info/ pipermail/pd-list/2001-09/003086.html
;
#X obj 91 185 outlet;
#X connect 0 0 3 0;
#X connect 1 0 0 1;
#X connect 1 1 0 0;
#X connect 2 0 1 0;
#X connect 3 0 5 0;
#X restore 51 109 pd average;
#N canvas 587 170 673 414 average 0;
#X obj 91 119 +;
#X obj 86 72 t f f;
#X obj 86 31 inlet;
#X obj 91 153 * 0.5;
#X text 185 76 Source: http://lists.puredata.info/ pipermail/pd-list/2001-09/003086.html
;
#X obj 91 185 outlet;
#X connect 0 0 3 0;
#X connect 1 0 0 1;
#X connect 1 1 0 0;
#X connect 2 0 1 0;
#X connect 3 0 5 0;
#X restore 51 147 pd average;
#N canvas 587 170 673 414 average 0;
#X obj 91 119 +;
#X obj 86 72 t f f;
#X obj 86 31 inlet;
#X obj 91 153 * 0.5;
#X text 185 76 Source: http://lists.puredata.info/ pipermail/pd-list/2001-09/003086.html
;
#X obj 91 185 outlet;
#X connect 0 0 3 0;
#X connect 1 0 0 1;
#X connect 1 1 0 0;
#X connect 2 0 1 0;
#X connect 3 0 5 0;
#X restore 51 128 pd average;
#N canvas 587 170 673 414 average 0;
#X obj 91 119 +;
#X obj 86 72 t f f;
#X obj 86 31 inlet;
#X obj 91 153 * 0.5;
#X text 185 76 Source: http://lists.puredata.info/ pipermail/pd-list/2001-09/003086.html
;
#X obj 91 185 outlet;
#X connect 0 0 3 0;
#X connect 1 0 0 1;
#X connect 1 1 0 0;
#X connect 2 0 1 0;
#X connect 3 0 5 0;
#X restore 51 166 pd average;
#N canvas 587 170 673 414 average 0;
#X obj 91 119 +;
#X obj 86 72 t f f;
#X obj 86 31 inlet;
#X obj 91 153 * 0.5;
#X text 185 76 Source: http://lists.puredata.info/ pipermail/pd-list/2001-09/003086.html
;
#X obj 91 185 outlet;
#X connect 0 0 3 0;
#X connect 1 0 0 1;
#X connect 1 1 0 0;
#X connect 2 0 1 0;
#X connect 3 0 5 0;
#X restore 51 204 pd average;
#N canvas 587 170 673 414 average 0;
#X obj 91 119 +;
#X obj 86 72 t f f;
#X obj 86 31 inlet;
#X obj 91 153 * 0.5;
#X text 185 76 Source: http://lists.puredata.info/ pipermail/pd-list/2001-09/003086.html
;
#X obj 91 185 outlet;
#X connect 0 0 3 0;
#X connect 1 0 0 1;
#X connect 1 1 0 0;
#X connect 2 0 1 0;
#X connect 3 0 5 0;
#X restore 51 185 pd average;
#X obj 51 33 inlet;
#X obj 51 223 outlet;
#X connect 0 0 2 0;
#X connect 1 0 3 0;
#X connect 2 0 1 0;
#X connect 3 0 5 0;
#X connect 4 0 6 0;
#X connect 5 0 4 0;
#X connect 6 0 8 0;
#X connect 7 0 10 0;
#X connect 8 0 7 0;
#X connect 9 0 0 0;
#X restore 50 70 pd average10;
#X connect 0 0 4 0;
#X connect 0 0 9 0;
#X connect 1 0 4 1;
#X connect 1 0 6 0;
#X connect 1 0 8 0;
#X connect 2 0 3 0;
#X connect 3 0 14 0;
#X connect 3 1 13 0;
#X connect 4 0 5 0;
#X connect 6 0 7 0;
#X connect 7 0 11 1;
#X connect 8 0 11 0;
#X connect 9 0 12 0;
#X connect 10 0 9 0;
#X connect 10 1 9 1;
#X connect 11 0 10 0;
#X connect 13 0 1 0;
#X connect 14 0 0 0;
#X restore 32 124 pd inputMapping;
#X obj 32 149 t f f;
#N canvas 468 222 450 300 getGUIData 0;
#X obj 47 190 s rootNote;
#X obj 135 190 s octave;
#X obj 227 187 s scaleMode;
#X obj 46 104 r fromGUI;
#X obj 46 126 list trim;
#X obj 46 148 route /rootNoteSlider /octaveSlider /scaleModeToggle
/muteTap;
#X obj 326 189 s muteTap;
#X connect 3 0 4 0;
#X connect 4 0 5 0;
#X connect 5 0 0 0;
#X connect 5 1 1 0;
#X connect 5 2 2 0;
#X connect 5 3 6 0;
#X restore 31 63 pd getGUIData;
#X text 158 62 Get GUI data;
#X obj 113 150 r scaleMode;
#N canvas 642 557 450 300 displayNoteName 0;
#X obj 73 39 inlet;
#X obj 72 239 send toGUI;
#N canvas 0 50 450 300 speedlim 0;
#X msg 69 119 1;
#X obj 43 144 spigot 1;
#X obj 73 73 t b b;
#X msg 98 119 0;
#X obj 71 95 delay 200;
#X obj 46 29 inlet;
#X obj 45 193 outlet;
#X connect 0 0 1 1;
#X connect 1 0 2 0;
#X connect 1 0 6 0;
#X connect 2 0 4 0;
#X connect 2 1 3 0;
#X connect 3 0 1 1;
#X connect 4 0 0 0;
#X connect 5 0 1 0;
#X restore 72 195 pd speedlim;
#X msg 72 217 list /noteNameLabel Note: \$1 \$2;
#N canvas 913 118 363 601 noteName 0;
#X obj 35 21 inlet;
#X obj 35 40 % 12;
#X text 89 22 Midi value;
#X msg 35 496 symbol C;
#X obj 35 59 select 0 1 2 3 4 5 6 7 8 9 10 11;
#X obj 35 515 s nameOut;
#X obj 53 477 s nameOut;
#X obj 71 439 s nameOut;
#X obj 90 401 s nameOut;
#X obj 108 363 s nameOut;
#X obj 127 325 s nameOut;
#X obj 145 287 s nameOut;
#X obj 163 249 s nameOut;
#X obj 182 211 s nameOut;
#X obj 200 173 s nameOut;
#X obj 219 135 s nameOut;
#X obj 237 97 s nameOut;
#X msg 53 458 symbol C#/Db;
#X msg 71 420 symbol D;
#X msg 90 382 symbol D#/Eb;
#X msg 108 344 symbol E;
#X msg 127 306 symbol F;
#X msg 145 268 symbol F#/Gb;
#X msg 163 230 symbol G;
#X msg 182 192 symbol G#/Ab;
#X msg 200 154 symbol A;
#X msg 219 116 symbol A#/Bb;
#X msg 237 78 symbol B;
#X obj 35 535 r nameOut;
#X obj 35 556 outlet;
#X connect 0 0 1 0;
#X connect 1 0 4 0;
#X connect 3 0 5 0;
#X connect 4 0 3 0;
#X connect 4 1 17 0;
#X connect 4 2 18 0;
#X connect 4 3 19 0;
#X connect 4 4 20 0;
#X connect 4 5 21 0;
#X connect 4 6 22 0;
#X connect 4 7 23 0;
#X connect 4 8 24 0;
#X connect 4 9 25 0;
#X connect 4 10 26 0;
#X connect 4 11 27 0;
#X connect 17 0 6 0;
#X connect 18 0 7 0;
#X connect 19 0 8 0;
#X connect 20 0 9 0;
#X connect 21 0 10 0;
#X connect 22 0 11 0;
#X connect 23 0 12 0;
#X connect 24 0 13 0;
#X connect 25 0 14 0;
#X connect 26 0 15 0;
#X connect 27 0 16 0;
#X connect 28 0 29 0;
#X restore 73 102 pd noteName;
#X obj 164 99 / 12;
#X obj 164 123 int;
#X obj 73 63 t f f;
#X obj 73 167 pack s f;
#X connect 0 0 7 0;
#X connect 2 0 3 0;
#X connect 3 0 1 0;
#X connect 4 0 8 0;
#X connect 5 0 6 0;
#X connect 6 0 8 1;
#X connect 7 0 4 0;
#X connect 7 1 5 0;
#X connect 8 0 2 0;
#X restore 304 493 pd displayNoteName;
#X obj 304 471 r midiOut;
#N canvas 913 118 363 601 noteName 0;
#X obj 35 21 inlet;
#X obj 35 40 % 12;
#X text 89 22 Midi value;
#X msg 35 496 symbol C;
#X obj 35 59 select 0 1 2 3 4 5 6 7 8 9 10 11;
#X obj 35 515 s nameOut;
#X obj 53 477 s nameOut;
#X obj 71 439 s nameOut;
#X obj 90 401 s nameOut;
#X obj 108 363 s nameOut;
#X obj 127 325 s nameOut;
#X obj 145 287 s nameOut;
#X obj 163 249 s nameOut;
#X obj 182 211 s nameOut;
#X obj 200 173 s nameOut;
#X obj 219 135 s nameOut;
#X obj 237 97 s nameOut;
#X msg 53 458 symbol C#/Db;
#X msg 71 420 symbol D;
#X msg 90 382 symbol D#/Eb;
#X msg 108 344 symbol E;
#X msg 127 306 symbol F;
#X msg 145 268 symbol F#/Gb;
#X msg 163 230 symbol G;
#X msg 182 192 symbol G#/Ab;
#X msg 200 154 symbol A;
#X msg 219 116 symbol A#/Bb;
#X msg 237 78 symbol B;
#X obj 35 535 r nameOut;
#X obj 35 556 outlet;
#X connect 0 0 1 0;
#X connect 1 0 4 0;
#X connect 3 0 5 0;
#X connect 4 0 3 0;
#X connect 4 1 17 0;
#X connect 4 2 18 0;
#X connect 4 3 19 0;
#X connect 4 4 20 0;
#X connect 4 5 21 0;
#X connect 4 6 22 0;
#X connect 4 7 23 0;
#X connect 4 8 24 0;
#X connect 4 9 25 0;
#X connect 4 10 26 0;
#X connect 4 11 27 0;
#X connect 17 0 6 0;
#X connect 18 0 7 0;
#X connect 19 0 8 0;
#X connect 20 0 9 0;
#X connect 21 0 10 0;
#X connect 22 0 11 0;
#X connect 23 0 12 0;
#X connect 24 0 13 0;
#X connect 25 0 14 0;
#X connect 26 0 15 0;
#X connect 27 0 16 0;
#X connect 28 0 29 0;
#X restore 514 119 pd noteName;
#N canvas 571 506 450 300 muteTapMapping 0;
#X obj 81 48 r muteTap;
#X obj 81 73 unpack f f f;
#X obj 162 94 expr ($f1+1)%2;
#X obj 162 115 s unmute;
#X connect 0 0 1 0;
#X connect 1 2 2 0;
#X connect 2 0 3 0;
#X restore 250 115 pd muteTapMapping;
#N canvas 632 374 450 300 audioGate 1;
#X obj 149 90 inlet~;
#X obj 149 149 outlet~;
#X obj 149 125 *~;
#X obj 205 89 inlet;
#X connect 0 0 2 0;
#X connect 2 0 1 0;
#X connect 3 0 2 1;
#X restore 32 475 pd audioGate;
#X obj 154 377 r unmute;
#X obj 154 400 t b;
#X obj 112 451 r unmute;
#X connect 0 0 21 0;
#X connect 4 0 20 0;
#X connect 6 0 22 0;
#X connect 10 0 8 0;
#X connect 11 0 22 1;
#X connect 12 0 22 2;
#X connect 15 0 7 0;
#X connect 15 1 7 1;
#X connect 18 0 19 0;
#X connect 19 0 15 0;
#X connect 20 0 6 0;
#X connect 20 1 6 1;
#X connect 21 0 33 0;
#X connect 22 0 9 0;
#X connect 22 0 0 0;
#X connect 23 0 6 0;
#X connect 24 0 25 0;
#X connect 25 0 23 0;
#X connect 25 1 4 0;
#X connect 28 0 23 1;
#X connect 30 0 29 0;
#X connect 33 0 1 0;
#X connect 33 0 1 1;
#X connect 34 0 35 0;
#X connect 35 0 21 1;
#X connect 36 0 33 1;
