#N canvas 103 32 764 664 10;
#X obj 38 329 dac~;
#N canvas 578 132 727 441 getSystemData 0;
#N canvas 0 50 450 300 speedlim 0;
#X msg 69 119 1;
#X obj 43 144 spigot 1;
#X obj 73 73 t b b;
#X msg 98 119 0;
#X obj 71 95 delay 200;
#X obj 46 29 inlet;
#X obj 45 193 outlet;
#X connect 0 0 1 1;
#X connect 1 0 2 0;
#X connect 1 0 6 0;
#X connect 2 0 4 0;
#X connect 2 1 3 0;
#X connect 3 0 1 1;
#X connect 4 0 0 0;
#X connect 5 0 1 0;
#X restore 340 265 pd speedlim;
#N canvas 0 50 450 300 speedlim 0;
#X msg 69 119 1;
#X obj 43 144 spigot 1;
#X obj 73 73 t b b;
#X msg 98 119 0;
#X obj 71 95 delay 200;
#X obj 46 29 inlet;
#X obj 45 193 outlet;
#X connect 0 0 1 1;
#X connect 1 0 2 0;
#X connect 1 0 6 0;
#X connect 2 0 4 0;
#X connect 2 1 3 0;
#X connect 3 0 1 1;
#X connect 4 0 0 0;
#X connect 5 0 1 0;
#X restore 339 242 pd speedlim;
#X obj 93 391 s toGUI;
#N canvas 0 50 450 300 speedlim 0;
#X msg 69 119 1;
#X obj 43 144 spigot 1;
#X obj 73 73 t b b;
#X msg 98 119 0;
#X obj 71 95 delay 200;
#X obj 46 29 inlet;
#X obj 45 193 outlet;
#X connect 0 0 1 1;
#X connect 1 0 2 0;
#X connect 1 0 6 0;
#X connect 2 0 4 0;
#X connect 2 1 3 0;
#X connect 3 0 1 1;
#X connect 4 0 0 0;
#X connect 5 0 1 0;
#X restore 338 217 pd speedlim;
#N canvas 0 50 450 300 speedlim 0;
#X msg 69 119 1;
#X obj 43 144 spigot 1;
#X obj 73 73 t b b;
#X msg 98 119 0;
#X obj 71 95 delay 200;
#X obj 46 29 inlet;
#X obj 45 193 outlet;
#X connect 0 0 1 1;
#X connect 1 0 2 0;
#X connect 1 0 6 0;
#X connect 2 0 4 0;
#X connect 2 1 3 0;
#X connect 3 0 1 1;
#X connect 4 0 0 0;
#X connect 5 0 1 0;
#X restore 337 193 pd speedlim;
#X obj 374 168 s tilt;
#X obj 367 146 s accel;
#X obj 374 124 s gyro;
#X obj 361 102 s motion;
#X obj 82 15 r fromSystem;
#X obj 82 65 route /tilts /accel /gyro /motion;
#X obj 82 40 list trim;
#X msg 110 296 list /motionLabel Motion: roll: \$1 pitch: \$2 yaw:
\$3;
#X msg 123 319 list /gyroLabel Gyro roll: \$1 pitch: \$2 yaw: \$3;
#X msg 179 338 list /accelLabel Accel: x: \$1 y: \$2 z: \$3;
#X msg 230 357 list /tiltLabel Tilt x: \$1 y: \$2;
#X connect 0 0 15 0;
#X connect 1 0 14 0;
#X connect 3 0 13 0;
#X connect 4 0 12 0;
#X connect 9 0 11 0;
#X connect 10 0 5 0;
#X connect 10 0 0 0;
#X connect 10 1 6 0;
#X connect 10 1 1 0;
#X connect 10 2 7 0;
#X connect 10 2 3 0;
#X connect 10 3 8 0;
#X connect 10 3 4 0;
#X connect 11 0 10 0;
#X connect 12 0 2 0;
#X connect 13 0 2 0;
#X connect 14 0 2 0;
#X connect 15 0 2 0;
#X restore 30 40 pd getSystemData;
#X text 156 39 Get system data: tilt \, accel \, gyro and motion;
#N canvas 468 222 600 460 getGUIData 0;
#X obj 47 191 s rootNote;
#X obj 97 216 s octave;
#X obj 145 240 s scaleMode;
#X obj 46 104 r fromGUI;
#X obj 46 126 list trim;
#X obj 199 280 s muteTap;
#X obj 250 321 s instrument;
#X obj 301 358 s timbre;
#X obj 46 148 route /rootNoteSlider /octaveSlider /scaleModeToggle
/muteTap /instrumentToggle /timbreGrid /bassToggle;
#X obj 356 390 s bassToggle;
#X connect 3 0 4 0;
#X connect 4 0 8 0;
#X connect 8 0 0 0;
#X connect 8 1 1 0;
#X connect 8 2 2 0;
#X connect 8 3 5 0;
#X connect 8 4 6 0;
#X connect 8 5 7 0;
#X connect 8 6 9 0;
#X restore 31 63 pd getGUIData;
#X text 158 62 Get GUI data;
#N canvas 716 178 450 300 setGUIdefaults 0;
#X obj 100 61 loadbang;
#X msg 100 83 list /octaveSlider 5;
#X obj 100 134 send toGUI;
#X msg 108 107 list /rootNoteSlider 0;
#X connect 0 0 1 0;
#X connect 0 0 3 0;
#X connect 1 0 2 0;
#X connect 3 0 2 0;
#X restore 30 86 pd setGUIdefaults;
#N canvas 546 143 450 300 network 0;
#X obj 89 47 r fromNetwork;
#X obj 90 245 s toNetwork;
#X obj 89 68 route list;
#X obj 89 90 route /valueToNetwork;
#X obj 90 173 r netChordRoot;
#X msg 90 197 list /valueToNetwork \$1;
#N canvas 0 50 450 300 speedlim 0;
#X msg 69 119 1;
#X obj 43 144 spigot 1;
#X obj 73 73 t b b;
#X msg 98 119 0;
#X obj 46 29 inlet;
#X obj 45 193 outlet;
#X obj 71 95 delay 100;
#X connect 0 0 1 1;
#X connect 1 0 2 0;
#X connect 1 0 5 0;
#X connect 2 0 6 0;
#X connect 2 1 3 0;
#X connect 3 0 1 1;
#X connect 4 0 1 0;
#X connect 6 0 0 0;
#X restore 90 222 pd speedlim;
#X obj 89 112 s chordRoot;
#X connect 0 0 2 0;
#X connect 2 0 3 0;
#X connect 3 0 7 0;
#X connect 4 0 5 0;
#X connect 5 0 6 0;
#X connect 6 0 1 0;
#X restore 280 164 pd network;
#N canvas 656 17 667 669 melody 0;
#N canvas 425 359 297 233 addScaleOctave 0;
#X obj 87 123 * 12;
#X obj 85 55 inlet;
#X obj 86 150 outlet;
#X obj 85 79 / 7;
#X obj 85 101 int;
#X connect 0 0 2 0;
#X connect 1 0 3 0;
#X connect 3 0 4 0;
#X connect 4 0 0 0;
#X restore 66 239 pd addScaleOctave;
#X obj 33 293 +;
#X obj 62 409 s midiOut;
#X obj 63 318 r octave;
#X obj 93 343 r rootNote;
#X obj 66 261 t b f;
#N canvas 463 309 450 508 soundGeneration 0;
#X obj 33 161 inlet;
#X obj 34 352 outlet~;
#N canvas 374 377 557 426 karpluck~ 0;
#X obj -38 11 inlet midi_note;
#X obj 44 99 inlet width;
#X obj 77 185 inlet decay;
#X obj 156 186 inlet cutoff;
#X obj -37 295 outlet~;
#N canvas 353 578 194 221 excitation~ 0;
#X obj 31 18 inlet midi_note;
#X obj 101 39 inlet width;
#X obj 30 120 vline~;
#X obj 100 123 noise~;
#X obj 30 154 *~;
#X obj 30 181 outlet~;
#X obj 30 44 bang;
#X obj 74 69 del 5;
#X msg 30 87 1 1;
#X msg 74 90 0 1;
#X connect 0 0 6 0;
#X connect 1 0 7 1;
#X connect 2 0 4 0;
#X connect 3 0 4 1;
#X connect 4 0 5 0;
#X connect 6 0 8 0;
#X connect 6 0 7 0;
#X connect 7 0 9 0;
#X connect 8 0 2 0;
#X connect 9 0 2 0;
#X restore -37 123 pd excitation~;
#N canvas 99 140 669 524 body~ 0;
#X obj 75 232 inlet~;
#X obj 221 274 outlet~;
#X obj 376 -12 block~ 1;
#X obj 75 270 delwrite~ \$0-dl 1000;
#X obj 99 131 delread~ \$0-dl 12;
#X obj 221 179 lop~ 4000;
#X obj 221 226 *~ 0.99;
#X obj 99 -22 mtof;
#X obj 99 8 t b f;
#X obj 99 69 /;
#X msg 92 43 1;
#X obj 99 99 * 1000;
#X obj 99 -55 inlet midi_note;
#X obj 260 202 inlet decay;
#X obj 272 154 inlet cutoff;
#X text 375 -55 Block size needs to be 1 sample for this subpatch to
ensure correct tuning and operation for delay line feedback;
#X text 151 70 Convert a midi note into the required delay line length
(in ms) to generate said pitch.;
#X connect 0 0 3 0;
#X connect 4 0 5 0;
#X connect 5 0 6 0;
#X connect 6 0 1 0;
#X connect 6 0 3 0;
#X connect 7 0 8 0;
#X connect 8 0 10 0;
#X connect 8 1 9 1;
#X connect 9 0 11 0;
#X connect 10 0 9 0;
#X connect 11 0 4 0;
#X connect 12 0 7 0;
#X connect 13 0 6 1;
#X connect 14 0 5 1;
#X restore -37 245 pd body~;
#X obj -38 35 s \$0-midi_note;
#X obj -37 80 r \$0-midi_note;
#X obj -22 171 r \$0-midi_note;
#X text 55 121 excitation generates a short noise burst the specied
width;
#X text 22 245 body filters the excitation noise in a pitch specific
delay line;
#X connect 0 0 7 0;
#X connect 1 0 5 1;
#X connect 2 0 6 2;
#X connect 3 0 6 3;
#X connect 5 0 6 0;
#X connect 6 0 4 0;
#X connect 8 0 5 0;
#X connect 9 0 6 1;
#X restore 33 293 pd karpluck~;
#X obj 34 323 *~ 0.25;
#X obj 186 199 loadbang;
#X msg 175 273 4000;
#X msg 78 217 20;
#X obj 93 244 0.999;
#X obj 75 192 r timbreWidth;
#X obj 170 247 r timbreCutoff;
#X connect 0 0 2 0;
#X connect 2 0 3 0;
#X connect 3 0 1 0;
#X connect 4 0 6 0;
#X connect 4 0 5 0;
#X connect 4 0 7 0;
#X connect 5 0 2 3;
#X connect 6 0 2 1;
#X connect 7 0 2 2;
#X connect 8 0 2 1;
#X connect 9 0 2 3;
#X restore 31 650 pd soundGeneration;
#N canvas 145 224 450 300 offset 0;
#X obj 80 30 inlet;
#X obj 79 210 +;
#X obj 90 79 * 12;
#X obj 89 158 +;
#X obj 88 182 t b f;
#X obj 102 131 t b f;
#X obj 79 262 outlet;
#X obj 90 55 inlet;
#X obj 102 107 inlet;
#X text 132 27 Base value;
#X text 143 54 Octave;
#X text 151 108 Root note offset;
#X connect 0 0 1 0;
#X connect 1 0 6 0;
#X connect 2 0 3 0;
#X connect 3 0 4 0;
#X connect 4 0 1 0;
#X connect 4 1 1 1;
#X connect 5 0 3 0;
#X connect 5 1 3 1;
#X connect 7 0 2 0;
#X connect 8 0 5 0;
#X restore 33 374 pd offset;
#N canvas 1212 488 450 300 scaleGate 0;
#N canvas 130 224 343 341 minorScale 0;
#X msg 65 83 0;
#X msg 84 107 2;
#X msg 123 150 5;
#X msg 143 179 7;
#X obj 65 58 select 0 1 2 3 4 5 6;
#X obj 65 34 % 7;
#X obj 59 263 outlet;
#X obj 65 9 inlet;
#X msg 104 127 3;
#X msg 162 207 8;
#X msg 181 233 11;
#X connect 0 0 6 0;
#X connect 1 0 6 0;
#X connect 2 0 6 0;
#X connect 3 0 6 0;
#X connect 4 0 0 0;
#X connect 4 1 1 0;
#X connect 4 2 8 0;
#X connect 4 3 2 0;
#X connect 4 4 3 0;
#X connect 4 5 9 0;
#X connect 4 6 10 0;
#X connect 5 0 4 0;
#X connect 7 0 5 0;
#X connect 8 0 6 0;
#X connect 9 0 6 0;
#X connect 10 0 6 0;
#X restore 88 122 pd minorScale;
#N canvas 0 50 450 300 gate 0;
#X obj 95 55 inlet;
#X obj 109 137 spigot;
#X obj 174 58 inlet;
#X obj 247 60 inlet;
#X obj 195 136 spigot;
#X obj 161 187 outlet;
#X obj 300 86 loadbang;
#X msg 297 109 0;
#X obj 133 99 expr ($f1+1)%2;
#X connect 0 0 1 0;
#X connect 1 0 5 0;
#X connect 2 0 4 0;
#X connect 3 0 4 1;
#X connect 3 0 8 0;
#X connect 4 0 5 0;
#X connect 6 0 7 0;
#X connect 7 0 8 0;
#X connect 7 0 4 1;
#X connect 8 0 1 1;
#X restore 65 165 pd gate;
#N canvas 1000 337 343 341 majorScale 0;
#X msg 65 83 0;
#X msg 84 107 2;
#X msg 123 150 5;
#X msg 143 179 7;
#X msg 162 207 9;
#X msg 181 233 11;
#X msg 104 127 4;
#X obj 65 58 select 0 1 2 3 4 5 6;
#X obj 65 34 % 7;
#X obj 59 263 outlet;
#X obj 65 9 inlet;
#X connect 0 0 9 0;
#X connect 1 0 9 0;
#X connect 2 0 9 0;
#X connect 3 0 9 0;
#X connect 4 0 9 0;
#X connect 5 0 9 0;
#X connect 6 0 9 0;
#X connect 7 0 0 0;
#X connect 7 1 1 0;
#X connect 7 2 6 0;
#X connect 7 3 2 0;
#X connect 7 4 3 0;
#X connect 7 5 4 0;
#X connect 7 6 5 0;
#X connect 8 0 7 0;
#X connect 10 0 8 0;
#X restore 65 100 pd majorScale;
#X obj 65 53 inlet;
#X obj 65 197 outlet;
#X obj 111 141 inlet;
#X text 171 141 0 for major scale 1 for minor scale;
#X connect 0 0 1 1;
#X connect 1 0 4 0;
#X connect 2 0 1 0;
#X connect 3 0 2 0;
#X connect 3 0 0 0;
#X connect 5 0 1 2;
#X restore 34 214 pd scaleGate;
#N canvas 684 58 450 621 inputMapping 0;
#N canvas 746 178 450 300 xScaling 0;
#X obj 49 27 inlet;
#X obj 49 93 int;
#X obj 49 115 outlet;
#X obj 49 49 expr ($f1+1)/2;
#X obj 49 71 * 8;
#X connect 0 0 3 0;
#X connect 1 0 2 0;
#X connect 3 0 4 0;
#X connect 4 0 1 0;
#X restore 49 332 pd xScaling;
#N canvas 166 208 450 300 yScaling 0;
#X obj 49 27 inlet;
#X obj 48 103 int;
#X obj 48 125 outlet;
#X obj 48 56 expr ($f1+1)/2;
#X obj 48 81 * 9;
#X connect 0 0 3 0;
#X connect 1 0 2 0;
#X connect 3 0 4 0;
#X connect 4 0 1 0;
#X restore 118 191 pd yScaling;
#X obj 50 22 r tilt;
#X obj 50 45 unpack f f;
#X obj 185 408 pack f f;
#X obj 186 439 s scaledTilt;
#X obj 227 212 / 4;
#X obj 227 235 int;
#X obj 119 221 % 4;
#X obj 51 428 expr $f1 + $f2;
#X obj 114 403 t b f;
#X obj 119 257 expr $f1*2+$f2*7;
#X obj 51 457 outlet;
#N canvas 637 155 223 281 average10 0;
#N canvas 587 170 673 414 average 0;
#X obj 91 119 +;
#X obj 86 72 t f f;
#X obj 86 31 inlet;
#X obj 91 153 * 0.5;
#X text 185 76 Source: http://lists.puredata.info/ pipermail/pd-list/2001-09/003086.html
;
#X obj 91 185 outlet;
#X connect 0 0 3 0;
#X connect 1 0 0 1;
#X connect 1 1 0 0;
#X connect 2 0 1 0;
#X connect 3 0 5 0;
#X restore 51 52 pd average;
#N canvas 587 170 673 414 average 0;
#X obj 91 119 +;
#X obj 86 72 t f f;
#X obj 86 31 inlet;
#X obj 91 153 * 0.5;
#X text 185 76 Source: http://lists.puredata.info/ pipermail/pd-list/2001-09/003086.html
;
#X obj 91 185 outlet;
#X connect 0 0 3 0;
#X connect 1 0 0 1;
#X connect 1 1 0 0;
#X connect 2 0 1 0;
#X connect 3 0 5 0;
#X restore 51 90 pd average;
#N canvas 587 170 673 414 average 0;
#X obj 91 119 +;
#X obj 86 72 t f f;
#X obj 86 31 inlet;
#X obj 91 153 * 0.5;
#X text 185 76 Source: http://lists.puredata.info/ pipermail/pd-list/2001-09/003086.html
;
#X obj 91 185 outlet;
#X connect 0 0 3 0;
#X connect 1 0 0 1;
#X connect 1 1 0 0;
#X connect 2 0 1 0;
#X connect 3 0 5 0;
#X restore 51 71 pd average;
#N canvas 587 170 673 414 average 0;
#X obj 91 119 +;
#X obj 86 72 t f f;
#X obj 86 31 inlet;
#X obj 91 153 * 0.5;
#X text 185 76 Source: http://lists.puredata.info/ pipermail/pd-list/2001-09/003086.html
;
#X obj 91 185 outlet;
#X connect 0 0 3 0;
#X connect 1 0 0 1;
#X connect 1 1 0 0;
#X connect 2 0 1 0;
#X connect 3 0 5 0;
#X restore 51 109 pd average;
#N canvas 587 170 673 414 average 0;
#X obj 91 119 +;
#X obj 86 72 t f f;
#X obj 86 31 inlet;
#X obj 91 153 * 0.5;
#X text 185 76 Source: http://lists.puredata.info/ pipermail/pd-list/2001-09/003086.html
;
#X obj 91 185 outlet;
#X connect 0 0 3 0;
#X connect 1 0 0 1;
#X connect 1 1 0 0;
#X connect 2 0 1 0;
#X connect 3 0 5 0;
#X restore 51 147 pd average;
#N canvas 587 170 673 414 average 0;
#X obj 91 119 +;
#X obj 86 72 t f f;
#X obj 86 31 inlet;
#X obj 91 153 * 0.5;
#X text 185 76 Source: http://lists.puredata.info/ pipermail/pd-list/2001-09/003086.html
;
#X obj 91 185 outlet;
#X connect 0 0 3 0;
#X connect 1 0 0 1;
#X connect 1 1 0 0;
#X connect 2 0 1 0;
#X connect 3 0 5 0;
#X restore 51 128 pd average;
#N canvas 587 170 673 414 average 0;
#X obj 91 119 +;
#X obj 86 72 t f f;
#X obj 86 31 inlet;
#X obj 91 153 * 0.5;
#X text 185 76 Source: http://lists.puredata.info/ pipermail/pd-list/2001-09/003086.html
;
#X obj 91 185 outlet;
#X connect 0 0 3 0;
#X connect 1 0 0 1;
#X connect 1 1 0 0;
#X connect 2 0 1 0;
#X connect 3 0 5 0;
#X restore 51 166 pd average;
#N canvas 587 170 673 414 average 0;
#X obj 91 119 +;
#X obj 86 72 t f f;
#X obj 86 31 inlet;
#X obj 91 153 * 0.5;
#X text 185 76 Source: http://lists.puredata.info/ pipermail/pd-list/2001-09/003086.html
;
#X obj 91 185 outlet;
#X connect 0 0 3 0;
#X connect 1 0 0 1;
#X connect 1 1 0 0;
#X connect 2 0 1 0;
#X connect 3 0 5 0;
#X restore 51 204 pd average;
#N canvas 587 170 673 414 average 0;
#X obj 91 119 +;
#X obj 86 72 t f f;
#X obj 86 31 inlet;
#X obj 91 153 * 0.5;
#X text 185 76 Source: http://lists.puredata.info/ pipermail/pd-list/2001-09/003086.html
;
#X obj 91 185 outlet;
#X connect 0 0 3 0;
#X connect 1 0 0 1;
#X connect 1 1 0 0;
#X connect 2 0 1 0;
#X connect 3 0 5 0;
#X restore 51 185 pd average;
#X obj 51 33 inlet;
#X obj 51 223 outlet;
#X connect 0 0 2 0;
#X connect 1 0 3 0;
#X connect 2 0 1 0;
#X connect 3 0 5 0;
#X connect 4 0 6 0;
#X connect 5 0 4 0;
#X connect 6 0 8 0;
#X connect 7 0 10 0;
#X connect 8 0 7 0;
#X connect 9 0 0 0;
#X restore 117 94 pd average10;
#N canvas 637 155 223 281 average10 0;
#N canvas 587 170 673 414 average 0;
#X obj 91 119 +;
#X obj 86 72 t f f;
#X obj 86 31 inlet;
#X obj 91 153 * 0.5;
#X text 185 76 Source: http://lists.puredata.info/ pipermail/pd-list/2001-09/003086.html
;
#X obj 91 185 outlet;
#X connect 0 0 3 0;
#X connect 1 0 0 1;
#X connect 1 1 0 0;
#X connect 2 0 1 0;
#X connect 3 0 5 0;
#X restore 51 52 pd average;
#N canvas 587 170 673 414 average 0;
#X obj 91 119 +;
#X obj 86 72 t f f;
#X obj 86 31 inlet;
#X obj 91 153 * 0.5;
#X text 185 76 Source: http://lists.puredata.info/ pipermail/pd-list/2001-09/003086.html
;
#X obj 91 185 outlet;
#X connect 0 0 3 0;
#X connect 1 0 0 1;
#X connect 1 1 0 0;
#X connect 2 0 1 0;
#X connect 3 0 5 0;
#X restore 51 90 pd average;
#N canvas 587 170 673 414 average 0;
#X obj 91 119 +;
#X obj 86 72 t f f;
#X obj 86 31 inlet;
#X obj 91 153 * 0.5;
#X text 185 76 Source: http://lists.puredata.info/ pipermail/pd-list/2001-09/003086.html
;
#X obj 91 185 outlet;
#X connect 0 0 3 0;
#X connect 1 0 0 1;
#X connect 1 1 0 0;
#X connect 2 0 1 0;
#X connect 3 0 5 0;
#X restore 51 71 pd average;
#N canvas 587 170 673 414 average 0;
#X obj 91 119 +;
#X obj 86 72 t f f;
#X obj 86 31 inlet;
#X obj 91 153 * 0.5;
#X text 185 76 Source: http://lists.puredata.info/ pipermail/pd-list/2001-09/003086.html
;
#X obj 91 185 outlet;
#X connect 0 0 3 0;
#X connect 1 0 0 1;
#X connect 1 1 0 0;
#X connect 2 0 1 0;
#X connect 3 0 5 0;
#X restore 51 109 pd average;
#N canvas 587 170 673 414 average 0;
#X obj 91 119 +;
#X obj 86 72 t f f;
#X obj 86 31 inlet;
#X obj 91 153 * 0.5;
#X text 185 76 Source: http://lists.puredata.info/ pipermail/pd-list/2001-09/003086.html
;
#X obj 91 185 outlet;
#X connect 0 0 3 0;
#X connect 1 0 0 1;
#X connect 1 1 0 0;
#X connect 2 0 1 0;
#X connect 3 0 5 0;
#X restore 51 147 pd average;
#N canvas 587 170 673 414 average 0;
#X obj 91 119 +;
#X obj 86 72 t f f;
#X obj 86 31 inlet;
#X obj 91 153 * 0.5;
#X text 185 76 Source: http://lists.puredata.info/ pipermail/pd-list/2001-09/003086.html
;
#X obj 91 185 outlet;
#X connect 0 0 3 0;
#X connect 1 0 0 1;
#X connect 1 1 0 0;
#X connect 2 0 1 0;
#X connect 3 0 5 0;
#X restore 51 128 pd average;
#N canvas 587 170 673 414 average 0;
#X obj 91 119 +;
#X obj 86 72 t f f;
#X obj 86 31 inlet;
#X obj 91 153 * 0.5;
#X text 185 76 Source: http://lists.puredata.info/ pipermail/pd-list/2001-09/003086.html
;
#X obj 91 185 outlet;
#X connect 0 0 3 0;
#X connect 1 0 0 1;
#X connect 1 1 0 0;
#X connect 2 0 1 0;
#X connect 3 0 5 0;
#X restore 51 166 pd average;
#N canvas 587 170 673 414 average 0;
#X obj 91 119 +;
#X obj 86 72 t f f;
#X obj 86 31 inlet;
#X obj 91 153 * 0.5;
#X text 185 76 Source: http://lists.puredata.info/ pipermail/pd-list/2001-09/003086.html
;
#X obj 91 185 outlet;
#X connect 0 0 3 0;
#X connect 1 0 0 1;
#X connect 1 1 0 0;
#X connect 2 0 1 0;
#X connect 3 0 5 0;
#X restore 51 204 pd average;
#N canvas 587 170 673 414 average 0;
#X obj 91 119 +;
#X obj 86 72 t f f;
#X obj 86 31 inlet;
#X obj 91 153 * 0.5;
#X text 185 76 Source: http://lists.puredata.info/ pipermail/pd-list/2001-09/003086.html
;
#X obj 91 185 outlet;
#X connect 0 0 3 0;
#X connect 1 0 0 1;
#X connect 1 1 0 0;
#X connect 2 0 1 0;
#X connect 3 0 5 0;
#X restore 51 185 pd average;
#X obj 51 33 inlet;
#X obj 51 223 outlet;
#X connect 0 0 2 0;
#X connect 1 0 3 0;
#X connect 2 0 1 0;
#X connect 3 0 5 0;
#X connect 4 0 6 0;
#X connect 5 0 4 0;
#X connect 6 0 8 0;
#X connect 7 0 10 0;
#X connect 8 0 7 0;
#X connect 9 0 0 0;
#X restore 50 70 pd average10;
#X obj 62 376 s netChordRoot;
#X connect 0 0 4 0;
#X connect 0 0 9 0;
#X connect 0 0 15 0;
#X connect 1 0 4 1;
#X connect 1 0 6 0;
#X connect 1 0 8 0;
#X connect 2 0 3 0;
#X connect 3 0 14 0;
#X connect 3 1 13 0;
#X connect 4 0 5 0;
#X connect 6 0 7 0;
#X connect 7 0 11 1;
#X connect 8 0 11 0;
#X connect 9 0 12 0;
#X connect 10 0 9 0;
#X connect 10 1 9 1;
#X connect 11 0 10 0;
#X connect 13 0 1 0;
#X connect 14 0 0 0;
#X restore 35 45 pd inputMapping;
#X obj 34 189 t f f;
#X obj 115 190 r scaleMode;
#N canvas 518 548 450 300 muteTapMapping 0;
#X obj 81 48 r muteTap;
#X obj 81 73 unpack f f f;
#X obj 162 97 expr ($f1+1)%2;
#X obj 162 120 outlet;
#X connect 0 0 1 0;
#X connect 1 2 2 0;
#X connect 2 0 3 0;
#X restore 105 467 pd muteTapMapping;
#X obj 32 541 spigot 1;
#N canvas 954 277 539 279 displayTilt 0;
#X obj 21 17 inlet;
#X obj 144 16 inlet;
#X obj 21 42 expr ($f1+1)/2;
#X obj 21 169 pack f f;
#X obj 144 41 expr ($f1+1)/2;
#X obj 21 264 send toGUI;
#X msg 21 233 list /tiltDisplay \$1 \$2;
#N canvas 0 50 450 300 speedlim 0;
#X msg 69 119 1;
#X obj 43 144 spigot 1;
#X obj 73 73 t b b;
#X msg 98 119 0;
#X obj 71 95 delay 200;
#X obj 46 29 inlet;
#X obj 45 193 outlet;
#X connect 0 0 1 1;
#X connect 1 0 2 0;
#X connect 1 0 6 0;
#X connect 2 0 4 0;
#X connect 2 1 3 0;
#X connect 3 0 1 1;
#X connect 4 0 0 0;
#X connect 5 0 1 0;
#X restore 21 201 pd speedlim;
#X obj 143 62 t b f;
#X floatatom 116 164 5 0 0 0 - - -, f 5;
#X floatatom 31 117 5 0 0 0 - - -, f 5;
#X floatatom 179 94 5 0 0 0 - - -, f 5;
#X floatatom 33 70 5 0 0 0 - - -, f 5;
#X obj 23 92 + 0.0625;
#X obj 133 124 + 0.055555;
#X connect 0 0 2 0;
#X connect 1 0 4 0;
#X connect 2 0 12 0;
#X connect 2 0 13 0;
#X connect 3 0 7 0;
#X connect 4 0 8 0;
#X connect 6 0 5 0;
#X connect 7 0 6 0;
#X connect 8 0 3 0;
#X connect 8 1 11 0;
#X connect 8 1 14 0;
#X connect 13 0 3 0;
#X connect 13 0 10 0;
#X connect 14 0 9 0;
#X connect 14 0 3 1;
#X restore 429 326 pd displayTilt;
#N canvas 40 247 579 408 displayMIDI 0;
#X obj 91 93 inlet;
#X obj 91 160 send toGUI;
#X msg 91 138 list /midiLabel0 MIDI: \$1;
#N canvas 0 50 450 300 speedlim 0;
#X msg 69 119 1;
#X obj 43 144 spigot 1;
#X obj 73 73 t b b;
#X msg 98 119 0;
#X obj 71 95 delay 200;
#X obj 46 29 inlet;
#X obj 45 193 outlet;
#X connect 0 0 1 1;
#X connect 1 0 2 0;
#X connect 1 0 6 0;
#X connect 2 0 4 0;
#X connect 2 1 3 0;
#X connect 3 0 1 1;
#X connect 4 0 0 0;
#X connect 5 0 1 0;
#X restore 91 116 pd speedlim;
#X connect 0 0 3 0;
#X connect 2 0 1 0;
#X connect 3 0 2 0;
#X restore 281 271 pd displayMIDI;
#X obj 281 247 r midiOut;
#X obj 430 280 unpack f f;
#X obj 428 224 r scaledTilt;
#N canvas 943 548 450 300 rescale 0;
#X obj 105 100 unpack f f;
#X obj 107 239 outlet;
#X obj 107 215 pack f f;
#X obj 104 70 inlet;
#X obj 105 161 expr ($f1*2)-1;
#X obj 171 186 expr ($f1*2)-1;
#X obj 105 128 / 8;
#X obj 172 123 / 9;
#X connect 0 0 6 0;
#X connect 0 1 7 0;
#X connect 2 0 1 0;
#X connect 3 0 0 0;
#X connect 4 0 2 0;
#X connect 5 0 2 1;
#X connect 6 0 4 0;
#X connect 7 0 5 0;
#X restore 428 250 pd rescale;
#N canvas 365 206 450 300 displayNoteName 0;
#X obj 73 39 inlet;
#X obj 72 239 send toGUI;
#N canvas 0 50 450 300 speedlim 0;
#X msg 69 119 1;
#X obj 43 144 spigot 1;
#X obj 73 73 t b b;
#X msg 98 119 0;
#X obj 71 95 delay 200;
#X obj 46 29 inlet;
#X obj 45 193 outlet;
#X connect 0 0 1 1;
#X connect 1 0 2 0;
#X connect 1 0 6 0;
#X connect 2 0 4 0;
#X connect 2 1 3 0;
#X connect 3 0 1 1;
#X connect 4 0 0 0;
#X connect 5 0 1 0;
#X restore 72 195 pd speedlim;
#X msg 72 217 list /noteNameLabel Note: \$1 \$2;
#N canvas 641 50 363 601 noteName 0;
#X obj 35 21 inlet;
#X obj 35 40 % 12;
#X text 89 22 Midi value;
#X msg 35 496 symbol C;
#X obj 35 59 select 0 1 2 3 4 5 6 7 8 9 10 11;
#X obj 35 515 s nameOut;
#X obj 53 477 s nameOut;
#X obj 71 439 s nameOut;
#X obj 90 401 s nameOut;
#X obj 108 363 s nameOut;
#X obj 127 325 s nameOut;
#X obj 145 287 s nameOut;
#X obj 163 249 s nameOut;
#X obj 182 211 s nameOut;
#X obj 200 173 s nameOut;
#X obj 219 135 s nameOut;
#X obj 237 97 s nameOut;
#X msg 53 458 symbol C#/Db;
#X msg 71 420 symbol D;
#X msg 90 382 symbol D#/Eb;
#X msg 108 344 symbol E;
#X msg 127 306 symbol F;
#X msg 145 268 symbol F#/Gb;
#X msg 163 230 symbol G;
#X msg 182 192 symbol G#/Ab;
#X msg 200 154 symbol A;
#X msg 219 116 symbol A#/Bb;
#X msg 237 78 symbol B;
#X obj 35 535 r nameOut;
#X obj 35 556 outlet;
#X connect 0 0 1 0;
#X connect 1 0 4 0;
#X connect 3 0 5 0;
#X connect 4 0 3 0;
#X connect 4 1 17 0;
#X connect 4 2 18 0;
#X connect 4 3 19 0;
#X connect 4 4 20 0;
#X connect 4 5 21 0;
#X connect 4 6 22 0;
#X connect 4 7 23 0;
#X connect 4 8 24 0;
#X connect 4 9 25 0;
#X connect 4 10 26 0;
#X connect 4 11 27 0;
#X connect 17 0 6 0;
#X connect 18 0 7 0;
#X connect 19 0 8 0;
#X connect 20 0 9 0;
#X connect 21 0 10 0;
#X connect 22 0 11 0;
#X connect 23 0 12 0;
#X connect 24 0 13 0;
#X connect 25 0 14 0;
#X connect 26 0 15 0;
#X connect 27 0 16 0;
#X connect 28 0 29 0;
#X restore 73 102 pd noteName;
#X obj 164 99 / 12;
#X obj 164 123 int;
#X obj 73 63 t f f;
#X obj 73 167 pack s f;
#X connect 0 0 7 0;
#X connect 2 0 3 0;
#X connect 3 0 1 0;
#X connect 4 0 8 0;
#X connect 5 0 6 0;
#X connect 6 0 8 1;
#X connect 7 0 4 0;
#X connect 7 1 5 0;
#X connect 8 0 2 0;
#X restore 280 325 pd displayNoteName;
#X obj 280 303 r midiOut;
#X obj 34 161 spigot 1;
#X obj 87 102 r instrument;
#X obj 88 136 expr !($f1);
#X obj 32 674 outlet~;
#N canvas 814 342 450 300 timbreMapping 0;
#X obj 81 38 r timbre;
#X obj 81 73 unpack f f;
#X obj 81 99 expr ($f1*24)+6;
#X obj 150 152 expr ($f1*3000)+2555;
#X obj 80 120 s timbreWidth;
#X obj 149 176 s timbreCutoff;
#X connect 0 0 1 0;
#X connect 1 0 2 0;
#X connect 1 1 3 0;
#X connect 2 0 4 0;
#X connect 3 0 5 0;
#X restore 180 45 pd timbreMapping;
#X obj 98 621 r bass;
#N canvas 763 240 450 300 once 0;
#X obj 35 29 inlet;
#X obj 35 84 spigot;
#X obj 74 52 !=;
#X obj 117 51 f;
#X obj 35 55 f;
#X obj 52 114 inlet bang;
#X obj 34 197 f;
#X obj 52 162 spigot;
#X obj 52 140 t b f;
#X obj 34 223 outlet;
#X connect 0 0 4 0;
#X connect 1 0 3 0;
#X connect 1 0 6 0;
#X connect 2 0 1 1;
#X connect 3 0 2 1;
#X connect 4 0 2 0;
#X connect 4 0 1 0;
#X connect 5 0 8 0;
#X connect 6 0 9 0;
#X connect 7 0 6 0;
#X connect 8 0 7 0;
#X connect 8 1 7 1;
#X restore 31 622 pd once;
#X obj 131 544 r instrument;
#X obj 131 563 expr !($f1);
#X obj 79 587 spigot 1;
#X connect 0 0 5 0;
#X connect 1 0 7 0;
#X connect 3 0 7 1;
#X connect 4 0 7 2;
#X connect 5 0 1 0;
#X connect 5 1 1 1;
#X connect 6 0 25 0;
#X connect 7 0 2 0;
#X connect 7 0 13 0;
#X connect 8 0 1 0;
#X connect 9 0 22 0;
#X connect 10 0 8 0;
#X connect 10 1 0 0;
#X connect 11 0 8 1;
#X connect 12 0 31 0;
#X connect 12 0 13 1;
#X connect 13 0 28 0;
#X connect 16 0 15 0;
#X connect 17 0 14 0;
#X connect 17 1 14 1;
#X connect 18 0 19 0;
#X connect 19 0 17 0;
#X connect 21 0 20 0;
#X connect 22 0 10 0;
#X connect 23 0 24 0;
#X connect 24 0 22 1;
#X connect 27 0 6 0;
#X connect 28 0 6 0;
#X connect 29 0 30 0;
#X connect 30 0 31 1;
#X connect 31 0 28 1;
#X restore 35 158 pd melody;
#N canvas 496 73 773 619 rhythm 1;
#X obj 243 139 r instrument;
#X obj 125 170 spigot 0;
#N canvas 632 407 670 433 inputMapping 0;
#X obj 164 252 outlet bang;
#X obj 69 251 outlet bang;
#X obj 74 74 r tilt;
#X obj 74 100 unpack f f;
#N canvas 103 60 793 529 threshold 0;
#X obj 56 41 inlet;
#X obj 115 40 inlet;
#X obj 64 163 >=;
#X obj 175 41 inlet;
#X obj 116 164 <=;
#N canvas 382 164 450 376 memo 0;
#X obj 72 163 spigot;
#X obj 111 92 !=;
#X obj 154 93 f;
#X obj 70 94 f;
#X obj 217 164 spigot;
#X obj 256 93 !=;
#X obj 299 94 f;
#X obj 215 95 f;
#X obj 151 214 f;
#X obj 219 199 t f f;
#X obj 218 223 spigot;
#X obj 112 136 &&;
#X obj 71 224 spigot;
#X obj 70 200 t f f;
#X obj 70 46 inlet;
#X obj 218 47 inlet;
#X obj 71 299 outlet bang;
#X connect 0 0 2 0;
#X connect 0 0 8 0;
#X connect 0 0 13 0;
#X connect 1 0 11 0;
#X connect 2 0 1 1;
#X connect 3 0 1 0;
#X connect 3 0 0 0;
#X connect 4 0 6 0;
#X connect 4 0 9 0;
#X connect 5 0 4 1;
#X connect 6 0 5 1;
#X connect 7 0 5 0;
#X connect 7 0 4 0;
#X connect 8 0 11 1;
#X connect 9 0 10 0;
#X connect 9 1 10 1;
#X connect 10 0 8 0;
#X connect 11 0 0 1;
#X connect 12 0 16 0;
#X connect 13 0 12 0;
#X connect 13 1 12 1;
#X connect 14 0 3 0;
#X connect 15 0 7 0;
#X restore 63 234 pd memo;
#N canvas 797 173 450 376 memo 0;
#X obj 72 163 spigot;
#X obj 111 92 !=;
#X obj 154 93 f;
#X obj 70 94 f;
#X obj 217 164 spigot;
#X obj 256 93 !=;
#X obj 299 94 f;
#X obj 215 95 f;
#X obj 151 214 f;
#X obj 219 199 t f f;
#X obj 218 223 spigot;
#X obj 112 136 &&;
#X obj 71 224 spigot;
#X obj 70 200 t f f;
#X obj 70 46 inlet;
#X obj 218 47 inlet;
#X obj 71 299 outlet bang;
#X connect 0 0 2 0;
#X connect 0 0 8 0;
#X connect 0 0 13 0;
#X connect 1 0 11 0;
#X connect 2 0 1 1;
#X connect 3 0 1 0;
#X connect 3 0 0 0;
#X connect 4 0 6 0;
#X connect 4 0 9 0;
#X connect 5 0 4 1;
#X connect 6 0 5 1;
#X connect 7 0 5 0;
#X connect 7 0 4 0;
#X connect 8 0 11 1;
#X connect 9 0 10 0;
#X connect 9 1 10 1;
#X connect 10 0 8 0;
#X connect 11 0 0 1;
#X connect 12 0 16 0;
#X connect 13 0 12 0;
#X connect 13 1 12 1;
#X connect 14 0 3 0;
#X connect 15 0 7 0;
#X restore 130 235 pd memo;
#X obj 171 335 outlet bang;
#X obj 69 337 outlet bang;
#X connect 0 0 2 0;
#X connect 0 0 4 0;
#X connect 1 0 2 1;
#X connect 2 0 5 0;
#X connect 2 0 6 1;
#X connect 3 0 4 1;
#X connect 4 0 5 1;
#X connect 4 0 6 0;
#X connect 5 0 8 0;
#X connect 6 0 7 0;
#X restore 70 197 pd threshold;
#X obj 224 71 loadbang;
#N canvas 103 60 793 529 threshold 0;
#X obj 56 41 inlet;
#X obj 115 40 inlet;
#X obj 64 163 >=;
#X obj 175 41 inlet;
#X obj 116 164 <=;
#N canvas 382 164 450 376 memo 0;
#X obj 72 163 spigot;
#X obj 111 92 !=;
#X obj 154 93 f;
#X obj 70 94 f;
#X obj 217 164 spigot;
#X obj 256 93 !=;
#X obj 299 94 f;
#X obj 215 95 f;
#X obj 151 214 f;
#X obj 219 199 t f f;
#X obj 218 223 spigot;
#X obj 112 136 &&;
#X obj 71 224 spigot;
#X obj 70 200 t f f;
#X obj 70 46 inlet;
#X obj 218 47 inlet;
#X obj 71 299 outlet bang;
#X connect 0 0 2 0;
#X connect 0 0 8 0;
#X connect 0 0 13 0;
#X connect 1 0 11 0;
#X connect 2 0 1 1;
#X connect 3 0 1 0;
#X connect 3 0 0 0;
#X connect 4 0 6 0;
#X connect 4 0 9 0;
#X connect 5 0 4 1;
#X connect 6 0 5 1;
#X connect 7 0 5 0;
#X connect 7 0 4 0;
#X connect 8 0 11 1;
#X connect 9 0 10 0;
#X connect 9 1 10 1;
#X connect 10 0 8 0;
#X connect 11 0 0 1;
#X connect 12 0 16 0;
#X connect 13 0 12 0;
#X connect 13 1 12 1;
#X connect 14 0 3 0;
#X connect 15 0 7 0;
#X restore 63 234 pd memo;
#N canvas 797 173 450 376 memo 0;
#X obj 72 163 spigot;
#X obj 111 92 !=;
#X obj 154 93 f;
#X obj 70 94 f;
#X obj 217 164 spigot;
#X obj 256 93 !=;
#X obj 299 94 f;
#X obj 215 95 f;
#X obj 151 214 f;
#X obj 219 199 t f f;
#X obj 218 223 spigot;
#X obj 112 136 &&;
#X obj 71 224 spigot;
#X obj 70 200 t f f;
#X obj 70 46 inlet;
#X obj 218 47 inlet;
#X obj 71 299 outlet bang;
#X connect 0 0 2 0;
#X connect 0 0 8 0;
#X connect 0 0 13 0;
#X connect 1 0 11 0;
#X connect 2 0 1 1;
#X connect 3 0 1 0;
#X connect 3 0 0 0;
#X connect 4 0 6 0;
#X connect 4 0 9 0;
#X connect 5 0 4 1;
#X connect 6 0 5 1;
#X connect 7 0 5 0;
#X connect 7 0 4 0;
#X connect 8 0 11 1;
#X connect 9 0 10 0;
#X connect 9 1 10 1;
#X connect 10 0 8 0;
#X connect 11 0 0 1;
#X connect 12 0 16 0;
#X connect 13 0 12 0;
#X connect 13 1 12 1;
#X connect 14 0 3 0;
#X connect 15 0 7 0;
#X restore 130 235 pd memo;
#X obj 171 335 outlet bang;
#X obj 69 337 outlet bang;
#X connect 0 0 2 0;
#X connect 0 0 4 0;
#X connect 1 0 2 1;
#X connect 2 0 5 0;
#X connect 2 0 6 1;
#X connect 3 0 4 1;
#X connect 4 0 5 1;
#X connect 4 0 6 0;
#X connect 5 0 8 0;
#X connect 6 0 7 0;
#X restore 268 194 pd threshold;
#X obj 360 247 outlet bang;
#X obj 262 249 outlet bang;
#X msg 114 167 0.7;
#X msg 155 167 -0.2;
#X msg 238 157 0.7, f 4;
#X obj 198 148 * -1;
#X msg 277 159 -0.2;
#X connect 2 0 3 0;
#X connect 3 1 12 0;
#X connect 3 1 4 0;
#X connect 4 0 1 0;
#X connect 4 1 0 0;
#X connect 5 0 9 0;
#X connect 5 0 10 0;
#X connect 5 0 11 0;
#X connect 5 0 13 0;
#X connect 6 0 8 0;
#X connect 6 1 7 0;
#X connect 9 0 4 1;
#X connect 10 0 4 2;
#X connect 11 0 6 1;
#X connect 12 0 6 0;
#X connect 13 0 6 2;
#X restore 125 118 pd inputMapping;
#X obj 132 393 outlet~;
#X obj 217 224 vsl 15 128 0 1 0 0 empty empty empty 0 -9 0 10 -262144
-1 -1 0 1;
#X obj 133 361 *~ 1;
#X obj 199 168 spigot 0;
#N canvas 799 348 450 300 rhythmBass 1;
#N canvas 1212 488 450 300 scaleGate 0;
#N canvas 130 224 343 341 minorScale 0;
#X msg 65 83 0;
#X msg 84 107 2;
#X msg 123 150 5;
#X msg 143 179 7;
#X obj 65 58 select 0 1 2 3 4 5 6;
#X obj 65 34 % 7;
#X obj 59 263 outlet;
#X obj 65 9 inlet;
#X msg 104 127 3;
#X msg 162 207 8;
#X msg 181 233 11;
#X connect 0 0 6 0;
#X connect 1 0 6 0;
#X connect 2 0 6 0;
#X connect 3 0 6 0;
#X connect 4 0 0 0;
#X connect 4 1 1 0;
#X connect 4 2 8 0;
#X connect 4 3 2 0;
#X connect 4 4 3 0;
#X connect 4 5 9 0;
#X connect 4 6 10 0;
#X connect 5 0 4 0;
#X connect 7 0 5 0;
#X connect 8 0 6 0;
#X connect 9 0 6 0;
#X connect 10 0 6 0;
#X restore 88 122 pd minorScale;
#N canvas 0 50 450 300 gate 0;
#X obj 95 55 inlet;
#X obj 109 137 spigot;
#X obj 174 58 inlet;
#X obj 247 60 inlet;
#X obj 195 136 spigot;
#X obj 161 187 outlet;
#X obj 300 86 loadbang;
#X msg 297 109 0;
#X obj 133 99 expr ($f1+1)%2;
#X connect 0 0 1 0;
#X connect 1 0 5 0;
#X connect 2 0 4 0;
#X connect 3 0 4 1;
#X connect 3 0 8 0;
#X connect 4 0 5 0;
#X connect 6 0 7 0;
#X connect 7 0 8 0;
#X connect 7 0 4 1;
#X connect 8 0 1 1;
#X restore 65 165 pd gate;
#N canvas 1000 337 343 341 majorScale 0;
#X msg 65 83 0;
#X msg 84 107 2;
#X msg 123 150 5;
#X msg 143 179 7;
#X msg 162 207 9;
#X msg 181 233 11;
#X msg 104 127 4;
#X obj 65 58 select 0 1 2 3 4 5 6;
#X obj 65 34 % 7;
#X obj 59 263 outlet;
#X obj 65 9 inlet;
#X connect 0 0 9 0;
#X connect 1 0 9 0;
#X connect 2 0 9 0;
#X connect 3 0 9 0;
#X connect 4 0 9 0;
#X connect 5 0 9 0;
#X connect 6 0 9 0;
#X connect 7 0 0 0;
#X connect 7 1 1 0;
#X connect 7 2 6 0;
#X connect 7 3 2 0;
#X connect 7 4 3 0;
#X connect 7 5 4 0;
#X connect 7 6 5 0;
#X connect 8 0 7 0;
#X connect 10 0 8 0;
#X restore 65 100 pd majorScale;
#X obj 65 53 inlet;
#X obj 65 197 outlet;
#X obj 111 141 inlet;
#X text 171 141 0 for major scale 1 for minor scale;
#X connect 0 0 1 1;
#X connect 1 0 4 0;
#X connect 2 0 1 0;
#X connect 3 0 2 0;
#X connect 3 0 0 0;
#X connect 5 0 1 2;
#X restore 66 60 pd scaleGate;
#X obj 148 25 r scaleMode;
#X obj 66 22 inlet;
#X obj 65 110 s bass;
#X obj 66 85 + 36;
#X connect 0 0 4 0;
#X connect 1 0 0 1;
#X connect 2 0 0 0;
#X connect 4 0 3 0;
#X restore 276 343 pd rhythmBass;
#X obj 287 195 r chordRoot;
#X obj 276 251 f;
#X obj 251 211 bng 15 250 50 0 empty empty empty 17 7 0 10 -262144
-1 -1;
#N canvas 0 50 1366 685 drums 0;
#X obj 306 186 hsl 128 15 0 100 0 0 empty empty empty -2 -8 0 10 -262144
-1 -1 5080 1;
#X text 298 167 bass --> snare --> hihat;
#X floatatom 258 320 5 0 0 0 - - -, f 5;
#X obj 258 378 vline~;
#X text 206 253 Decay: 100-300ms;
#X obj 397 469 lop~;
#X floatatom 551 306 5 0 0 0 - - -, f 5;
#X obj 551 265 * 100;
#X obj 244 421 noise~;
#X text 473 480 volume compensation;
#X text 534 247 filter cutoff;
#X obj 295 452 *~;
#X obj 258 294 + 300;
#X obj 551 286 + 10;
#X obj 397 494 *~;
#X obj 245 482 hip~;
#X floatatom 433 480 5 0 0 0 - - -, f 5;
#X obj 433 459 /;
#X obj 433 422 bng 15 250 50 0 empty empty empty 17 7 0 10 -262144
-1 -1;
#X obj 431 402 + 1;
#X obj 303 508 * 0.01;
#X obj 280 525 *~;
#X msg 258 346 1 5 0 \, 0.5 10 10 \, 0 \$1 20;
#X obj 245 462 *~;
#X msg 323 138 100;
#X msg 433 439 100;
#X obj 431 382 * 1.5;
#X obj 71 292 line~;
#X floatatom 175 288 5 0 0 0 - - -, f 5;
#X obj 258 271 * -1.5;
#X text 42 248 extra bass sound;
#X obj 175 235 loadbang;
#X obj 332 558 +~;
#X msg 243 137 40;
#X msg 70 267 1 \, 0 500;
#X obj 194 637 outlet~;
#X obj 165 105 inlet;
#X obj 244 106 inlet;
#X obj 322 102 inlet;
#N canvas 26 144 450 300 fourOctaves 0;
#X obj 173 146 osc~;
#X obj 173 126 * 2;
#X obj 230 124 * 3;
#X obj 287 125 * 4;
#X obj 230 144 osc~;
#X obj 287 146 osc~;
#X obj 115 147 osc~;
#X obj 115 54 inlet;
#X obj 116 200 outlet~;
#X obj 116 175 expr~ ($v1+$v2+$v3+$v4)/2;
#X connect 0 0 9 1;
#X connect 1 0 0 0;
#X connect 2 0 4 0;
#X connect 3 0 5 0;
#X connect 4 0 9 2;
#X connect 5 0 9 3;
#X connect 6 0 9 0;
#X connect 7 0 6 0;
#X connect 7 0 1 0;
#X connect 7 0 2 0;
#X connect 7 0 3 0;
#X connect 9 0 8 0;
#X restore 111 405 pd fourOctaves;
#X obj 193 592 expr~ $v1*0.5 + $v2*0.5;
#X obj 71 429 *~;
#X msg 175 266 30;
#X msg 167 141 5;
#X connect 0 0 7 0;
#X connect 0 0 20 0;
#X connect 0 0 26 0;
#X connect 0 0 29 0;
#X connect 2 0 22 0;
#X connect 3 0 11 1;
#X connect 3 0 23 1;
#X connect 5 0 14 0;
#X connect 7 0 13 0;
#X connect 8 0 11 0;
#X connect 8 0 23 0;
#X connect 11 0 5 0;
#X connect 12 0 2 0;
#X connect 13 0 6 0;
#X connect 13 0 15 1;
#X connect 13 0 5 1;
#X connect 14 0 32 1;
#X connect 15 0 21 0;
#X connect 16 0 14 1;
#X connect 17 0 16 0;
#X connect 18 0 25 0;
#X connect 19 0 17 1;
#X connect 19 0 18 0;
#X connect 20 0 21 1;
#X connect 21 0 32 0;
#X connect 22 0 3 0;
#X connect 23 0 15 0;
#X connect 24 0 0 0;
#X connect 25 0 17 0;
#X connect 26 0 19 0;
#X connect 27 0 41 0;
#X connect 28 0 39 0;
#X connect 29 0 12 0;
#X connect 31 0 42 0;
#X connect 32 0 40 1;
#X connect 33 0 0 0;
#X connect 34 0 27 0;
#X connect 36 0 43 0;
#X connect 37 0 33 0;
#X connect 38 0 24 0;
#X connect 39 0 41 1;
#X connect 40 0 35 0;
#X connect 41 0 40 0;
#X connect 42 0 28 0;
#X connect 43 0 0 0;
#X connect 43 0 34 0;
#X restore 133 318 pd drums;
#X obj 276 293 spigot 0;
#X obj 341 258 r bassToggle;
#X connect 0 0 1 1;
#X connect 0 0 6 1;
#X connect 1 0 10 0;
#X connect 1 0 11 0;
#X connect 2 0 1 0;
#X connect 2 2 6 0;
#X connect 4 0 5 1;
#X connect 5 0 3 0;
#X connect 6 0 11 1;
#X connect 6 0 10 0;
#X connect 8 0 9 1;
#X connect 9 0 12 0;
#X connect 10 0 9 0;
#X connect 11 0 5 0;
#X connect 12 0 7 0;
#X connect 13 0 12 1;
#X restore 112 157 pd rhythm;
#X obj 37 227 s~ out;
#X obj 37 297 r~ out;
#X obj 458 80 cnv 15 200 300 empty empty empty 20 12 0 14 -262130 -66577
0;
#N canvas 0 50 450 300 minorChord 0;
#X obj 71 94 select 0 1 2 3;
#X obj 71 30 inlet;
#X obj 72 62 % 4;
#X obj 71 222 outlet;
#X msg 71 123 0;
#X msg 118 171 7;
#X msg 142 198 10;
#X msg 94 146 3;
#X connect 0 0 4 0;
#X connect 0 1 7 0;
#X connect 0 2 5 0;
#X connect 0 3 6 0;
#X connect 1 0 2 0;
#X connect 2 0 0 0;
#X connect 4 0 3 0;
#X connect 5 0 3 0;
#X connect 6 0 3 0;
#X connect 7 0 3 0;
#X restore 496 130 pd minorChord;
#N canvas 638 159 450 300 addChordOctave 0;
#X obj 67 28 inlet;
#X obj 68 52 / 4;
#X obj 68 74 int;
#X obj 70 97 * 12;
#X obj 68 118 outlet;
#X connect 0 0 1 0;
#X connect 1 0 2 0;
#X connect 2 0 3 0;
#X connect 3 0 4 0;
#X restore 497 185 pd addChordOctave;
#N canvas 749 247 450 300 majorChord 0;
#X obj 71 94 select 0 1 2 3;
#X obj 71 30 inlet;
#X obj 72 62 % 4;
#X obj 71 222 outlet;
#X msg 71 123 0;
#X msg 94 146 4;
#X msg 118 171 7;
#X msg 142 198 10;
#X connect 0 0 4 0;
#X connect 0 1 5 0;
#X connect 0 2 6 0;
#X connect 0 3 7 0;
#X connect 1 0 2 0;
#X connect 2 0 0 0;
#X connect 4 0 3 0;
#X connect 5 0 3 0;
#X connect 6 0 3 0;
#X connect 7 0 3 0;
#X restore 496 157 pd majorChord;
#N canvas 587 170 673 414 average 0;
#X obj 91 119 +;
#X obj 86 72 t f f;
#X obj 86 31 inlet;
#X obj 91 153 * 0.5;
#X text 185 76 Source: http://lists.puredata.info/ pipermail/pd-list/2001-09/003086.html
;
#X obj 91 185 outlet;
#X connect 0 0 3 0;
#X connect 1 0 0 1;
#X connect 1 1 0 0;
#X connect 2 0 1 0;
#X connect 3 0 5 0;
#X restore 495 212 pd average;
#N canvas 617 213 450 391 round 0;
#X obj 152 196 moses 0.5;
#X obj 120 43 inlet;
#X obj 120 74 t f f;
#X obj 121 253 +;
#X msg 151 225 0;
#X obj 153 164 -;
#X obj 153 107 t f f;
#X obj 180 135 int;
#X msg 193 226 1;
#X obj 121 300 outlet;
#X obj 120 164 int;
#X connect 0 0 4 0;
#X connect 0 1 8 0;
#X connect 1 0 2 0;
#X connect 2 0 10 0;
#X connect 2 1 6 0;
#X connect 3 0 9 0;
#X connect 4 0 3 1;
#X connect 5 0 0 0;
#X connect 6 0 5 0;
#X connect 6 1 7 0;
#X connect 7 0 5 1;
#X connect 8 0 3 1;
#X connect 10 0 3 0;
#X restore 496 237 pd round;
#N canvas 913 118 363 601 noteName 0;
#X obj 35 21 inlet;
#X obj 35 40 % 12;
#X text 89 22 Midi value;
#X msg 35 496 symbol C;
#X obj 35 59 select 0 1 2 3 4 5 6 7 8 9 10 11;
#X obj 35 515 s nameOut;
#X obj 53 477 s nameOut;
#X obj 71 439 s nameOut;
#X obj 90 401 s nameOut;
#X obj 108 363 s nameOut;
#X obj 127 325 s nameOut;
#X obj 145 287 s nameOut;
#X obj 163 249 s nameOut;
#X obj 182 211 s nameOut;
#X obj 200 173 s nameOut;
#X obj 219 135 s nameOut;
#X obj 237 97 s nameOut;
#X msg 53 458 symbol C#/Db;
#X msg 71 420 symbol D;
#X msg 90 382 symbol D#/Eb;
#X msg 108 344 symbol E;
#X msg 127 306 symbol F;
#X msg 145 268 symbol F#/Gb;
#X msg 163 230 symbol G;
#X msg 182 192 symbol G#/Ab;
#X msg 200 154 symbol A;
#X msg 219 116 symbol A#/Bb;
#X msg 237 78 symbol B;
#X obj 35 535 r nameOut;
#X obj 35 556 outlet;
#X connect 0 0 1 0;
#X connect 1 0 4 0;
#X connect 3 0 5 0;
#X connect 4 0 3 0;
#X connect 4 1 17 0;
#X connect 4 2 18 0;
#X connect 4 3 19 0;
#X connect 4 4 20 0;
#X connect 4 5 21 0;
#X connect 4 6 22 0;
#X connect 4 7 23 0;
#X connect 4 8 24 0;
#X connect 4 9 25 0;
#X connect 4 10 26 0;
#X connect 4 11 27 0;
#X connect 17 0 6 0;
#X connect 18 0 7 0;
#X connect 19 0 8 0;
#X connect 20 0 9 0;
#X connect 21 0 10 0;
#X connect 22 0 11 0;
#X connect 23 0 12 0;
#X connect 24 0 13 0;
#X connect 25 0 14 0;
#X connect 26 0 15 0;
#X connect 27 0 16 0;
#X connect 28 0 29 0;
#X restore 494 103 pd noteName;
#N canvas 103 60 793 529 threshold 0;
#X obj 56 41 inlet;
#X obj 115 40 inlet;
#X obj 64 163 >=;
#X obj 175 41 inlet;
#X obj 116 164 <=;
#N canvas 382 164 450 376 memo 0;
#X obj 72 163 spigot;
#X obj 111 92 !=;
#X obj 154 93 f;
#X obj 70 94 f;
#X obj 217 164 spigot;
#X obj 256 93 !=;
#X obj 299 94 f;
#X obj 215 95 f;
#X obj 151 214 f;
#X obj 219 199 t f f;
#X obj 218 223 spigot;
#X obj 112 136 &&;
#X obj 71 224 spigot;
#X obj 70 200 t f f;
#X obj 70 46 inlet;
#X obj 218 47 inlet;
#X obj 71 299 outlet bang;
#X connect 0 0 2 0;
#X connect 0 0 8 0;
#X connect 0 0 13 0;
#X connect 1 0 11 0;
#X connect 2 0 1 1;
#X connect 3 0 1 0;
#X connect 3 0 0 0;
#X connect 4 0 6 0;
#X connect 4 0 9 0;
#X connect 5 0 4 1;
#X connect 6 0 5 1;
#X connect 7 0 5 0;
#X connect 7 0 4 0;
#X connect 8 0 11 1;
#X connect 9 0 10 0;
#X connect 9 1 10 1;
#X connect 10 0 8 0;
#X connect 11 0 0 1;
#X connect 12 0 16 0;
#X connect 13 0 12 0;
#X connect 13 1 12 1;
#X connect 14 0 3 0;
#X connect 15 0 7 0;
#X restore 63 234 pd memo;
#N canvas 797 173 450 376 memo 0;
#X obj 72 163 spigot;
#X obj 111 92 !=;
#X obj 154 93 f;
#X obj 70 94 f;
#X obj 217 164 spigot;
#X obj 256 93 !=;
#X obj 299 94 f;
#X obj 215 95 f;
#X obj 151 214 f;
#X obj 219 199 t f f;
#X obj 218 223 spigot;
#X obj 112 136 &&;
#X obj 71 224 spigot;
#X obj 70 200 t f f;
#X obj 70 46 inlet;
#X obj 218 47 inlet;
#X obj 71 299 outlet bang;
#X connect 0 0 2 0;
#X connect 0 0 8 0;
#X connect 0 0 13 0;
#X connect 1 0 11 0;
#X connect 2 0 1 1;
#X connect 3 0 1 0;
#X connect 3 0 0 0;
#X connect 4 0 6 0;
#X connect 4 0 9 0;
#X connect 5 0 4 1;
#X connect 6 0 5 1;
#X connect 7 0 5 0;
#X connect 7 0 4 0;
#X connect 8 0 11 1;
#X connect 9 0 10 0;
#X connect 9 1 10 1;
#X connect 10 0 8 0;
#X connect 11 0 0 1;
#X connect 12 0 16 0;
#X connect 13 0 12 0;
#X connect 13 1 12 1;
#X connect 14 0 3 0;
#X connect 15 0 7 0;
#X restore 130 235 pd memo;
#X obj 171 335 outlet bang;
#X obj 69 337 outlet bang;
#X connect 0 0 2 0;
#X connect 0 0 4 0;
#X connect 1 0 2 1;
#X connect 2 0 5 0;
#X connect 2 0 6 1;
#X connect 3 0 4 1;
#X connect 4 0 5 1;
#X connect 4 0 6 0;
#X connect 5 0 8 0;
#X connect 6 0 7 0;
#X restore 496 262 pd threshold;
#X text 161 85 Set default values like melody octave;
#X connect 7 0 9 0;
#X connect 8 0 9 0;
#X connect 10 0 0 0;
#X connect 10 0 0 1;
