#N canvas 690 2 658 664 10;
#X obj 40 461 osc~;
#X obj 40 434 mtof;
#X obj 39 494 dac~;
#N canvas 678 109 450 300 getTilt 0;
#X obj 46 26 receive fromSystem;
#X obj 46 58 list trim;
#X obj 45 90 route /tilts;
#X obj 46 129 unpack 0 0;
#X obj 47 185 outlet;
#X obj 115 185 outlet;
#X connect 0 0 1 0;
#X connect 1 0 2 0;
#X connect 2 0 3 0;
#X connect 3 0 4 0;
#X connect 3 1 5 0;
#X restore 280 203 pd getTilt;
#N canvas 868 174 343 341 majorScale 0;
#X msg 65 83 0;
#X msg 84 107 2;
#X msg 123 150 5;
#X msg 143 179 7;
#X msg 162 207 9;
#X msg 181 233 11;
#X msg 104 127 4;
#X obj 65 58 select 0 1 2 3 4 5 6;
#X obj 65 34 % 7;
#X obj 59 263 outlet;
#X obj 65 9 inlet;
#X connect 0 0 9 0;
#X connect 1 0 9 0;
#X connect 2 0 9 0;
#X connect 3 0 9 0;
#X connect 4 0 9 0;
#X connect 5 0 9 0;
#X connect 6 0 9 0;
#X connect 7 0 0 0;
#X connect 7 1 1 0;
#X connect 7 2 6 0;
#X connect 7 3 2 0;
#X connect 7 4 3 0;
#X connect 7 5 4 0;
#X connect 7 6 5 0;
#X connect 8 0 7 0;
#X connect 10 0 8 0;
#X restore 40 211 pd majorScale;
#N canvas 130 224 343 341 minorScale 0;
#X msg 65 83 0;
#X msg 84 107 2;
#X msg 123 150 5;
#X msg 143 179 7;
#X obj 65 58 select 0 1 2 3 4 5 6;
#X obj 65 34 % 7;
#X obj 59 263 outlet;
#X obj 65 9 inlet;
#X msg 104 127 3;
#X msg 181 233 10;
#X msg 162 207 8;
#X connect 0 0 6 0;
#X connect 1 0 6 0;
#X connect 2 0 6 0;
#X connect 3 0 6 0;
#X connect 4 0 0 0;
#X connect 4 1 1 0;
#X connect 4 2 8 0;
#X connect 4 3 2 0;
#X connect 4 4 3 0;
#X connect 4 5 10 0;
#X connect 4 6 9 0;
#X connect 5 0 4 0;
#X connect 7 0 5 0;
#X connect 8 0 6 0;
#X connect 9 0 6 0;
#X connect 10 0 6 0;
#X restore 456 38 pd minorScale;
#N canvas 0 50 450 300 minorChord 0;
#X obj 71 94 select 0 1 2 3;
#X obj 71 30 inlet;
#X obj 72 62 % 4;
#X obj 71 222 outlet;
#X msg 71 123 0;
#X msg 118 171 7;
#X msg 142 198 10;
#X msg 94 146 3;
#X connect 0 0 4 0;
#X connect 0 1 7 0;
#X connect 0 2 5 0;
#X connect 0 3 6 0;
#X connect 1 0 2 0;
#X connect 2 0 0 0;
#X connect 4 0 3 0;
#X connect 5 0 3 0;
#X connect 6 0 3 0;
#X connect 7 0 3 0;
#X restore 451 12 pd minorChord;
#N canvas 638 159 450 300 addChordOctave 0;
#X obj 67 28 inlet;
#X obj 68 52 / 4;
#X obj 68 74 int;
#X obj 70 97 * 12;
#X obj 68 118 outlet;
#X connect 0 0 1 0;
#X connect 1 0 2 0;
#X connect 2 0 3 0;
#X connect 3 0 4 0;
#X restore 483 118 pd addChordOctave;
#N canvas 425 359 297 233 addScaleOctave 0;
#X obj 87 123 * 12;
#X obj 85 55 inlet;
#X obj 86 150 outlet;
#X obj 85 79 / 7;
#X obj 85 101 int;
#X connect 0 0 2 0;
#X connect 1 0 3 0;
#X connect 3 0 4 0;
#X connect 4 0 0 0;
#X restore 58 236 pd addScaleOctave;
#N canvas 749 247 450 300 majorChord 0;
#X obj 71 94 select 0 1 2 3;
#X obj 71 30 inlet;
#X obj 72 62 % 4;
#X obj 71 222 outlet;
#X msg 71 123 0;
#X msg 94 146 4;
#X msg 118 171 7;
#X msg 142 198 10;
#X connect 0 0 4 0;
#X connect 0 1 5 0;
#X connect 0 2 6 0;
#X connect 0 3 7 0;
#X connect 1 0 2 0;
#X connect 2 0 0 0;
#X connect 4 0 3 0;
#X connect 5 0 3 0;
#X connect 6 0 3 0;
#X connect 7 0 3 0;
#X restore 460 65 pd majorChord;
#X obj 50 262 bng 15 250 50 0 empty empty empty 17 7 0 10 -262144 -1
-1;
#X obj 40 291 +;
#N canvas 667 114 450 300 xScaling 0;
#X obj 49 27 inlet;
#X obj 49 93 int;
#X obj 49 115 outlet;
#X obj 49 71 * 14;
#X obj 49 49 expr ($f1+1)/2;
#X connect 0 0 4 0;
#X connect 1 0 2 0;
#X connect 3 0 1 0;
#X connect 4 0 3 0;
#X restore 40 134 pd xScaling;
#N canvas 166 208 450 300 yScaling 0;
#X obj 49 27 inlet;
#X obj 48 103 int;
#X obj 48 125 outlet;
#X obj 48 56 expr ($f1+1)/2;
#X obj 48 81 * 8;
#X connect 0 0 3 0;
#X connect 1 0 2 0;
#X connect 3 0 4 0;
#X connect 4 0 1 0;
#X restore 162 137 pd yScaling;
#X obj 40 182 expr $f1 + ($f2*2);
#X obj 116 156 bng 15 250 50 0 empty empty empty 17 7 0 10 -262144
-1 -1;
#N canvas 0 50 792 533 displayTilt 0;
#X obj 73 95 inlet;
#X obj 197 99 inlet;
#X obj 74 125 expr ($f1+1)/2;
#X obj 74 180 pack f f;
#X obj 197 124 expr ($f1+1)/2;
#X obj 126 151 bng 15 250 50 0 empty empty empty 17 7 0 10 -262144
-1 -1;
#X obj 72 307 send toGUI;
#X msg 49 246 list /displayLabel0 Tilt x: \$1;
#X msg 139 279 list /displayLabel1 Tilt y: \$1;
#X msg 71 212 list /tiltDisplay \$1 \$2;
#X connect 0 0 2 0;
#X connect 0 0 7 0;
#X connect 1 0 4 0;
#X connect 1 0 8 0;
#X connect 2 0 3 0;
#X connect 3 0 9 0;
#X connect 4 0 3 1;
#X connect 4 0 5 0;
#X connect 5 0 3 0;
#X connect 7 0 6 0;
#X connect 8 0 6 0;
#X connect 9 0 6 0;
#X restore 437 440 pd displayTilt;
#X obj 280 234 s xTilt;
#X obj 347 234 s yTilt;
#X obj 439 411 r xTilt;
#X obj 528 413 r yTilt;
#X obj 40 106 r xTilt;
#X obj 162 111 r yTilt;
#N canvas 0 50 450 300 displayMIDI 0;
#X obj 91 116 inlet;
#X obj 91 160 send toGUI;
#X msg 91 138 list /midiLabel0 MIDI: \$1;
#X connect 0 0 2 0;
#X connect 2 0 1 0;
#X restore 305 439 pd displayMIDI;
#X obj 78 412 s midiOut;
#X obj 305 407 r midiOut;
#N canvas 478 61 450 300 getRootNote 0;
#X obj 41 56 r fromGUI;
#X obj 41 78 list trim;
#X obj 41 100 route /rootNoteSlider;
#X obj 41 122 outlet;
#X connect 0 0 1 0;
#X connect 1 0 2 0;
#X connect 2 0 3 0;
#X restore 419 206 pd getRootNote;
#X obj 419 232 s rootNote;
#N canvas 415 176 450 300 getOctave 0;
#X obj 134 49 r fromGUI;
#X obj 134 71 list trim;
#X obj 134 93 route /octaveSlider;
#X obj 134 115 outlet;
#X connect 0 0 1 0;
#X connect 1 0 2 0;
#X connect 2 0 3 0;
#X restore 536 203 pd getOctave;
#X obj 537 234 s octave;
#X obj 40 386 +;
#X obj 71 320 r octave;
#X obj 144 320 r rootNote;
#X obj 71 343 * 12;
#X obj 116 364 +;
#X obj 127 342 bng 15 250 50 0 empty empty empty 17 7 0 10 -262144
-1 -1;
#X obj 70 367 bng 15 250 50 0 empty empty empty 17 7 0 10 -262144 -1
-1;
#X connect 0 0 2 0;
#X connect 0 0 2 1;
#X connect 1 0 0 0;
#X connect 3 0 17 0;
#X connect 3 1 18 0;
#X connect 4 0 11 0;
#X connect 8 0 11 1;
#X connect 8 0 10 0;
#X connect 10 0 11 0;
#X connect 11 0 30 0;
#X connect 12 0 14 0;
#X connect 13 0 14 1;
#X connect 13 0 15 0;
#X connect 14 0 4 0;
#X connect 14 0 8 0;
#X connect 15 0 14 0;
#X connect 19 0 16 0;
#X connect 20 0 16 1;
#X connect 21 0 12 0;
#X connect 22 0 13 0;
#X connect 25 0 23 0;
#X connect 26 0 27 0;
#X connect 28 0 29 0;
#X connect 30 0 1 0;
#X connect 30 0 24 0;
#X connect 31 0 33 0;
#X connect 32 0 34 1;
#X connect 32 0 35 0;
#X connect 33 0 34 0;
#X connect 34 0 30 1;
#X connect 34 0 36 0;
#X connect 35 0 34 0;
#X connect 36 0 30 0;
