#N canvas 643 50 658 664 10;
#X obj 31 430 mtof;
#X obj 30 490 dac~;
#N canvas 0 50 450 300 minorChord 0;
#X obj 71 94 select 0 1 2 3;
#X obj 71 30 inlet;
#X obj 72 62 % 4;
#X obj 71 222 outlet;
#X msg 71 123 0;
#X msg 118 171 7;
#X msg 142 198 10;
#X msg 94 146 3;
#X connect 0 0 4 0;
#X connect 0 1 7 0;
#X connect 0 2 5 0;
#X connect 0 3 6 0;
#X connect 1 0 2 0;
#X connect 2 0 0 0;
#X connect 4 0 3 0;
#X connect 5 0 3 0;
#X connect 6 0 3 0;
#X connect 7 0 3 0;
#X restore 518 146 pd minorChord;
#N canvas 638 159 450 300 addChordOctave 0;
#X obj 67 28 inlet;
#X obj 68 52 / 4;
#X obj 68 74 int;
#X obj 70 97 * 12;
#X obj 68 118 outlet;
#X connect 0 0 1 0;
#X connect 1 0 2 0;
#X connect 2 0 3 0;
#X connect 3 0 4 0;
#X restore 521 201 pd addChordOctave;
#N canvas 425 359 297 233 addScaleOctave 0;
#X obj 87 123 * 12;
#X obj 85 55 inlet;
#X obj 86 150 outlet;
#X obj 85 79 / 7;
#X obj 85 101 int;
#X connect 0 0 2 0;
#X connect 1 0 3 0;
#X connect 3 0 4 0;
#X connect 4 0 0 0;
#X restore 64 199 pd addScaleOctave;
#N canvas 749 247 450 300 majorChord 0;
#X obj 71 94 select 0 1 2 3;
#X obj 71 30 inlet;
#X obj 72 62 % 4;
#X obj 71 222 outlet;
#X msg 71 123 0;
#X msg 94 146 4;
#X msg 118 171 7;
#X msg 142 198 10;
#X connect 0 0 4 0;
#X connect 0 1 5 0;
#X connect 0 2 6 0;
#X connect 0 3 7 0;
#X connect 1 0 2 0;
#X connect 2 0 0 0;
#X connect 4 0 3 0;
#X connect 5 0 3 0;
#X connect 6 0 3 0;
#X connect 7 0 3 0;
#X restore 520 173 pd majorChord;
#X obj 31 253 +;
#N canvas 235 84 792 533 displayTilt 0;
#X obj 73 95 inlet;
#X obj 197 99 inlet;
#X obj 74 125 expr ($f1+1)/2;
#X obj 74 180 pack f f;
#X obj 197 124 expr ($f1+1)/2;
#X obj 126 151 bng 15 250 50 0 empty empty empty 17 7 0 10 -262144
-1 -1;
#X obj 74 275 send toGUI;
#X msg 74 244 list /tiltDisplay \$1 \$2;
#N canvas 0 50 450 300 speedlim 0;
#X msg 69 119 1;
#X obj 43 144 spigot 1;
#X obj 73 73 t b b;
#X msg 98 119 0;
#X obj 71 95 delay 200;
#X obj 46 29 inlet;
#X obj 45 193 outlet;
#X connect 0 0 1 1;
#X connect 1 0 2 0;
#X connect 1 0 6 0;
#X connect 2 0 4 0;
#X connect 2 1 3 0;
#X connect 3 0 1 1;
#X connect 4 0 0 0;
#X connect 5 0 1 0;
#X restore 74 212 pd speedlim;
#X connect 0 0 2 0;
#X connect 1 0 4 0;
#X connect 2 0 3 0;
#X connect 3 0 8 0;
#X connect 4 0 3 1;
#X connect 4 0 5 0;
#X connect 5 0 3 0;
#X connect 7 0 6 0;
#X connect 8 0 7 0;
#X restore 437 440 pd displayTilt;
#N canvas 741 239 579 408 displayMIDI 1;
#X obj 91 93 inlet;
#X obj 91 160 send toGUI;
#X msg 91 138 list /midiLabel0 MIDI: \$1;
#N canvas 0 50 450 300 speedlim 0;
#X msg 69 119 1;
#X obj 43 144 spigot 1;
#X obj 73 73 t b b;
#X msg 98 119 0;
#X obj 71 95 delay 200;
#X obj 46 29 inlet;
#X obj 45 193 outlet;
#X connect 0 0 1 1;
#X connect 1 0 2 0;
#X connect 1 0 6 0;
#X connect 2 0 4 0;
#X connect 2 1 3 0;
#X connect 3 0 1 1;
#X connect 4 0 0 0;
#X connect 5 0 1 0;
#X restore 91 116 pd speedlim;
#X connect 0 0 3 0;
#X connect 2 0 1 0;
#X connect 3 0 2 0;
#X restore 305 439 pd displayMIDI;
#X obj 60 405 s midiOut;
#X obj 305 415 r midiOut;
#X obj 51 276 r octave;
#X obj 71 299 r rootNote;
#N canvas 78 147 727 441 getSystemData 0;
#N canvas 0 50 450 300 speedlim 0;
#X msg 69 119 1;
#X obj 43 144 spigot 1;
#X obj 73 73 t b b;
#X msg 98 119 0;
#X obj 71 95 delay 200;
#X obj 46 29 inlet;
#X obj 45 193 outlet;
#X connect 0 0 1 1;
#X connect 1 0 2 0;
#X connect 1 0 6 0;
#X connect 2 0 4 0;
#X connect 2 1 3 0;
#X connect 3 0 1 1;
#X connect 4 0 0 0;
#X connect 5 0 1 0;
#X restore 340 265 pd speedlim;
#N canvas 0 50 450 300 speedlim 0;
#X msg 69 119 1;
#X obj 43 144 spigot 1;
#X obj 73 73 t b b;
#X msg 98 119 0;
#X obj 71 95 delay 200;
#X obj 46 29 inlet;
#X obj 45 193 outlet;
#X connect 0 0 1 1;
#X connect 1 0 2 0;
#X connect 1 0 6 0;
#X connect 2 0 4 0;
#X connect 2 1 3 0;
#X connect 3 0 1 1;
#X connect 4 0 0 0;
#X connect 5 0 1 0;
#X restore 339 242 pd speedlim;
#X obj 93 391 s toGUI;
#N canvas 0 50 450 300 speedlim 0;
#X msg 69 119 1;
#X obj 43 144 spigot 1;
#X obj 73 73 t b b;
#X msg 98 119 0;
#X obj 71 95 delay 200;
#X obj 46 29 inlet;
#X obj 45 193 outlet;
#X connect 0 0 1 1;
#X connect 1 0 2 0;
#X connect 1 0 6 0;
#X connect 2 0 4 0;
#X connect 2 1 3 0;
#X connect 3 0 1 1;
#X connect 4 0 0 0;
#X connect 5 0 1 0;
#X restore 338 217 pd speedlim;
#X msg 230 357 list /tiltLabel x: \$1 y: \$2;
#X msg 179 338 list /accelLabel x: \$1 y: \$2 z: \$3;
#X msg 123 319 list /gyroLabel roll: \$1 pitch: \$2 yaw: \$3;
#X msg 110 296 list /motionLabel roll: \$1 pitch: \$2 yaw: \$3;
#N canvas 0 50 450 300 speedlim 0;
#X msg 69 119 1;
#X obj 43 144 spigot 1;
#X obj 73 73 t b b;
#X msg 98 119 0;
#X obj 71 95 delay 200;
#X obj 46 29 inlet;
#X obj 45 193 outlet;
#X connect 0 0 1 1;
#X connect 1 0 2 0;
#X connect 1 0 6 0;
#X connect 2 0 4 0;
#X connect 2 1 3 0;
#X connect 3 0 1 1;
#X connect 4 0 0 0;
#X connect 5 0 1 0;
#X restore 337 193 pd speedlim;
#X obj 374 168 s tilt;
#X obj 367 146 s accel;
#X obj 374 124 s gyro;
#X obj 361 102 s motion;
#X obj 82 15 r fromSystem;
#X obj 82 65 route /tilts /accel /gyro /motion;
#X obj 82 40 list trim;
#X connect 0 0 4 0;
#X connect 1 0 5 0;
#X connect 3 0 6 0;
#X connect 4 0 2 0;
#X connect 5 0 2 0;
#X connect 6 0 2 0;
#X connect 7 0 2 0;
#X connect 8 0 7 0;
#X connect 13 0 15 0;
#X connect 14 0 9 0;
#X connect 14 0 0 0;
#X connect 14 1 10 0;
#X connect 14 1 1 0;
#X connect 14 2 11 0;
#X connect 14 2 3 0;
#X connect 14 3 12 0;
#X connect 14 3 8 0;
#X connect 15 0 14 0;
#X restore 30 40 pd getSystemData;
#X text 156 39 Get system data: tilt \, accel \, gyro and motion;
#X obj 438 394 unpack f f;
#N canvas 487 422 673 414 average 0;
#X obj 91 119 +;
#X obj 86 72 t f f;
#X obj 86 31 inlet;
#X obj 91 153 * 0.5;
#X text 185 76 Source: http://lists.puredata.info/ pipermail/pd-list/2001-09/003086.html
;
#X obj 91 185 outlet;
#X connect 0 0 3 0;
#X connect 1 0 0 1;
#X connect 1 1 0 0;
#X connect 2 0 1 0;
#X connect 3 0 5 0;
#X restore 521 227 pd average;
#N canvas 475 458 450 391 round 0;
#X obj 152 196 moses 0.5;
#X obj 120 43 inlet;
#X obj 120 74 t f f;
#X obj 121 253 +;
#X msg 151 225 0;
#X obj 153 164 -;
#X obj 153 107 t f f;
#X obj 180 135 int;
#X msg 193 226 1;
#X obj 121 300 outlet;
#X obj 120 164 int;
#X connect 0 0 4 0;
#X connect 0 1 8 0;
#X connect 1 0 2 0;
#X connect 2 0 10 0;
#X connect 2 1 6 0;
#X connect 3 0 9 0;
#X connect 4 0 3 1;
#X connect 5 0 0 0;
#X connect 6 0 5 0;
#X connect 6 1 7 0;
#X connect 7 0 5 1;
#X connect 8 0 3 1;
#X connect 10 0 3 0;
#X restore 520 253 pd round;
#X obj 436 338 r scaledTilt;
#N canvas 747 296 450 300 rescale 0;
#X obj 105 100 unpack f f;
#X obj 172 123 / 8;
#X obj 107 239 outlet;
#X obj 107 215 pack f f;
#X obj 104 70 inlet;
#X obj 105 161 expr ($f1*2)-1;
#X obj 171 186 expr ($f1*2)-1;
#X obj 105 128 / 7;
#X connect 0 0 7 0;
#X connect 0 1 1 0;
#X connect 1 0 6 0;
#X connect 3 0 2 0;
#X connect 4 0 0 0;
#X connect 5 0 3 0;
#X connect 6 0 3 1;
#X connect 7 0 5 0;
#X restore 436 364 pd rescale;
#X obj 64 221 t b f;
#N canvas 735 273 450 300 soundGeneration 1;
#X obj 26 52 inlet;
#X obj 28 265 outlet~;
#X obj 162 164 osc~;
#X obj 28 194 vline~;
#X obj 28 223 *~;
#X msg 26 167 1 100 \, 0 500 100;
#X obj 27 136 t b f;
#N canvas 0 50 450 300 speedlim 0;
#X msg 69 119 1;
#X obj 43 144 spigot 1;
#X obj 73 73 t b b;
#X msg 98 119 0;
#X obj 46 29 inlet;
#X obj 45 193 outlet;
#X obj 71 95 delay 200;
#X connect 0 0 1 1;
#X connect 1 0 2 0;
#X connect 1 0 5 0;
#X connect 2 0 6 0;
#X connect 2 1 3 0;
#X connect 3 0 1 1;
#X connect 4 0 1 0;
#X connect 6 0 0 0;
#X restore 27 98 pd speedlim;
#X connect 0 0 7 0;
#X connect 2 0 4 1;
#X connect 3 0 4 0;
#X connect 4 0 1 0;
#X connect 5 0 3 0;
#X connect 6 0 5 0;
#X connect 6 1 2 0;
#X connect 7 0 6 0;
#X restore 31 460 pd soundGeneration;
#N canvas 145 224 450 300 offset 0;
#X obj 80 30 inlet;
#X obj 79 210 +;
#X obj 90 79 * 12;
#X obj 89 158 +;
#X obj 88 182 t b f;
#X obj 102 131 t b f;
#X obj 79 236 + 7;
#X obj 79 262 outlet;
#X obj 90 55 inlet;
#X obj 102 107 inlet;
#X text 132 27 Base value;
#X text 143 54 Octave;
#X text 151 108 Root note offset;
#X text 187 206 Global offset;
#X obj 139 206 inlet;
#X connect 0 0 1 0;
#X connect 1 0 6 0;
#X connect 2 0 3 0;
#X connect 3 0 4 0;
#X connect 4 0 1 0;
#X connect 4 1 1 1;
#X connect 5 0 3 0;
#X connect 5 1 3 1;
#X connect 6 0 7 0;
#X connect 8 0 2 0;
#X connect 9 0 5 0;
#X connect 14 0 6 1;
#X restore 31 370 pd offset;
#X msg 89 348 7;
#X obj 89 324 loadbang;
#N canvas 144 180 450 300 scaleGate 0;
#N canvas 130 224 343 341 minorScale 0;
#X msg 65 83 0;
#X msg 84 107 2;
#X msg 123 150 5;
#X msg 143 179 7;
#X obj 65 58 select 0 1 2 3 4 5 6;
#X obj 65 34 % 7;
#X obj 59 263 outlet;
#X obj 65 9 inlet;
#X msg 104 127 3;
#X msg 181 233 10;
#X msg 162 207 8;
#X connect 0 0 6 0;
#X connect 1 0 6 0;
#X connect 2 0 6 0;
#X connect 3 0 6 0;
#X connect 4 0 0 0;
#X connect 4 1 1 0;
#X connect 4 2 8 0;
#X connect 4 3 2 0;
#X connect 4 4 3 0;
#X connect 4 5 10 0;
#X connect 4 6 9 0;
#X connect 5 0 4 0;
#X connect 7 0 5 0;
#X connect 8 0 6 0;
#X connect 9 0 6 0;
#X connect 10 0 6 0;
#X restore 88 122 pd minorScale;
#N canvas 0 50 450 300 gate 0;
#X obj 95 55 inlet;
#X obj 109 137 spigot;
#X obj 174 58 inlet;
#X obj 247 60 inlet;
#X obj 195 136 spigot;
#X obj 161 187 outlet;
#X obj 300 86 loadbang;
#X msg 297 109 0;
#X obj 133 99 expr ($f1+1)%2;
#X connect 0 0 1 0;
#X connect 1 0 5 0;
#X connect 2 0 4 0;
#X connect 3 0 4 1;
#X connect 3 0 8 0;
#X connect 4 0 5 0;
#X connect 6 0 7 0;
#X connect 7 0 8 0;
#X connect 7 0 4 1;
#X connect 8 0 1 1;
#X restore 65 165 pd gate;
#N canvas 1000 337 343 341 majorScale 0;
#X msg 65 83 0;
#X msg 84 107 2;
#X msg 123 150 5;
#X msg 143 179 7;
#X msg 162 207 9;
#X msg 181 233 11;
#X msg 104 127 4;
#X obj 65 58 select 0 1 2 3 4 5 6;
#X obj 65 34 % 7;
#X obj 59 263 outlet;
#X obj 65 9 inlet;
#X connect 0 0 9 0;
#X connect 1 0 9 0;
#X connect 2 0 9 0;
#X connect 3 0 9 0;
#X connect 4 0 9 0;
#X connect 5 0 9 0;
#X connect 6 0 9 0;
#X connect 7 0 0 0;
#X connect 7 1 1 0;
#X connect 7 2 6 0;
#X connect 7 3 2 0;
#X connect 7 4 3 0;
#X connect 7 5 4 0;
#X connect 7 6 5 0;
#X connect 8 0 7 0;
#X connect 10 0 8 0;
#X restore 65 100 pd majorScale;
#X obj 65 53 inlet;
#X obj 65 197 outlet;
#X obj 111 141 inlet;
#X text 171 141 0 for major scale 1 for minor scale;
#X connect 0 0 1 1;
#X connect 1 0 4 0;
#X connect 2 0 1 0;
#X connect 3 0 2 0;
#X connect 3 0 0 0;
#X connect 5 0 1 2;
#X restore 32 174 pd scaleGate;
#N canvas 156 133 450 463 inputMapping 1;
#N canvas 834 191 450 300 xScaling 0;
#X obj 49 27 inlet;
#X obj 49 93 int;
#X obj 49 115 outlet;
#X obj 49 49 expr ($f1+1)/2;
#X obj 49 71 * 7;
#X connect 0 0 3 0;
#X connect 1 0 2 0;
#X connect 3 0 4 0;
#X connect 4 0 1 0;
#X restore 52 245 pd xScaling;
#N canvas 166 208 450 300 yScaling 0;
#X obj 49 27 inlet;
#X obj 48 103 int;
#X obj 48 125 outlet;
#X obj 48 56 expr ($f1+1)/2;
#X obj 48 81 * 8;
#X connect 0 0 3 0;
#X connect 1 0 2 0;
#X connect 3 0 4 0;
#X connect 4 0 1 0;
#X restore 117 105 pd yScaling;
#X obj 50 22 r tilt;
#X obj 50 45 unpack f f;
#X obj 186 280 pack f f;
#X obj 187 311 s scaledTilt;
#X obj 226 126 / 4;
#X obj 226 149 int;
#X obj 118 135 % 4;
#X obj 52 300 expr $f1 + $f2;
#X obj 115 275 t b f;
#X obj 118 171 expr $f1*2+$f2*7;
#X obj 52 329 outlet;
#X obj 116 75 * -1;
#X connect 0 0 4 0;
#X connect 0 0 9 0;
#X connect 1 0 4 1;
#X connect 1 0 6 0;
#X connect 1 0 8 0;
#X connect 2 0 3 0;
#X connect 3 0 0 0;
#X connect 3 1 13 0;
#X connect 4 0 5 0;
#X connect 6 0 7 0;
#X connect 7 0 11 1;
#X connect 8 0 11 0;
#X connect 9 0 12 0;
#X connect 10 0 9 0;
#X connect 10 1 9 1;
#X connect 11 0 10 0;
#X connect 13 0 1 0;
#X restore 32 124 pd inputMapping;
#X obj 32 149 t f f;
#N canvas 0 50 450 300 getGUIData 0;
#X obj 46 173 s rootNote;
#X obj 166 174 s octave;
#X obj 286 173 s scaleMode;
#X obj 46 148 route /rootNoteSlider /octaveSlider /scaleModeToggle
;
#X obj 46 104 r fromGUI;
#X obj 46 126 list trim;
#X connect 3 0 0 0;
#X connect 3 1 1 0;
#X connect 3 2 2 0;
#X connect 4 0 5 0;
#X connect 5 0 3 0;
#X restore 31 63 pd getGUIData;
#X text 158 62 Get GUI data;
#X connect 0 0 21 0;
#X connect 4 0 20 0;
#X connect 6 0 22 0;
#X connect 10 0 8 0;
#X connect 11 0 22 1;
#X connect 12 0 22 2;
#X connect 15 0 7 0;
#X connect 15 1 7 1;
#X connect 18 0 19 0;
#X connect 19 0 15 0;
#X connect 20 0 6 0;
#X connect 20 1 6 1;
#X connect 21 0 1 0;
#X connect 21 0 1 1;
#X connect 22 0 9 0;
#X connect 22 0 0 0;
#X connect 23 0 22 3;
#X connect 24 0 23 0;
#X connect 25 0 6 0;
#X connect 26 0 27 0;
#X connect 27 0 25 0;
#X connect 27 1 4 0;
