#N canvas 684 11 658 664 10;
#X msg 350 396 list /displayLabel0 Tilt x: \$1;
#X msg 348 461 list /displayLabel1 Tilt y: \$1;
#X obj 310 546 send toGUI;
#X obj 56 491 osc~;
#X obj 56 464 mtof;
#X obj 61 555 dac~;
#X floatatom 122 573 5 0 0 0 - - -, f 5;
#N canvas 678 109 450 300 getTilt 0;
#X obj 46 26 receive fromSystem;
#X obj 46 58 list trim;
#X obj 45 90 route /tilts;
#X obj 46 129 unpack 0 0;
#X obj 47 185 outlet;
#X obj 115 185 outlet;
#X connect 0 0 1 0;
#X connect 1 0 2 0;
#X connect 2 0 3 0;
#X connect 3 0 4 0;
#X connect 3 1 5 0;
#X restore 50 37 pd getTilt;
#X floatatom 232 119 5 0 0 0 - - -, f 5;
#X floatatom 66 143 5 0 0 0 - - -, f 5;
#N canvas 868 174 343 341 majorScale 0;
#X msg 65 83 0;
#X msg 84 107 2;
#X msg 123 150 5;
#X msg 143 179 7;
#X msg 162 207 9;
#X msg 181 233 11;
#X msg 104 127 4;
#X obj 65 58 select 0 1 2 3 4 5 6;
#X obj 65 34 % 7;
#X obj 59 263 outlet;
#X obj 65 9 inlet;
#X connect 0 0 9 0;
#X connect 1 0 9 0;
#X connect 2 0 9 0;
#X connect 3 0 9 0;
#X connect 4 0 9 0;
#X connect 5 0 9 0;
#X connect 6 0 9 0;
#X connect 7 0 0 0;
#X connect 7 1 1 0;
#X connect 7 2 6 0;
#X connect 7 3 2 0;
#X connect 7 4 3 0;
#X connect 7 5 4 0;
#X connect 7 6 5 0;
#X connect 8 0 7 0;
#X connect 10 0 8 0;
#X restore 49 215 pd majorScale;
#N canvas 130 224 343 341 minorScale 0;
#X msg 65 83 0;
#X msg 84 107 2;
#X msg 123 150 5;
#X msg 143 179 7;
#X obj 65 58 select 0 1 2 3 4 5 6;
#X obj 65 34 % 7;
#X obj 59 263 outlet;
#X obj 65 9 inlet;
#X msg 104 127 3;
#X msg 181 233 10;
#X msg 162 207 8;
#X connect 0 0 6 0;
#X connect 1 0 6 0;
#X connect 2 0 6 0;
#X connect 3 0 6 0;
#X connect 4 0 0 0;
#X connect 4 1 1 0;
#X connect 4 2 8 0;
#X connect 4 3 2 0;
#X connect 4 4 3 0;
#X connect 4 5 10 0;
#X connect 4 6 9 0;
#X connect 5 0 4 0;
#X connect 7 0 5 0;
#X connect 8 0 6 0;
#X connect 9 0 6 0;
#X connect 10 0 6 0;
#X restore 461 63 pd minorScale;
#N canvas 0 50 450 300 minorChord 0;
#X obj 71 94 select 0 1 2 3;
#X obj 71 30 inlet;
#X obj 72 62 % 4;
#X obj 71 222 outlet;
#X msg 71 123 0;
#X msg 118 171 7;
#X msg 142 198 10;
#X msg 94 146 3;
#X connect 0 0 4 0;
#X connect 0 1 7 0;
#X connect 0 2 5 0;
#X connect 0 3 6 0;
#X connect 1 0 2 0;
#X connect 2 0 0 0;
#X connect 4 0 3 0;
#X connect 5 0 3 0;
#X connect 6 0 3 0;
#X connect 7 0 3 0;
#X restore 456 37 pd minorChord;
#N canvas 638 159 450 300 addChordOctave 0;
#X obj 67 28 inlet;
#X obj 68 52 / 4;
#X obj 68 74 int;
#X obj 70 97 * 12;
#X obj 68 118 outlet;
#X connect 0 0 1 0;
#X connect 1 0 2 0;
#X connect 2 0 3 0;
#X connect 3 0 4 0;
#X restore 488 143 pd addChordOctave;
#N canvas 425 359 297 233 addScaleOctave 0;
#X obj 87 123 * 12;
#X obj 85 55 inlet;
#X obj 86 150 outlet;
#X obj 85 79 / 7;
#X obj 85 101 int;
#X connect 0 0 2 0;
#X connect 1 0 3 0;
#X connect 3 0 4 0;
#X connect 4 0 0 0;
#X restore 202 248 pd addScaleOctave;
#X floatatom 227 282 5 0 0 0 - - -, f 5;
#X floatatom 57 74 5 0 0 0 - - -, f 5;
#X floatatom 129 65 5 0 0 0 - - -, f 5;
#N canvas 749 247 450 300 majorChord 0;
#X obj 71 94 select 0 1 2 3;
#X obj 71 30 inlet;
#X obj 72 62 % 4;
#X obj 71 222 outlet;
#X msg 71 123 0;
#X msg 94 146 4;
#X msg 118 171 7;
#X msg 142 198 10;
#X connect 0 0 4 0;
#X connect 0 1 5 0;
#X connect 0 2 6 0;
#X connect 0 3 7 0;
#X connect 1 0 2 0;
#X connect 2 0 0 0;
#X connect 4 0 3 0;
#X connect 5 0 3 0;
#X connect 6 0 3 0;
#X connect 7 0 3 0;
#X restore 465 90 pd majorChord;
#X floatatom 50 260 5 0 0 0 - - -, f 5;
#X floatatom 478 122 5 0 0 0 - - -, f 5;
#X obj 166 262 bng 15 250 50 0 empty empty empty 17 7 0 10 -262144
-1 -1;
#X obj 152 311 +;
#X obj 461 202 +;
#X floatatom 499 169 5 0 0 0 - - -, f 5;
#X obj 464 156 bng 15 250 50 0 empty empty empty 17 7 0 10 -262144
-1 -1;
#X obj 82 402 + 48;
#N canvas 667 114 450 300 xScaling 0;
#X obj 49 27 inlet;
#X obj 49 93 int;
#X obj 49 115 outlet;
#X obj 49 71 * 14;
#X obj 49 49 expr ($f1+1)/2;
#X connect 0 0 4 0;
#X connect 1 0 2 0;
#X connect 3 0 1 0;
#X connect 4 0 3 0;
#X restore 48 115 pd xScaling;
#N canvas 166 208 450 300 yScaling 0;
#X obj 49 27 inlet;
#X obj 48 103 int;
#X obj 48 125 outlet;
#X obj 48 56 expr ($f1+1)/2;
#X obj 48 81 * 8;
#X connect 0 0 3 0;
#X connect 1 0 2 0;
#X connect 3 0 4 0;
#X connect 4 0 1 0;
#X restore 141 124 pd yScaling;
#X obj 48 180 expr $f1 + ($f2*2);
#X obj 119 155 bng 15 250 50 0 empty empty empty 17 7 0 10 -262144
-1 -1;
#X floatatom 164 342 5 0 0 0 - - -, f 5;
#X connect 0 0 2 0;
#X connect 1 0 2 0;
#X connect 3 0 5 0;
#X connect 3 0 5 1;
#X connect 4 0 3 0;
#X connect 4 0 6 0;
#X connect 7 0 16 0;
#X connect 7 0 27 0;
#X connect 7 1 17 0;
#X connect 7 1 28 0;
#X connect 10 0 19 0;
#X connect 10 0 22 0;
#X connect 13 0 23 1;
#X connect 13 0 24 0;
#X connect 13 0 25 0;
#X connect 14 0 22 1;
#X connect 14 0 21 0;
#X connect 14 0 15 0;
#X connect 21 0 22 0;
#X connect 22 0 31 0;
#X connect 22 0 26 0;
#X connect 25 0 23 0;
#X connect 26 0 4 0;
#X connect 27 0 9 0;
#X connect 27 0 29 0;
#X connect 28 0 8 0;
#X connect 28 0 29 1;
#X connect 28 0 30 0;
#X connect 29 0 10 0;
#X connect 29 0 14 0;
#X connect 30 0 29 0;
